<svg width="228" height="32" viewBox="0 0 228 32" fill="none" xmlns="http://www.w3.org/2000/svg">
<path d="M27.1425 29H0.687566C0.139209 29 -0.187626 28.3802 0.116438 27.9179L17.2801 1.80776C18.0225 0.678172 19.2726 0 20.6105 0H27.1425C27.6161 0 28 0.38936 28 0.869965V28.1299C28 28.6102 27.6161 29 27.1425 29ZM22.1915 13.2916L21.3913 19.786L16.9541 13.2744H14.1244L14.1309 13.2916H14.1244L7.64609 24.1666H11.816L15.6376 16.0779L20.8517 24.1489H20.8537L20.8517 24.1666H24.5249L24.7483 13.2916H22.1915ZM23.3085 4.21158L22.8695 7.77451L21.2361 4.21158H19.5234L15.204 11.4612H17.8106L20.292 6.20923L22.4156 11.4612H24.7851L24.9347 4.21158H23.3085Z" fill="#8F9CBB"/>
<path d="M130 1H131V28H130V1Z" fill="#8F9CBB"/>
<path d="M46.437 1.48309V12.7584H44.5339L38.8871 4.5435V12.7584H37V1.48309H38.9816L44.5499 9.53672V1.48309H46.437ZM55.4929 5.34891V12.7584H53.6685V11.7436C53.0813 12.5813 52.2633 13 51.2145 13C50.7428 13 50.2969 12.8844 49.8774 12.6539C49.4583 12.4227 49.1122 12.1033 48.8394 11.6951C48.5461 11.2657 48.3989 10.7235 48.3989 10.0684V5.34891H50.2238V9.47239C50.2238 10.0307 50.3702 10.4899 50.6644 10.8497C50.9577 11.2095 51.372 11.3892 51.9067 11.3892C52.4627 11.3892 52.895 11.1879 53.2043 10.7852C53.5139 10.3825 53.6685 9.89131 53.6685 9.31146V5.34891H55.4929ZM62.2208 5.12332L62.2051 6.91126H62.063C61.2458 6.91126 60.5796 7.11529 60.0657 7.52351C59.5519 7.93157 59.2951 8.54382 59.2951 9.35975V12.7584H57.4707V5.34891H59.2951V6.58925C59.9767 5.61225 60.9516 5.12332 62.2208 5.12332ZM68.9952 5.91269L68.2876 7.04043C67.7109 6.64293 67.035 6.44439 66.2589 6.44439C65.4089 6.44439 64.9847 6.69119 64.9847 7.18532C64.9847 7.5932 65.472 7.91 66.4472 8.13559C67.1711 8.31823 67.6952 8.46829 68.0205 8.58642C68.9849 8.94101 69.4677 9.59051 69.4677 10.5356C69.4677 11.1046 69.2759 11.5825 68.893 11.969C68.5107 12.3557 68.0701 12.6216 67.5723 12.7665C67.0744 12.9114 66.5522 12.984 66.007 12.984C65.4195 12.984 64.8249 12.871 64.2217 12.6457C63.6188 12.4202 63.1127 12.1139 62.7041 11.7274L63.4899 10.616C64.214 11.271 65.0369 11.5985 65.9602 11.5985C66.1802 11.5985 66.4079 11.5744 66.6438 11.5261C66.8801 11.478 67.1106 11.3811 67.3363 11.2362C67.5614 11.0913 67.6747 10.9058 67.6747 10.6803C67.6747 10.4444 67.5486 10.2618 67.2969 10.1329C66.9719 9.99322 66.5522 9.85353 66.0384 9.71416L65.7393 9.63346C65.0058 9.44013 64.4186 9.17971 63.9781 8.85221C63.5375 8.52468 63.3175 8.03365 63.3175 7.37848C63.3175 6.61602 63.6086 6.04686 64.1903 5.67124C64.7724 5.29527 65.4566 5.1071 66.2427 5.1071C67.2704 5.1071 68.1883 5.37596 68.9952 5.91269ZM77.9882 5.34891V12.7584H76.1639V11.7436C75.5767 12.5813 74.7587 13 73.7095 13C73.2379 13 72.7922 12.8844 72.3728 12.6539C71.9534 12.4227 71.6076 12.1033 71.3348 11.6951C71.0412 11.2657 70.894 10.7235 70.894 10.0684V5.34891H72.7189V9.47239C72.7189 10.0307 72.8658 10.4899 73.1594 10.8497C73.4527 11.2095 73.8673 11.3892 74.402 11.3892C74.9578 11.3892 75.3901 11.1879 75.6997 10.7852C76.0089 10.3825 76.1639 9.89131 76.1639 9.31146V5.34891H77.9882ZM81.9322 1V12.7584H80.06V1H81.9322ZM86.5836 2.59446V5.34891H88.7383V6.91126H86.5836V10.1488C86.5836 10.933 87.0027 11.3247 87.8415 11.3247C88.0932 11.3247 88.3871 11.2928 88.7223 11.2282L88.7851 12.6457C88.3871 12.7851 87.9043 12.8551 87.3385 12.8551C86.573 12.8551 85.9513 12.6321 85.4745 12.1865C84.9969 11.741 84.7586 11.1313 84.7586 10.3582V6.91126H83.5006V5.34891H84.7586V2.59446H86.5836ZM97.0072 8.48986V12.7584H95.1829V11.631C94.9101 12.0389 94.5486 12.3664 94.0975 12.6135C93.6467 12.8603 93.1796 12.984 92.6977 12.984C91.9527 12.984 91.2791 12.7665 90.6765 12.3315C90.0733 11.8964 89.7717 11.314 89.7717 10.5838C89.7717 10.1007 89.9081 9.66832 90.1806 9.28715C90.4537 8.90615 90.81 8.60798 91.2503 8.39309C91.7744 8.13559 92.4195 8.00645 93.185 8.00645C93.9822 8.00645 94.6479 8.11389 95.1829 8.32893C95.1829 7.10459 94.5435 6.49251 93.2641 6.49251C92.3097 6.49251 91.5228 6.6805 90.9045 7.05615L90.4953 5.79991C91.3342 5.33821 92.3305 5.1071 93.4841 5.1071C95.8331 5.1071 97.0072 6.23502 97.0072 8.48986ZM91.5179 10.4873C91.5179 10.8738 91.6703 11.1584 91.9739 11.3409C92.278 11.5235 92.6347 11.6148 93.0435 11.6148C93.568 11.6148 94.0553 11.4159 94.5064 11.0187C94.9572 10.6215 95.1829 10.1543 95.1829 9.61728V9.4886C94.6901 9.28458 94.0872 9.18231 93.3739 9.18231C92.902 9.18231 92.4749 9.28715 92.0923 9.49669C91.7094 9.70607 91.5179 10.0362 91.5179 10.4873ZM106 8.05489V12.7584H104.176V8.63472C104.176 8.05489 104.034 7.5906 103.751 7.24171C103.468 6.89265 103.048 6.7181 102.493 6.7181C101.947 6.7181 101.517 6.91678 101.203 7.31397C100.888 7.71118 100.731 8.19976 100.731 8.77993V12.7584H98.9063V5.34891H100.731V6.36369C101.339 5.53704 102.162 5.12332 103.2 5.12332C104.029 5.12332 104.703 5.4027 105.222 5.96099C105.741 6.51957 106 7.21723 106 8.05489Z" fill="#8F9CBB"/>
<path d="M46.4277 16.4922V27.9794H44.5268L38.8858 19.6101V27.9794H37V16.4922H38.9798L44.5419 24.6974V16.4922H46.4277ZM55.157 23.6307V27.9794H53.3342V26.8307C53.0624 27.2462 52.7008 27.5799 52.2503 27.8318C51.8001 28.0833 51.3333 28.2092 50.8518 28.2092C50.1081 28.2092 49.4347 27.9875 48.8327 27.5444C48.2303 27.1016 47.9288 26.5079 47.9288 25.7639C47.9288 25.2718 48.0653 24.8313 48.3374 24.443C48.6095 24.0548 48.9663 23.751 49.4063 23.5321C49.9294 23.2698 50.574 23.1385 51.339 23.1385C52.1349 23.1385 52.8005 23.248 53.3342 23.4665C53.3342 22.2197 52.6954 21.5958 51.4177 21.5958C50.4643 21.5958 49.6784 21.7873 49.06 22.17L48.652 20.8902C49.4897 20.4198 50.4851 20.1847 51.6374 20.1847C53.9842 20.1847 55.157 21.3333 55.157 23.6307ZM49.673 25.6657C49.673 26.0595 49.8254 26.3494 50.1289 26.5355C50.4323 26.7212 50.7891 26.8143 51.1971 26.8143C51.7212 26.8143 52.2081 26.6117 52.6583 26.2071C53.1094 25.8024 53.3342 25.3264 53.3342 24.7796V24.6482C52.8418 24.4403 52.24 24.3365 51.5274 24.3365C51.0558 24.3365 50.629 24.443 50.2471 24.6565C49.8644 24.8698 49.673 25.2061 49.673 25.6657ZM63.3523 20.4307V21.2019L59.3605 26.4204H63.4464V27.9794H56.7054V27.126L60.5713 21.9899H56.9411V20.4307H63.3523ZM71.7038 23.6307V27.9794H69.8816V26.8307C69.6092 27.2462 69.2479 27.5799 68.7974 27.8318C68.3466 28.0833 67.8807 28.2092 67.3986 28.2092C66.6552 28.2092 65.9815 27.9875 65.3797 27.5444C64.7771 27.1016 64.4759 26.5079 64.4759 25.7639C64.4759 25.2718 64.6121 24.8313 64.8842 24.443C65.1572 24.0548 65.5134 23.751 65.953 23.5321C66.4771 23.2698 67.121 23.1385 67.8858 23.1385C68.6823 23.1385 69.3473 23.248 69.8816 23.4665C69.8816 22.2197 69.2427 21.5958 67.9642 21.5958C67.0111 21.5958 66.2255 21.7873 65.6074 22.17L65.1988 20.8902C66.0371 20.4198 67.0319 20.1847 68.1847 20.1847C70.531 20.1847 71.7038 21.3333 71.7038 23.6307ZM66.2203 25.6657C66.2203 26.0595 66.3722 26.3494 66.676 26.5355C66.9797 26.7212 67.3359 26.8143 67.7445 26.8143C68.2682 26.8143 68.7552 26.6117 69.206 26.2071C69.6562 25.8024 69.8816 25.3264 69.8816 24.7796V24.6482C69.3895 24.4403 68.7865 24.3365 68.0742 24.3365C67.6032 24.3365 67.176 24.443 66.7939 24.6565C66.4112 24.8698 66.2203 25.2061 66.2203 25.6657ZM78.2812 20.2009L78.2653 22.0224H78.1239C77.3067 22.0224 76.6417 22.2303 76.1282 22.646C75.6147 23.0619 75.358 23.6855 75.358 24.5169V27.9794H73.5352V20.4307H75.358V21.6944C76.039 20.6988 77.0129 20.2009 78.2812 20.2009ZM81.4789 16V21.481C82.1283 20.6275 82.9925 20.2009 84.0716 20.2009C85.1191 20.2009 85.9884 20.5949 86.68 21.3826C87.3713 22.17 87.7172 23.1112 87.7172 24.2051C87.7172 25.3102 87.369 26.2535 86.6723 27.0359C85.9759 27.818 85.1085 28.2092 84.0716 28.2092C82.9925 28.2092 82.1283 27.7825 81.4789 26.9291V27.9794H79.6561V16H81.4789ZM81.4162 24.2051C81.4162 24.9052 81.6305 25.4851 82.0602 25.9447C82.4896 26.404 83.0395 26.6339 83.7097 26.6339C84.3489 26.6339 84.8732 26.3958 85.2815 25.9198C85.6904 25.444 85.8944 24.8724 85.8944 24.2051C85.8944 23.5268 85.6904 22.9498 85.2815 22.4738C84.8732 21.9978 84.3489 21.7601 83.7097 21.7601C83.029 21.7601 82.4765 21.9899 82.0522 22.4492C81.6282 22.9087 81.4162 23.494 81.4162 24.2051ZM95.8963 23.6307V27.9794H94.0738V26.8307C93.8014 27.2462 93.4401 27.5799 92.9896 27.8318C92.5391 28.0833 92.0726 28.2092 91.591 28.2092C90.8473 28.2092 90.174 27.9875 89.5716 27.5444C88.9693 27.1016 88.6681 26.5079 88.6681 25.7639C88.6681 25.2718 88.804 24.8313 89.077 24.443C89.3491 24.0548 89.7053 23.751 90.1455 23.5321C90.669 23.2698 91.3129 23.1385 92.078 23.1385C92.8741 23.1385 93.5389 23.248 94.0738 23.4665C94.0738 22.2197 93.4349 21.5958 92.1567 21.5958C91.2035 21.5958 90.4174 21.7873 89.7993 22.17L89.3913 20.8902C90.2287 20.4198 91.2243 20.1847 92.3766 20.1847C94.7229 20.1847 95.8963 21.3333 95.8963 23.6307ZM90.4122 25.6657C90.4122 26.0595 90.5641 26.3494 90.8676 26.5355C91.1719 26.7212 91.5281 26.8143 91.9364 26.8143C92.4601 26.8143 92.9471 26.6117 93.3979 26.2071C93.8481 25.8024 94.0738 25.3264 94.0738 24.7796V24.6482C93.5808 24.4403 92.979 24.3365 92.2664 24.3365C91.7953 24.3365 91.3682 24.443 90.9861 24.6565C90.6034 24.8698 90.4122 25.2061 90.4122 25.6657ZM104.72 20.4307L99.6918 32H97.7744L99.8012 27.4379L96.6748 20.4307H98.607L100.697 25.4522L102.787 20.4307H104.72ZM112.789 24.1722C112.789 24.369 112.779 24.566 112.758 24.7629H106.834C106.939 25.3649 107.2 25.8461 107.62 26.2071C108.039 26.568 108.541 26.7486 109.128 26.7486C109.987 26.7486 110.804 26.4149 111.58 25.7474L112.428 26.88C111.516 27.766 110.422 28.2092 109.143 28.2092C107.981 28.2092 106.991 27.8399 106.174 27.1016C105.356 26.3629 104.948 25.403 104.948 24.2214C104.948 23.0728 105.344 22.1129 106.135 21.3415C106.925 20.5703 107.871 20.1847 108.971 20.1847C110.081 20.1847 110.995 20.5621 111.713 21.3169C112.431 22.0718 112.789 23.0234 112.789 24.1722ZM106.85 23.4665H111.014C110.909 22.9087 110.678 22.4547 110.323 22.1046C109.966 21.7544 109.521 21.5796 108.987 21.5796C108.452 21.5796 107.989 21.7544 107.596 22.1046C107.203 22.4547 106.954 22.9087 106.85 23.4665ZM121 20.4307L117.621 28.0123H116.38L112.986 20.4307H114.919L117.008 25.4522L119.083 20.4307H121Z" fill="#8F9CBB"/>
<path d="M141.135 1.48525V12.8059H140V1.48525H141.135ZM150.348 8.2778V12.8059H149.245V8.66594C149.245 7.97603 149.066 7.42039 148.709 7.00017C148.352 6.57963 147.836 6.36926 147.164 6.36926C146.523 6.36926 146.005 6.59852 145.611 7.05672C145.217 7.5149 145.02 8.07818 145.02 8.74675V12.8059H143.916V5.56073H145.02V6.57963C145.619 5.76018 146.449 5.35071 147.51 5.35071C148.33 5.35071 149.008 5.6308 149.544 6.1915C150.08 6.75202 150.348 7.44762 150.348 8.2778ZM154.406 2.74691V5.56073H156.613V6.57963H154.406V10.5256C154.406 10.9676 154.527 11.3044 154.769 11.5365C155.011 11.7682 155.347 11.884 155.778 11.884C156.093 11.884 156.377 11.8464 156.629 11.7711L156.692 12.7088C156.345 12.8276 155.967 12.8867 155.557 12.8867C154.905 12.8867 154.367 12.682 153.941 12.2725C153.516 11.8625 153.303 11.3235 153.303 10.6551V6.57963H152.026V5.56073H153.303V2.74691H154.406ZM165.228 9.08647C165.228 9.24796 165.217 9.41512 165.197 9.58786H159.127C159.2 10.2777 159.495 10.8492 160.01 11.3018C160.525 11.7545 161.124 11.981 161.807 11.981C162.248 11.981 162.698 11.884 163.155 11.69C163.612 11.4959 164.003 11.2373 164.329 10.9137L164.897 11.7387C164.077 12.5795 163.052 13 161.822 13C160.761 13 159.852 12.6335 159.096 11.9002C158.339 11.1671 157.96 10.267 157.96 9.19973C157.96 8.13215 158.328 7.22373 159.064 6.47452C159.799 5.72516 160.682 5.35071 161.712 5.35071C162.721 5.35071 163.559 5.71441 164.227 6.44209C164.894 7.16994 165.228 8.0513 165.228 9.08647ZM159.159 8.58512H164.109C163.993 7.93808 163.719 7.40705 163.289 6.99203C162.858 6.57702 162.332 6.36926 161.712 6.36926C161.082 6.36926 160.53 6.57963 160.057 7.00017C159.584 7.42039 159.285 7.94865 159.159 8.58512ZM171.131 5.35071L171.115 6.51509H171.036C170.216 6.51509 169.541 6.73604 169.01 7.17794C168.48 7.62001 168.214 8.25074 168.214 9.07017V12.8059H167.11V5.56073H168.214V6.82241C168.876 5.84099 169.848 5.35071 171.131 5.35071ZM179.413 8.2778V12.8059H178.31V8.66594C178.31 7.97603 178.131 7.42039 177.774 7.00017C177.417 6.57963 176.902 6.36926 176.229 6.36926C175.588 6.36926 175.071 6.59852 174.676 7.05672C174.282 7.5149 174.085 8.07818 174.085 8.74675V12.8059H172.981V5.56073H174.085V6.57963C174.684 5.76018 175.515 5.35071 176.576 5.35071C177.396 5.35071 178.074 5.6308 178.61 6.1915C179.146 6.75202 179.413 7.44762 179.413 8.2778ZM187.965 8.64963V12.8059H186.861V11.5283C186.588 11.981 186.217 12.3396 185.75 12.6038C185.282 12.8679 184.785 13 184.26 13C183.514 13 182.849 12.7897 182.266 12.3691C181.682 11.9485 181.391 11.3719 181.391 10.6388C181.391 10.0674 181.567 9.58492 181.919 9.19159C182.271 8.7979 182.686 8.52563 183.164 8.37475C183.642 8.22386 184.15 8.14824 184.686 8.14824C185.6 8.14824 186.325 8.2778 186.861 8.53638C186.861 7.79254 186.685 7.24262 186.333 6.88692C185.981 6.5309 185.437 6.35313 184.702 6.35313C183.777 6.35313 182.999 6.54197 182.369 6.91903L182.085 6.01373C182.841 5.57166 183.74 5.35071 184.78 5.35071C186.904 5.35071 187.965 6.45008 187.965 8.64963ZM182.478 10.6551C182.478 11.1185 182.662 11.4583 183.031 11.6737C183.398 11.8896 183.824 11.9973 184.307 11.9973C184.938 11.9973 185.521 11.7711 186.057 11.3181C186.593 10.8653 186.861 10.3261 186.861 9.70108V9.47461C186.325 9.21553 185.611 9.08647 184.718 9.08647C184.349 9.08647 184.008 9.12934 183.692 9.21553C183.378 9.3019 183.096 9.46647 182.849 9.70893C182.602 9.95155 182.478 10.267 182.478 10.6551ZM192.023 2.74691V5.56073H194.23V6.57963H192.023V10.5256C192.023 10.9676 192.144 11.3044 192.385 11.5365C192.627 11.7682 192.964 11.884 193.395 11.884C193.71 11.884 193.994 11.8464 194.246 11.7711L194.309 12.7088C193.962 12.8276 193.584 12.8867 193.174 12.8867C192.522 12.8867 191.984 12.682 191.558 12.2725C191.132 11.8625 190.92 11.3235 190.92 10.6551V6.57963H189.643V5.56073H190.92V2.74691H192.023ZM197.61 5.56073V12.8059H196.507V5.56073H197.61ZM197.784 2.76287C197.784 2.96786 197.716 3.14301 197.579 3.28853C197.443 3.43418 197.268 3.50686 197.058 3.50686C196.869 3.50686 196.701 3.43124 196.554 3.28068C196.407 3.12949 196.334 2.95677 196.334 2.76287C196.334 2.55806 196.402 2.38306 196.538 2.23739C196.675 2.09172 196.848 2.01904 197.058 2.01904C197.268 2.01904 197.443 2.08911 197.579 2.22924C197.716 2.36953 197.784 2.5473 197.784 2.76287ZM206.248 6.47452C206.989 7.22373 207.36 8.12692 207.36 9.1831C207.36 10.2401 206.987 11.1402 206.24 11.884C205.494 12.628 204.606 13 203.576 13C202.557 13 201.674 12.6226 200.927 11.8677C200.181 11.1133 199.809 10.2183 199.809 9.1831C199.809 8.12692 200.181 7.22373 200.927 6.47452C201.674 5.72516 202.557 5.35071 203.576 5.35071C204.617 5.35071 205.507 5.72516 206.248 6.47452ZM201.7 7.21037C201.185 7.77089 200.927 8.42868 200.927 9.1831C200.927 9.93801 201.188 10.593 201.708 11.1483C202.228 11.7037 202.851 11.981 203.576 11.981C204.312 11.981 204.937 11.7037 205.452 11.1483C205.967 10.593 206.225 9.93801 206.225 9.1831C206.225 8.40686 205.97 7.74401 205.46 7.19424C204.95 6.64415 204.322 6.36926 203.576 6.36926C202.84 6.36926 202.215 6.64967 201.7 7.21037ZM215.769 8.2778V12.8059H214.666V8.66594C214.666 7.97603 214.487 7.42039 214.13 7.00017C213.772 6.57963 213.257 6.36926 212.585 6.36926C211.944 6.36926 211.426 6.59852 211.032 7.05672C210.638 7.5149 210.44 8.07818 210.44 8.74675V12.8059H209.337V5.56073H210.44V6.57963C211.039 5.76018 211.87 5.35071 212.931 5.35071C213.751 5.35071 214.429 5.6308 214.965 6.1915C215.501 6.75202 215.769 7.44762 215.769 8.2778ZM224.32 8.64963V12.8059H223.217V11.5283C222.943 11.981 222.573 12.3396 222.105 12.6038C221.638 12.8679 221.141 13 220.615 13C219.869 13 219.205 12.7897 218.621 12.3691C218.038 11.9485 217.747 11.3719 217.747 10.6388C217.747 10.0674 217.922 9.58492 218.274 9.19159C218.626 8.7979 219.042 8.52563 219.52 8.37475C219.998 8.22386 220.505 8.14824 221.041 8.14824C221.955 8.14824 222.681 8.2778 223.217 8.53638C223.217 7.79254 223.041 7.24262 222.689 6.88692C222.337 6.5309 221.793 6.35313 221.057 6.35313C220.132 6.35313 219.355 6.54197 218.723 6.91903L218.44 6.01373C219.197 5.57166 220.095 5.35071 221.136 5.35071C223.259 5.35071 224.32 6.45008 224.32 8.64963ZM218.834 10.6551C218.834 11.1185 219.018 11.4583 219.386 11.6737C219.754 11.8896 220.179 11.9973 220.663 11.9973C221.293 11.9973 221.877 11.7711 222.413 11.3181C222.949 10.8653 223.217 10.3261 223.217 9.70108V9.47461C222.681 9.21553 221.966 9.08647 221.073 9.08647C220.705 9.08647 220.363 9.12934 220.048 9.21553C219.733 9.3019 219.452 9.46647 219.205 9.70893C218.957 9.95155 218.834 10.267 218.834 10.6551ZM228 1V12.8059H226.865V1H228Z" fill="#8F9CBB"/>
<path d="M143.667 17L148.5 28.1153H147.28L146.14 25.4356H140.36L139.22 28.1153H138L142.832 17H143.667ZM143.25 18.6172L140.794 24.4207H145.706L143.25 18.6172ZM151.356 21.0114V28.1153H150.232V21.0114H151.356ZM151.533 18.2685C151.533 18.4693 151.463 18.641 151.324 18.7837C151.185 18.9265 151.008 18.9978 150.794 18.9978C150.602 18.9978 150.431 18.9237 150.281 18.776C150.131 18.6278 150.056 18.4587 150.056 18.2685C150.056 18.0675 150.126 17.8959 150.265 17.7531C150.404 17.6103 150.58 17.539 150.794 17.539C151.008 17.539 151.185 17.6077 151.324 17.7451C151.463 17.8825 151.533 18.057 151.533 18.2685ZM158.163 20.8056L158.147 21.9471H158.066C157.231 21.9471 156.544 22.1639 156.004 22.5972C155.463 23.0306 155.193 23.649 155.193 24.4525V28.1153H154.069V21.0114H155.193V22.2484C155.867 21.2863 156.857 20.8056 158.163 20.8056ZM167.682 24.5635C167.682 25.5994 167.318 26.482 166.591 27.2114C165.863 27.9408 164.979 28.3056 163.942 28.3056C162.764 28.3056 161.839 27.8563 161.164 26.9577V32H160.041V21.0114H161.164V22.153C161.849 21.2549 162.775 20.8056 163.942 20.8056C164.99 20.8056 165.876 21.1753 166.598 21.9153C167.321 22.6555 167.682 23.538 167.682 24.5635ZM161.1 24.5635C161.1 25.3561 161.368 26.0143 161.903 26.5375C162.437 27.0609 163.101 27.3224 163.893 27.3224C164.653 27.3224 165.282 27.0529 165.78 26.5138C166.277 25.9747 166.527 25.3246 166.527 24.5635C166.527 23.7917 166.277 23.1362 165.78 22.5972C165.282 22.0582 164.653 21.7885 163.893 21.7885C163.091 21.7885 162.424 22.0554 161.895 22.5892C161.365 23.1231 161.1 23.7811 161.1 24.5635ZM175.781 21.9075C176.536 22.6421 176.913 23.5275 176.913 24.5635C176.913 25.5994 176.533 26.482 175.773 27.2114C175.013 27.9408 174.109 28.3056 173.06 28.3056C172.022 28.3056 171.123 27.9355 170.363 27.1957C169.603 26.4557 169.223 25.5781 169.223 24.5635C169.223 23.5275 169.603 22.6421 170.363 21.9075C171.123 21.1728 172.022 20.8056 173.06 20.8056C174.119 20.8056 175.026 21.1728 175.781 21.9075ZM171.149 22.629C170.624 23.1789 170.363 23.8235 170.363 24.5635C170.363 25.3032 170.627 25.9456 171.157 26.49C171.687 27.0343 172.321 27.3064 173.06 27.3064C173.809 27.3064 174.445 27.0343 174.97 26.49C175.494 25.9456 175.757 25.3032 175.757 24.5635C175.757 23.8024 175.497 23.1523 174.978 22.6131C174.459 22.0738 173.82 21.8043 173.06 21.8043C172.31 21.8043 171.674 22.0792 171.149 22.629ZM183.012 20.8056L182.996 21.9471H182.916C182.081 21.9471 181.393 22.1639 180.853 22.5972C180.313 23.0306 180.042 23.649 180.042 24.4525V28.1153H178.918V21.0114H180.042V22.2484C180.717 21.2863 181.707 20.8056 183.012 20.8056ZM186.672 18.2527V21.0114H188.92V22.0105H186.672V25.8794C186.672 26.3129 186.795 26.6431 187.041 26.8706C187.287 27.0978 187.63 27.2114 188.068 27.2114C188.39 27.2114 188.679 27.1745 188.936 27.1006L189 28.0201C188.647 28.1365 188.261 28.1945 187.844 28.1945C187.18 28.1945 186.632 27.9937 186.199 27.5921C185.765 27.1903 185.548 26.6618 185.548 26.0064V22.0105H184.248V21.0114H185.548V18.2527H186.672Z" fill="#8F9CBB"/>
</svg>
