<svg width="115" height="87" viewBox="0 0 115 87" fill="none" xmlns="http://www.w3.org/2000/svg">
<g clip-path="url(#clip0_220_3151)">
<path fill-rule="evenodd" clip-rule="evenodd" d="M32.7473 0C44.5893 0 54.1655 9.40464 54.1655 21.0345C54.1655 32.2025 45.2733 41.3552 34.0726 42.027C33.3031 42.111 32.5336 42.111 31.8068 42.027C20.3923 41.5232 11.3291 32.3285 11.3291 20.9925C11.3291 18.1795 11.8849 15.4924 12.9109 13.0154C12.9536 12.8474 12.9964 12.6795 13.1246 12.5535C16.4165 5.20614 23.9833 0 32.7473 0ZM36.1246 5.0382C36.3811 5.45805 36.5094 5.79393 36.6804 6.21381C37.6209 6.4237 38.5187 6.71762 39.4592 7.05351C40.2287 7.34736 42.3235 8.14509 42.922 8.56494L43.1358 8.77489C42.7938 8.73285 42.922 8.77489 42.58 8.69087C41.8105 8.48098 41.041 8.22904 40.2287 8.01915C39.1172 7.72523 38.0484 7.47336 36.9796 7.2634C37.5781 9.2787 37.9629 11.7138 38.2194 14.3589C41.212 15.1146 44.0763 16.4162 46.5558 18.1376C46.4276 15.9543 46.0428 13.7711 45.4443 11.7558C45.2306 11.0421 44.8886 10.2024 44.7603 9.44662C45.1878 9.90845 45.3588 10.3703 45.6581 10.9581C46.7696 13.3932 47.4536 16.1642 47.7101 19.0192C47.8383 19.1032 47.9666 19.2291 48.0949 19.3131C48.4796 19.649 48.6934 19.8169 49.0354 20.2788C48.5651 20.0688 48.3086 19.9009 47.8811 19.607C47.8383 19.565 47.7956 19.565 47.7956 19.523C48.1377 24.4772 47.1544 29.6414 44.9313 33.7559C43.6488 36.1491 41.8532 38.4163 39.5447 40.0117C47.3253 37.5766 53.0113 30.4391 53.0113 21.9581C53.0113 11.5039 44.3756 3.06491 33.7733 3.06491C29.2417 3.06491 25.0949 4.61835 21.8031 7.17945C24.1971 6.21381 26.7194 5.62599 29.2845 5.50004C29.4127 5.12217 29.4982 4.95423 29.7547 4.57636C29.7547 4.95423 29.712 5.20614 29.6265 5.50004C31.8068 5.41607 34.0726 5.62599 36.3811 6.17177C36.2101 5.70996 36.1246 5.3321 36.1246 5.0382ZM38.3049 15.4085C38.6042 19.0192 38.6042 22.8399 38.4332 26.1566C40.7845 26.9124 43.0075 28.13 44.8458 29.7254L44.8886 29.7674C46.2138 26.3246 46.7268 22.504 46.5558 18.8093C43.948 17.2138 41.2547 16.0803 38.3049 15.4085ZM38.4332 26.9963C38.3476 28.3819 38.2194 29.6414 38.0911 30.775C37.8774 32.4544 37.2789 36.9049 35.7826 39.7178C38.3904 38.8361 40.6135 36.9468 42.238 34.7216C43.3068 33.2941 44.1618 31.6987 44.8031 30.0193C44.7603 29.9773 44.7175 29.9773 44.6748 29.9353C42.6655 28.6338 40.6135 27.6261 38.4332 26.9963ZM24.2826 38.4583C23.8979 38.1224 23.5559 37.7446 23.2138 37.3247C21.8458 35.7712 20.7343 33.9239 19.922 31.9506C19.4517 32.4544 18.9815 33.0422 18.554 33.588C20.093 35.6033 22.0596 37.2407 24.2826 38.4583ZM19.2808 30.4391C18.2547 27.4162 17.7417 24.1834 17.8272 20.9925C16.673 22.1261 15.6042 23.3857 14.6209 24.7712C15.0484 27.5422 16.0744 30.1033 17.5707 32.3285C18.0837 31.6567 18.6822 31.0269 19.2808 30.4391ZM17.9982 18.3894C18.1692 16.92 18.4685 15.4924 18.8532 14.1489C19.0243 13.6031 19.1953 12.9733 19.5373 12.5115C19.5373 12.9733 19.4517 13.3092 19.3662 13.7711C19.1097 15.1146 18.9387 16.4161 18.8532 17.7597C21.4183 15.9543 24.2399 14.6947 27.3607 14.023C27.6172 11.4619 28.0447 8.98479 28.686 6.84355C24.7956 7.34736 21.1618 8.81687 17.6562 11.378C15.6042 14.3589 14.4072 17.9276 14.3644 21.7902C15.5187 20.5307 16.7157 19.397 17.9982 18.3894ZM18.7678 20.1108C18.7678 23.2597 19.2808 26.3666 20.3923 29.4315C20.3923 29.4315 20.3923 29.4315 20.3923 29.4735C22.3588 27.878 24.5819 26.6605 27.0187 25.9467C26.9759 25.233 26.9759 24.6032 26.9332 24.1414C26.8904 21.7063 26.9332 18.6833 27.1897 15.6604C24.0689 16.4581 21.2473 18.0116 18.7678 20.1108ZM20.9908 30.859C22.7008 34.6376 25.6507 38.5002 29.7547 39.7598C28.0447 36.6109 27.3607 31.0269 27.1042 27.1643C24.8384 27.962 22.7864 29.2216 20.9908 30.859ZM29.2417 6.80157C28.8569 9.02677 28.6004 11.378 28.4295 13.855C29.6265 13.6451 30.8235 13.5612 32.0633 13.5612C33.7733 13.5612 35.4833 13.7291 37.1934 14.065C37.1079 11.8818 36.8942 9.74053 36.5521 7.72523C36.5094 7.51534 36.4666 7.30538 36.4239 7.09549C33.9443 6.67564 31.5503 6.59162 29.2417 6.80157ZM28.3439 15.3665C28.173 18.7673 28.2585 22.2101 28.515 25.5269C29.6692 25.275 30.909 25.149 32.1488 25.149C33.7733 25.149 35.3979 25.3589 36.9796 25.7368C37.0651 24.7292 37.1079 23.8055 37.1507 23.0078C37.2789 20.5726 37.3216 17.8856 37.2361 15.1986C36.0391 14.9886 34.8421 14.8627 33.6023 14.8627C31.764 14.8207 30.0113 14.9886 28.3439 15.3665ZM28.6004 26.7445C28.8142 28.7177 29.0707 30.6071 29.4127 32.4124C29.7547 34.0918 30.909 39.214 32.4908 40.1377C33.0038 40.4316 33.5596 39.6339 33.7733 39.298C35.5261 36.6529 36.4239 31.0689 36.8514 26.6605C35.6971 26.4086 34.5429 26.2826 33.3031 26.2826C31.6785 26.1986 30.0967 26.3666 28.6004 26.7445Z" fill="#8F9CBB"/>
<path fill-rule="evenodd" clip-rule="evenodd" d="M5.98513 33.546C12.526 36.317 15.3476 40.3896 18.2119 45.4278C19.4089 47.485 22.487 53.5309 22.6153 62.6418C21.5037 57.3096 19.8365 52.0614 16.7584 46.6033C13.6375 41.1873 9.10597 36.2331 2.13755 32.8743L0 31.8666L2.3513 31.9086C4.87361 31.9926 7.43865 32.3285 10.0893 33.1682C12.7398 34.0079 15.4331 35.3094 18.2119 37.2827C15.3476 35.8132 9.27693 33.9239 5.98513 33.546Z" fill="#8F9CBB"/>
<path fill-rule="evenodd" clip-rule="evenodd" d="M59.467 33.546C53.5246 36.0651 50.6603 39.6758 48.0098 44.1263H50.2756C53.3109 39.6758 57.4577 35.6873 63.3148 32.8743L65.4524 31.8666L63.1008 31.9506C60.5785 32.0346 58.0135 32.3704 55.3629 33.2101C52.7123 34.0499 50.0191 35.3514 47.2402 37.3247C50.1045 35.8132 56.1752 33.9239 59.467 33.546Z" fill="#8F9CBB"/>
<path fill-rule="evenodd" clip-rule="evenodd" d="M25.2656 62.6418L31.5072 46.7294H33.9013L40.5277 62.6418H38.0482L36.1671 57.8134H29.327L27.5742 62.6418H25.2656ZM29.9682 56.092H35.5258L33.8158 51.6835C33.3028 50.34 32.918 49.2484 32.6615 48.3667C32.4478 49.4164 32.1485 50.424 31.7637 51.4317L29.9682 56.092ZM41.5537 57.5195L43.563 57.3516C43.6485 58.1492 43.8623 58.821 44.247 59.3248C44.589 59.8286 45.1448 60.2485 45.8715 60.5844C46.5983 60.9201 47.4534 61.046 48.3938 61.046C49.2061 61.046 49.9329 60.9201 50.5742 60.6683C51.2154 60.4165 51.6857 60.0806 51.9849 59.6607C52.2842 59.2409 52.4552 58.779 52.4552 58.3172C52.4552 57.8134 52.327 57.3935 52.0277 57.0157C51.7284 56.6378 51.2582 56.3439 50.5742 56.092C50.1466 55.924 49.1634 55.6722 47.6671 55.3363C46.1708 55.0004 45.102 54.6645 44.5035 54.3286C43.734 53.9087 43.1355 53.4469 42.7507 52.8591C42.366 52.2714 42.195 51.5996 42.195 50.8858C42.195 50.0881 42.4515 49.3324 42.879 48.6187C43.3493 47.9049 44.0333 47.4011 44.9311 47.0232C45.8288 46.6453 46.8121 46.4774 47.9236 46.4774C49.1206 46.4774 50.1894 46.6873 51.1299 47.0652C52.0705 47.4431 52.7544 47.9889 53.2674 48.7446C53.7805 49.5003 54.037 50.34 54.0798 51.2637L51.9849 51.4317C51.8567 50.424 51.5147 49.6683 50.8734 49.1644C50.2321 48.6606 49.2916 48.4088 48.0091 48.4088C46.6839 48.4088 45.7433 48.6606 45.1448 49.1225C44.5463 49.5843 44.247 50.1721 44.247 50.8019C44.247 51.3897 44.4608 51.8515 44.8883 52.2294C45.3158 52.6072 46.3845 52.9851 48.1373 53.363C49.8901 53.7408 51.0872 54.0767 51.7712 54.3706C52.7117 54.7905 53.4385 55.3363 53.866 56.008C54.3363 56.6798 54.55 57.3935 54.55 58.2752C54.55 59.1149 54.2935 59.9127 53.8233 60.6683C53.3103 61.4238 52.6262 62.0121 51.6857 62.4319C50.7451 62.8517 49.7191 63.0616 48.5649 63.0616C47.1113 63.0616 45.8715 62.8517 44.8455 62.4319C43.8623 62.0121 43.05 61.3819 42.4942 60.5424C41.853 59.5348 41.5965 58.5691 41.5537 57.5195ZM61.6038 62.6418V48.5767H56.2173V46.7294H69.128V48.5767H63.7414V62.6418H61.6038ZM67.8882 62.6418H70.1968L71.9495 57.8134H78.8323L80.7135 62.6418H83.193L76.5243 46.7294H74.1302L67.8882 62.6418ZM72.5909 56.092L74.3866 51.4317C74.771 50.424 75.0705 49.4164 75.2845 48.3667C75.5409 49.2484 75.9253 50.34 76.4388 51.6835L78.1484 56.092H72.5909ZM84.8602 62.6418V46.7294H87.0833L95.6339 59.2409V46.7294H97.7285V62.6418H95.5054L86.9554 50.1301V62.6418H84.8602ZM99.5667 62.6418L105.808 46.7294H108.202L114.829 62.6418H112.35L110.468 57.8134H103.586L101.832 62.6418H99.5667ZM104.269 56.092H109.827L108.117 51.6835C107.604 50.34 107.219 49.2484 106.962 48.3667C106.749 49.4164 106.449 50.424 106.065 51.4317L104.269 56.092Z" fill="#8F9CBB"/>
<path fill-rule="evenodd" clip-rule="evenodd" d="M25.2656 86.363V76.7906H31.9775V77.924H26.5482V80.9051H31.208V82.0386H26.5482V86.405H25.2656V86.363ZM33.26 81.7027C33.26 80.1075 33.6876 78.8482 34.5853 77.966C35.4831 77.0844 36.6373 76.6227 38.0054 76.6227C38.9459 76.6227 39.7582 76.8326 40.4849 77.2524C41.2117 77.6722 41.7674 78.2599 42.1522 79.0161C42.537 79.7717 42.7507 80.6113 42.7507 81.5768C42.7507 82.5423 42.537 83.4245 42.1522 84.1801C41.7247 84.9357 41.169 85.5234 40.4422 85.9013C39.6727 86.2791 38.9031 86.489 38.0054 86.489C37.0649 86.489 36.2099 86.2791 35.4831 85.8173C34.7563 85.3975 34.2006 84.7678 33.8158 84.0542C33.4738 83.3405 33.26 82.5423 33.26 81.7027ZM34.628 81.7447C34.628 82.8782 34.9701 83.8023 35.6113 84.474C36.2526 85.1456 37.0649 85.4815 38.0482 85.4815C39.0314 85.4815 39.8437 85.1456 40.4849 84.474C41.1262 83.8023 41.4255 82.8362 41.4255 81.6188C41.4255 80.8212 41.2972 80.1495 40.9979 79.5618C40.7414 78.9741 40.314 78.5117 39.801 78.2179C39.2879 77.8821 38.6894 77.7561 38.0054 77.7561C37.0649 77.7561 36.2526 78.05 35.6113 78.6797C34.9701 79.268 34.628 80.2755 34.628 81.7447ZM44.5035 86.363V76.7906H48.9069C49.8047 76.7906 50.4887 76.8746 50.9162 77.0425C51.3864 77.2104 51.7284 77.5042 52.0277 77.966C52.2842 78.3858 52.4552 78.8902 52.4552 79.3939C52.4552 80.0656 52.2414 80.6533 51.7712 81.115C51.3009 81.5768 50.6169 81.8707 49.6764 81.9966C50.0184 82.1645 50.2749 82.3324 50.4887 82.4584C50.8734 82.7942 51.2582 83.2146 51.5575 83.7184L53.2674 86.3211H51.6429L50.3177 84.3061C49.9329 83.7184 49.6336 83.2986 49.3771 82.9621C49.1206 82.6683 48.9069 82.4584 48.6931 82.3324C48.4794 82.2065 48.3084 82.1225 48.0946 82.0806C47.9664 82.0386 47.7099 82.0386 47.3678 82.0386H45.8288V86.2791H44.5035V86.363ZM45.8288 81.0311H48.6504C49.2489 81.0311 49.7191 80.9891 50.0612 80.8632C50.4032 80.7372 50.6597 80.5693 50.8307 80.2755C51.0017 80.0236 51.0872 79.7297 51.0872 79.4359C51.0872 78.9741 50.9162 78.5957 50.5742 78.3018C50.2322 78.008 49.6764 77.8821 48.9497 77.8821H45.7861V81.0311H45.8288ZM61.0482 76.7906H62.3731V82.3324C62.3731 83.2986 62.2452 84.0542 62.0312 84.6419C61.8178 85.1876 61.3901 85.6494 60.7916 86.0272C60.1931 86.363 59.4236 86.5729 58.4831 86.5729C57.5426 86.5729 56.773 86.405 56.2173 86.1112C55.6188 85.8173 55.1913 85.3555 54.9348 84.7678C54.6783 84.1801 54.55 83.3825 54.55 82.3744V76.8326H55.8753V82.3744C55.8753 83.2146 55.9608 83.8023 56.1318 84.2221C56.3028 84.5999 56.5593 84.9357 56.9441 85.1456C57.3288 85.3555 57.7991 85.4815 58.3548 85.4815C59.3381 85.4815 60.0221 85.2716 60.4069 84.8518C60.8344 84.432 61.0054 83.6344 61.0054 82.4164V76.7906H61.0482ZM64.5108 86.363V76.7906H66.4774L68.8291 83.5924C69.0425 84.2221 69.2135 84.6839 69.2989 85.0197C69.4275 84.6839 69.5984 84.1381 69.8118 83.4665L72.2059 76.7906H73.9592V86.363H72.6764V78.3438L69.7694 86.363H68.572L65.7081 78.1759V86.363H64.5108Z" fill="#8F9CBB"/>
<path fill-rule="evenodd" clip-rule="evenodd" d="M25.2656 73.6416V65.6643H26.3771V73.6416H25.2656ZM28.2582 73.6416V65.6643H29.3697L33.6876 71.9204V65.6643H34.7136V73.6416H33.602L29.2842 67.3861V73.6416H28.2582ZM38.6466 73.6416V66.5885H35.9534V65.6643H42.4515V66.5885H39.7582V73.6416H38.6466ZM43.6058 73.6416V65.6643H49.5482V66.5885H44.7173V69.0233H49.2489V69.9468H44.7173V72.676H49.7619V73.5996H43.6058V73.6416ZM51.2582 73.6416V65.6643H54.892C55.6188 65.6643 56.1746 65.7483 56.5593 65.8742C56.9441 66.0002 57.2433 66.2526 57.4571 66.6305C57.6708 67.0083 57.7991 67.3861 57.7991 67.8478C57.7991 68.3936 57.628 68.8973 57.2433 69.2751C56.8585 69.6529 56.3028 69.9048 55.4905 70.0308C55.7898 70.1567 56.0035 70.2826 56.1318 70.4092C56.4311 70.703 56.7303 71.0389 57.0296 71.4587L58.4404 73.6416H57.0723L56.0035 71.9624C55.7043 71.5006 55.405 71.1228 55.234 70.8709C55.0202 70.6191 54.8493 70.4512 54.6783 70.3252C54.5072 70.2407 54.3363 70.1567 54.1653 70.1147C54.037 70.0727 53.8233 70.0727 53.5668 70.0727H52.327V73.5996H51.2582V73.6416ZM52.3697 69.1912H54.721C55.234 69.1912 55.6188 69.1492 55.8753 69.0233C56.1746 68.9393 56.3883 68.7714 56.5165 68.5615C56.6448 68.3516 56.7303 68.0997 56.7303 67.8478C56.7303 67.47 56.602 67.1762 56.3028 66.9243C56.0035 66.6724 55.5761 66.5465 54.9775 66.5465H52.3697V69.1912ZM59.5519 73.6416V65.6643H60.6634L64.9812 71.9204V65.6643H66.007V73.6416H64.8957L60.5779 67.3861V73.6416H59.5519ZM66.9479 73.6416L70.1113 65.6643H71.3087L74.6431 73.6416H73.4033L72.4624 71.2068H69.0001L68.1022 73.6416H66.9479ZM69.342 70.3672H72.1635L71.3087 68.1417C71.0516 67.47 70.8382 66.9243 70.7097 66.4625C70.5818 66.9663 70.4533 67.512 70.2399 68.0158L69.342 70.3672ZM76.7807 73.6416H77.892V66.5885H80.5855V65.6643H74.0871V66.5885H76.7807V73.6416ZM81.8678 73.6416V65.6643H82.9796V73.6416H81.8678ZM84.5614 69.7789C84.5614 68.4775 84.9457 67.4281 85.6726 66.6724C86.3995 65.9162 87.3398 65.5384 88.4941 65.5384C89.2641 65.5384 89.9479 65.7063 90.5463 66.0847C91.1446 66.4206 91.6151 66.9243 91.957 67.554C92.2565 68.1837 92.4275 68.8973 92.4275 69.6949C92.4275 70.4931 92.2565 71.2068 91.9146 71.8784C91.572 72.5081 91.1022 73.0119 90.5038 73.3057C89.9049 73.6416 89.221 73.8095 88.4941 73.8095C87.7248 73.8095 87.0409 73.6416 86.3995 73.2637C85.8011 72.8859 85.3307 72.4242 85.0312 71.7945C84.7323 71.1228 84.5614 70.4512 84.5614 69.7789ZM85.6726 69.7789C85.6726 70.745 85.9291 71.5006 86.485 72.0464C86.9979 72.5921 87.6817 72.8859 88.4941 72.8859C89.3065 72.8859 89.9903 72.5921 90.5038 72.0464C91.0167 71.5006 91.3156 70.703 91.3156 69.6529C91.3156 69.0233 91.1877 68.4356 90.9737 67.9738C90.7603 67.512 90.4177 67.1342 89.9903 66.8403C89.5629 66.5885 89.05 66.4206 88.5372 66.4206C87.7672 66.4206 87.0834 66.6724 86.5274 67.1762C85.9721 67.7219 85.6726 68.5615 85.6726 69.7789ZM93.8382 73.6416V65.6643H94.9495L99.2672 71.9204V65.6643H100.294V73.6416H99.1817L94.864 67.3861V73.6416H93.8382ZM101.234 73.6416L104.397 65.6643H105.595L108.929 73.6416H107.689L106.749 71.2068H103.286L102.388 73.6416H101.234ZM103.586 70.3672H106.407L105.552 68.1417C105.295 67.47 105.082 66.9243 104.953 66.4625C104.825 66.9663 104.697 67.512 104.483 68.0158L103.586 70.3672ZM109.741 73.6416V65.6643H110.853V72.718H114.915V73.6416H109.741Z" fill="#8F9CBB"/>
</g>
<defs>
<clipPath id="clip0_220_3151">
<rect width="115" height="87" fill="white"/>
</clipPath>
</defs>
</svg>
