<svg width="191" height="51" viewBox="0 0 191 51" fill="none" xmlns="http://www.w3.org/2000/svg">
<g clip-path="url(#clip0_160_1273)">
<path d="M86.7207 0C79.296 18.2815 63.0363 34.8051 41.3846 50.256C76.3388 33.4235 92.9046 16.664 86.7207 0Z" fill="#8F9CBB"/>
<path d="M86.3221 23.1791C78.9279 31.952 65.895 40.6826 50.0059 49.3884C68.9081 43.8224 82.2753 35.6729 86.3221 23.1791Z" fill="#8F9CBB"/>
<path d="M80.1299 37.7958C73.0081 42.9405 64.4683 46.9701 55.058 50.3176C64.7828 51.25 72.941 46.3328 80.1299 37.7958Z" fill="#8F9CBB"/>
<path d="M65.9625 26.9898C27.675 33.2521 4.49597 29.0258 0 11.8254C16.5713 22.5416 39.3657 26.7511 65.9625 26.9898Z" fill="#8F9CBB"/>
<path d="M58.4055 31.2274C39.7308 37.5094 24.1058 38.5007 13.6255 30.5871C24.7124 33.533 40.3991 33.2072 58.4055 31.2274Z" fill="#8F9CBB"/>
<path d="M54.7995 34.8838C47.3692 41.2246 37.8661 41.879 27.0797 39.0063C35.861 39.1354 45.1673 37.5404 54.7995 34.8838Z" fill="#8F9CBB"/>
<path d="M100.745 18.7813H97.3723L96.7294 20.337H95.008L98.2459 13.0721H99.9053L103.152 20.337H101.388L100.745 18.7813ZM100.217 17.5035L99.0658 14.7234L97.9143 17.5035H100.217Z" fill="#8F9CBB"/>
<path d="M110.501 13.075L107.355 20.34H105.696L102.562 13.075H104.379L106.589 18.2646L108.83 13.075H110.501Z" fill="#8F9CBB"/>
<path d="M111.102 13.075H112.784V20.34H111.102V13.075Z" fill="#8F9CBB"/>
<path d="M119.288 18.7813H115.915L115.272 20.337H113.55L116.788 13.0721H118.448L121.694 20.337H119.931L119.288 18.7813ZM118.76 17.5035L117.608 14.7234L116.457 17.5035H118.76Z" fill="#8F9CBB"/>
<path d="M123.596 14.4425H121.27V13.0721H127.6V14.4425H125.275V20.337H123.593V14.4425H123.596Z" fill="#8F9CBB"/>
<path d="M128.504 13.075H130.187V20.34H128.504V13.075Z" fill="#8F9CBB"/>
<path d="M133.385 19.9748C132.778 19.649 132.307 19.2026 131.964 18.6297C131.621 18.0596 131.45 17.4165 131.45 16.706C131.45 15.9955 131.621 15.3525 131.964 14.7824C132.307 14.2123 132.781 13.763 133.385 13.4373C133.991 13.1115 134.671 12.9486 135.424 12.9486C136.179 12.9486 136.856 13.1115 137.457 13.4373C138.058 13.763 138.533 14.2095 138.878 14.7824C139.223 15.3525 139.397 15.9955 139.397 16.706C139.397 17.4165 139.223 18.0596 138.878 18.6297C138.533 19.1997 138.058 19.649 137.457 19.9748C136.856 20.3006 136.176 20.4634 135.424 20.4634C134.671 20.4606 133.991 20.3006 133.385 19.9748ZM136.586 18.7336C136.932 18.537 137.204 18.2618 137.401 17.908C137.597 17.5541 137.695 17.1554 137.695 16.7032C137.695 16.2539 137.597 15.8523 137.401 15.4985C137.204 15.1447 136.932 14.8694 136.586 14.6729C136.241 14.4763 135.853 14.378 135.424 14.378C134.994 14.378 134.607 14.4763 134.261 14.6729C133.916 14.8694 133.643 15.1447 133.447 15.4985C133.25 15.8523 133.152 16.2511 133.152 16.7032C133.152 17.1525 133.25 17.5541 133.447 17.908C133.643 18.2618 133.916 18.537 134.261 18.7336C134.607 18.9302 134.994 19.0284 135.424 19.0284C135.853 19.0313 136.241 18.9302 136.586 18.7336Z" fill="#8F9CBB"/>
<path d="M147.328 13.075V20.34H145.949L142.326 15.931V20.34H140.667V13.075H142.057L145.668 17.484V13.075H147.328Z" fill="#8F9CBB"/>
<path d="M100.745 31.2331H97.3723L96.7294 32.7888H95.008L98.2459 25.5268H99.9053L103.152 32.7888H101.388L100.745 31.2331ZM100.217 29.9553L99.0658 27.1752L97.9143 29.9553H100.217Z" fill="#8F9CBB"/>
<path d="M103.91 25.5268H107.209C107.999 25.5268 108.695 25.6784 109.302 25.9789C109.906 26.2794 110.377 26.7034 110.711 27.251C111.048 27.7986 111.214 28.4333 111.214 29.1606C111.214 29.8879 111.046 30.5226 110.711 31.0702C110.375 31.6178 109.906 32.0418 109.302 32.3423C108.695 32.6428 107.999 32.7945 107.209 32.7945H103.91V25.5268ZM107.128 31.41C107.855 31.41 108.434 31.2078 108.866 30.8034C109.299 30.399 109.515 29.8514 109.515 29.1578C109.515 28.467 109.299 27.9193 108.866 27.515C108.434 27.1106 107.855 26.9084 107.128 26.9084H105.592V31.4128H107.128V31.41Z" fill="#8F9CBB"/>
<path d="M119.091 32.7888L119.08 28.4304L116.943 32.0221H116.185L114.059 28.5258V32.7915H112.481V25.5295H113.871L116.589 30.0423L119.265 25.5295H120.644L120.664 32.7915H119.091V32.7888Z" fill="#8F9CBB"/>
<path d="M122.391 25.5268H124.073V32.7888H122.391V25.5268Z" fill="#8F9CBB"/>
<path d="M132.458 25.5268V32.7888H131.08L127.457 28.3799V32.7888H125.797V25.5268H127.187L130.798 29.9385V25.5268H132.458Z" fill="#8F9CBB"/>
<path d="M134.18 25.5268H135.862V32.7888H134.18V25.5268Z" fill="#8F9CBB"/>
<path d="M138.305 32.682C137.769 32.5276 137.339 32.3226 137.013 32.0755L137.583 30.809C137.895 31.0365 138.266 31.219 138.693 31.3594C139.122 31.497 139.549 31.5672 139.979 31.5672C140.456 31.5672 140.81 31.497 141.037 31.3538C141.265 31.2134 141.38 31.0224 141.38 30.7893C141.38 30.6152 141.313 30.472 141.178 30.3568C141.043 30.2417 140.869 30.1519 140.658 30.0817C140.448 30.0115 140.161 29.9356 139.802 29.8542C139.249 29.7222 138.797 29.593 138.442 29.4611C138.089 29.3291 137.788 29.1184 137.535 28.8292C137.283 28.5399 137.156 28.1524 137.156 27.6666C137.156 27.2453 137.271 26.8634 137.499 26.5208C137.726 26.1782 138.072 25.9058 138.533 25.7064C138.993 25.507 139.555 25.406 140.22 25.406C140.684 25.406 141.135 25.4621 141.579 25.5716C142.023 25.6812 142.411 25.8412 142.742 26.049L142.222 27.3268C141.551 26.9477 140.88 26.7567 140.209 26.7567C139.737 26.7567 139.392 26.8326 139.167 26.9842C138.942 27.1358 138.83 27.338 138.83 27.5851C138.83 27.8351 138.959 28.0204 139.218 28.1412C139.476 28.2619 139.872 28.3827 140.406 28.5006C140.959 28.6326 141.414 28.7646 141.765 28.8966C142.119 29.0286 142.419 29.2364 142.672 29.52C142.924 29.8036 143.051 30.1884 143.051 30.6714C143.051 31.087 142.936 31.4661 142.703 31.8087C142.47 32.1513 142.124 32.4237 141.661 32.6231C141.197 32.8253 140.633 32.9236 139.97 32.9236C139.395 32.9151 138.842 32.8365 138.305 32.682Z" fill="#8F9CBB"/>
<path d="M145.604 26.8943H143.278V25.5238H149.608V26.8943H147.283V32.7887H145.604V26.8943Z" fill="#8F9CBB"/>
<path d="M155.14 32.7888L153.739 30.7669H153.655H152.192V32.7888H150.51V25.5268H153.655C154.298 25.5268 154.857 25.6335 155.331 25.8469C155.806 26.0631 156.171 26.3664 156.427 26.7596C156.682 27.1555 156.811 27.6217 156.811 28.1609C156.811 28.7001 156.682 29.1662 156.424 29.5565C156.165 29.9469 155.794 30.2474 155.32 30.4552L156.949 32.7888H155.14ZM154.714 27.2229C154.449 27.0039 154.067 26.8943 153.562 26.8943H152.192V29.4274H153.562C154.067 29.4274 154.452 29.3179 154.714 29.096C154.974 28.8741 155.107 28.5624 155.107 28.1609C155.109 27.7537 154.977 27.4391 154.714 27.2229Z" fill="#8F9CBB"/>
<path d="M162.922 31.2331H159.549L158.906 32.7888H157.185L160.423 25.5268H162.082L165.329 32.7888H163.565L162.922 31.2331ZM162.394 29.9553L161.243 27.1752L160.091 29.9553H162.394Z" fill="#8F9CBB"/>
<path d="M167.23 26.8943H164.904V25.5238H171.234V26.8943H168.909V32.7887H167.227V26.8943H167.23Z" fill="#8F9CBB"/>
<path d="M172.136 25.5268H173.818V32.7888H172.136V25.5268Z" fill="#8F9CBB"/>
<path d="M177.019 32.4265C176.413 32.1008 175.941 31.6543 175.598 31.0842C175.256 30.5141 175.084 29.871 175.084 29.1606C175.084 28.4473 175.256 27.807 175.598 27.2369C175.941 26.6669 176.415 26.2203 177.019 25.8946C177.626 25.5688 178.305 25.406 179.058 25.406C179.813 25.406 180.49 25.5688 181.091 25.8946C181.692 26.2203 182.167 26.6669 182.512 27.2369C182.857 27.807 183.032 28.4501 183.032 29.1606C183.032 29.8738 182.857 30.5141 182.512 31.0842C182.167 31.6543 181.692 32.1036 181.091 32.4265C180.49 32.7523 179.81 32.9151 179.058 32.9151C178.305 32.9151 177.626 32.7523 177.019 32.4265ZM180.221 31.1853C180.566 30.9887 180.838 30.7135 181.035 30.3597C181.232 30.0058 181.33 29.6071 181.33 29.1549C181.33 28.7056 181.232 28.3041 181.035 27.9502C180.838 27.5964 180.566 27.324 180.221 27.1246C179.875 26.928 179.488 26.8297 179.058 26.8297C178.628 26.8297 178.241 26.928 177.895 27.1246C177.55 27.3212 177.277 27.5964 177.081 27.9502C176.884 28.3041 176.786 28.7056 176.786 29.1549C176.786 29.6042 176.884 30.0058 177.081 30.3597C177.277 30.7135 177.55 30.9887 177.895 31.1853C178.241 31.3819 178.628 31.4801 179.058 31.4801C179.488 31.483 179.875 31.3819 180.221 31.1853Z" fill="#8F9CBB"/>
<path d="M190.962 25.5268V32.7888H189.583L185.961 28.3799V32.7888H184.301V25.5268H185.691L189.302 29.9385V25.5268H190.962Z" fill="#8F9CBB"/>
<path d="M97.4398 44.8782C96.833 44.5526 96.3613 44.1059 96.0186 43.5329C95.6763 42.9631 95.5048 42.3198 95.5048 41.6094C95.5048 40.899 95.6763 40.2557 96.0186 39.6858C96.3613 39.1158 96.8358 38.6664 97.4398 38.3407C98.0461 38.0149 98.726 37.852 99.4784 37.852C100.234 37.852 100.911 38.0149 101.512 38.3407C102.113 38.6664 102.587 39.1129 102.933 39.6858C103.278 40.2557 103.452 40.899 103.452 41.6094C103.452 42.3198 103.278 42.9631 102.933 43.5329C102.587 44.1031 102.113 44.5526 101.512 44.8782C100.911 45.2039 100.231 45.3667 99.4784 45.3667C98.726 45.3667 98.0461 45.2039 97.4398 44.8782ZM100.641 43.6397C100.987 43.4432 101.259 43.168 101.456 42.8142C101.652 42.4604 101.75 42.0589 101.75 41.6094C101.75 41.1603 101.652 40.7584 101.456 40.4046C101.259 40.0508 100.987 39.7756 100.641 39.5791C100.296 39.3825 99.9081 39.2842 99.4784 39.2842C99.0488 39.2842 98.6612 39.3825 98.3158 39.5791C97.9707 39.7756 97.6983 40.0508 97.5017 40.4046C97.3048 40.7584 97.2067 41.1603 97.2067 41.6094C97.2067 42.0589 97.3048 42.4604 97.5017 42.8142C97.6983 43.168 97.9707 43.4432 98.3158 43.6397C98.6612 43.8363 99.0488 43.9348 99.4784 43.9348C99.9081 43.9348 100.296 43.8363 100.641 43.6397Z" fill="#8F9CBB"/>
<path d="M106.401 39.3264V41.2445H109.762V42.5922H106.401V45.2376H104.719V37.9728H110.209V39.3208H106.401V39.3264Z" fill="#8F9CBB"/>
<path d="M116.934 42.3873L115.96 43.4038V45.2404H114.289V37.9756H115.96V41.368L119.178 37.9756H121.046L118.035 41.2135L121.22 45.2404H119.259L116.934 42.3873Z" fill="#8F9CBB"/>
<path d="M126.429 43.6846H123.056L122.413 45.2404H120.692L123.93 37.9756H125.589L128.836 45.2404H127.072L126.429 43.6846ZM125.898 42.4099L124.747 39.6296L123.596 42.4099H125.898Z" fill="#8F9CBB"/>
<path d="M135.477 43.8728V45.2432H129.128V44.1536L133.113 39.3487H129.212V37.9783H135.326V39.0678L131.352 43.8728H135.477Z" fill="#8F9CBB"/>
<path d="M141.341 43.6846H137.968L137.325 45.2404H135.604L138.842 37.9756H140.501L143.748 45.2404H141.984L141.341 43.6846ZM140.81 42.4099L139.659 39.6296L138.507 42.4099H140.81Z" fill="#8F9CBB"/>
<path d="M147.151 42.3873L146.177 43.4038V45.2404H144.506V37.9756H146.177V41.368L149.395 37.9756H151.262L148.252 41.2135L151.436 45.2404H149.476L147.151 42.3873Z" fill="#8F9CBB"/>
<path d="M158.844 37.9783V45.2432H157.165V42.2666H153.865V45.2432H152.183V37.9783H153.865V40.8426H157.165V37.9783H158.844Z" fill="#8F9CBB"/>
<path d="M161.29 45.1336C160.754 44.9791 160.324 44.7742 159.998 44.5272L160.569 43.2605C160.88 43.4881 161.251 43.6707 161.678 43.8109C162.107 43.9487 162.534 44.019 162.964 44.019C163.442 44.019 163.795 43.9487 164.023 43.8053C164.25 43.6624 164.365 43.4742 164.365 43.2411C164.365 43.0667 164.298 42.9238 164.163 42.8114C164.028 42.6963 163.854 42.6061 163.644 42.5362C163.433 42.4659 163.147 42.3901 162.787 42.3087C162.234 42.1765 161.782 42.0474 161.428 41.9156C161.074 41.7833 160.774 41.5729 160.521 41.2838C160.268 40.9916 160.142 40.6068 160.142 40.1211C160.142 39.6998 160.257 39.3179 160.484 38.9752C160.712 38.6326 161.057 38.3603 161.518 38.1609C161.978 37.9587 162.54 37.8604 163.205 37.8604C163.669 37.8604 164.121 37.9166 164.565 38.0261C165.009 38.1356 165.396 38.2957 165.727 38.5035L165.208 39.7784C164.537 39.3993 163.865 39.2083 163.194 39.2083C162.722 39.2083 162.377 39.2841 162.152 39.4358C161.928 39.5874 161.816 39.7896 161.816 40.0369C161.816 40.2839 161.945 40.4722 162.203 40.5929C162.461 40.7136 162.857 40.8343 163.391 40.9522C163.944 41.0841 164.399 41.2163 164.75 41.3481C165.101 41.4804 165.404 41.688 165.657 41.9716C165.91 42.2551 166.036 42.6399 166.036 43.1231C166.036 43.5385 165.921 43.9177 165.688 44.2576C165.455 44.6003 165.109 44.8727 164.646 45.072C164.183 45.2742 163.618 45.3722 162.956 45.3722C162.38 45.3667 161.824 45.2881 161.29 45.1336Z" fill="#8F9CBB"/>
<path d="M168.589 39.3487H166.264V37.9783H172.593V39.3487H170.268V45.2432H168.586V39.3487H168.589Z" fill="#8F9CBB"/>
<path d="M177.918 43.6846H174.545L173.902 45.2404H172.181L175.419 37.9756H177.078L180.325 45.2404H178.561L177.918 43.6846ZM177.387 42.4099L176.236 39.6296L175.084 42.4099H177.387Z" fill="#8F9CBB"/>
<path d="M187.744 37.9783V45.2432H186.365L182.743 40.8343V45.2432H181.083V37.9783H182.473L186.084 42.3873V37.9783H187.744Z" fill="#8F9CBB"/>
</g>
<defs>
<clipPath id="clip0_160_1273">
<rect width="191" height="50.4304" fill="white"/>
</clipPath>
</defs>
</svg>
