<svg width="23" height="14" viewBox="0 0 23 14" fill="none" xmlns="http://www.w3.org/2000/svg">
<path d="M9.87276 5.553C10.2557 4.97855 10.4472 4.30835 10.4472 3.54242C10.4472 1.53186 8.72387 0 6.80905 0H1.25605C0.968826 0 0.777344 0.191483 0.777344 0.478706V12.6378C0.777344 12.9251 0.968826 13.1165 1.25605 13.1165H7.38349C9.68128 13.1165 11.5961 11.2975 11.5961 8.99967C11.5961 7.56355 10.9259 6.31893 9.87276 5.553ZM3.17088 2.48927H6.80905C7.47923 2.48927 7.95794 3.06372 7.95794 3.63817C7.95794 4.30836 7.38349 4.78706 6.80905 4.78706H3.17088V2.48927ZM7.47923 10.723H3.17088V7.27634H7.47923C8.43664 7.27634 9.20258 8.04226 9.20258 8.99967C9.20258 9.95709 8.43664 10.723 7.47923 10.723Z" fill="white"/>
<path d="M22.2234 8.13801C22.2234 5.26578 20.0213 2.96799 17.2448 2.96799C14.4683 2.96799 12.2663 5.26578 12.2663 8.13801C12.2663 11.0103 14.4683 13.308 17.2448 13.308C18.8724 13.308 20.4043 12.4464 21.3617 11.0103C21.4575 10.8188 21.5532 10.6273 21.6489 10.4358C21.7447 10.3401 21.6489 10.1486 21.4575 10.1486H19.0639C18.9682 10.1486 18.9682 10.1486 18.8724 10.2443C18.3937 10.723 17.8193 10.9145 17.2448 10.9145C16.0002 10.9145 15.0428 10.0528 14.7556 8.8082H21.7447C22.0319 8.8082 22.2234 8.61672 22.2234 8.32949V8.13801ZM17.2448 5.45726C18.1065 5.45726 18.8724 5.93597 19.3511 6.7019H15.1385C15.5215 5.93597 16.3832 5.45726 17.2448 5.45726Z" fill="white"/>
<path d="M19.2554 2.39355H14.8513C14.6598 2.39355 14.4683 2.20206 14.4683 2.01058V0.957427C14.4683 0.765944 14.6598 0.57446 14.8513 0.57446H19.2554C19.4469 0.57446 19.6384 0.765944 19.6384 0.957427V2.10632C19.6384 2.20206 19.5426 2.39355 19.2554 2.39355Z" fill="white"/>
</svg>
