<svg width="182" height="35" viewBox="0 0 182 35" fill="none" xmlns="http://www.w3.org/2000/svg">
<path d="M0.875488 0.680176H8.49462V33.4654H0.875488V0.680176Z" fill="white"/>
<path d="M8.21118 0.680176H18.167V6.50705H8.21118V0.680176ZM8.21118 27.6403H18.167V33.4671H8.21118V27.6403ZM8.21118 13.8243H18.167V18.8775H8.21118V13.8243Z" fill="white"/>
<path d="M18.1669 33.4671C18.1669 33.4671 28.723 33.7953 28.723 23.7891C28.723 23.7891 29.1834 15.648 22.5007 15.648C22.5007 15.648 27.5713 15.2767 27.5713 9.41013C27.5713 3.54353 23.4231 0.680176 18.1686 0.680176C12.9142 0.680176 13.1907 3.59361 13.1907 3.59361L16.9242 6.50705H18.1686C18.1686 6.50705 20.5193 6.50705 20.5193 9.91786C20.5193 13.3287 19.1366 13.8226 17.57 13.8226C16.0035 13.8226 15.4031 16.3492 15.4031 16.3492L18.1686 18.8758C18.1686 18.8758 21.671 18.8309 21.671 23.378C21.671 27.9252 17.9831 27.6368 17.0624 27.6368C16.1418 27.6368 16.4166 29.9734 16.4166 29.9734L18.1669 33.4671ZM42.8008 9.02155C30.0217 9.02155 30.034 21.6182 30.034 21.6182C30.034 21.6182 29.1571 34.151 42.8008 34.151C42.8008 34.151 54.1708 34.7917 54.1708 25.4332H48.323C48.323 25.4332 48.5173 28.958 42.9951 28.958C42.9951 28.958 37.1473 29.3431 37.1473 23.2537H54.3651C54.3669 23.2537 56.2502 9.02155 42.8008 9.02155ZM37.0825 18.8775C37.0825 18.8775 37.7966 13.8243 42.9303 13.8243C48.064 13.8243 47.9975 18.8775 47.9975 18.8775H37.0825ZM169.467 9.02155C156.688 9.02155 156.701 21.6182 156.701 21.6182C156.701 21.6182 155.824 34.151 169.469 34.151C169.469 34.151 180.839 34.7917 180.839 25.4332H174.991C174.991 25.4332 175.186 28.958 169.663 28.958C169.663 28.958 163.816 29.3431 163.816 23.2537H181.035C181.032 23.2537 182.915 9.02155 169.467 9.02155ZM163.749 18.8775C163.749 18.8775 164.463 13.8243 169.597 13.8243C174.729 13.8243 174.664 18.8775 174.664 18.8775H163.749ZM35.6525 2.61095H49.3627V6.64866H35.6525V2.61095ZM56.9643 0.680176H63.7205V33.4499H56.9643V0.680176ZM79.2493 16.7792H72.6226V33.4499H79.2493V16.7792Z" fill="white"/>
<path d="M72.5368 16.7791C72.5368 16.7791 72.5368 14.2785 68.3325 14.2785C64.4346 14.2785 63.7205 17.2921 63.7205 20.1761C63.7205 23.0602 63.2654 13.8294 63.2654 13.8294C63.2654 13.8294 65.4095 9.02148 71.1278 9.02148C76.8461 9.02148 79.2492 13.0989 79.2492 17.1038C79.2492 21.1087 76.9511 19.1745 76.9511 19.1745L72.5385 18.1417V16.7774L72.5368 16.7791ZM107.205 9.37206H113.961V33.4498H107.205V9.37206ZM129.492 16.7791H122.865V33.4498H129.492V16.7791Z" fill="white"/>
<path d="M122.78 16.7791C122.78 16.7791 122.78 14.2785 118.575 14.2785C114.677 14.2785 113.963 17.2921 113.963 20.1761C113.963 23.0602 113.508 13.8294 113.508 13.8294C113.508 13.8294 115.652 9.02148 121.371 9.02148C127.087 9.02148 129.492 13.0989 129.492 17.1038C129.492 21.1087 127.194 19.1745 127.194 19.1745L122.78 18.1417V16.7791ZM104.944 33.4498C104.944 33.4498 103.687 32.8125 103.687 28.9199V14.8794C103.687 14.8794 104.487 9.02321 93.7926 9.02321C83.1 9.02321 82.4138 14.3113 82.3561 17.4699H89.5043C89.5043 17.4699 89.219 13.2923 93.7366 13.2923C93.7366 13.2923 97.568 12.9918 97.568 16.7809C97.568 16.7809 97.568 19.2712 94.0796 19.4974C90.5913 19.7237 81.7277 19.6684 81.7277 26.7767C81.7277 26.7767 81.4984 34.2805 89.6479 34.2805C89.6479 34.2805 95.2244 34.3927 97.568 31.0078V33.4498H104.944ZM97.5103 26.0427C97.5103 26.0427 96.9379 29.6539 92.0773 29.6539C92.0773 29.6539 88.0743 29.8248 88.0743 26.4382C88.0743 26.4382 87.7313 23.8425 93.3358 22.9963C95.5657 22.8271 96.5949 22.6751 97.5103 21.651V26.0427ZM155.64 24.1707H148.646C148.646 24.1707 148.817 29.027 144.242 29.027C139.665 29.027 138.457 24.1879 138.457 21.4127C138.457 18.6339 139.406 13.9486 144.328 13.9486C149.25 13.9486 149.076 18.1227 149.076 18.1227H155.208C155.208 18.1227 155.638 9.02321 144.415 9.02321C133.19 9.02321 131.983 17.9915 131.983 21.5923C131.983 25.193 133.882 34.2805 144.244 34.2805C154.604 34.2788 155.64 26.0445 155.64 24.1707Z" fill="white"/>
</svg>
