<svg width="217" height="32" viewBox="0 0 217 32" fill="none" xmlns="http://www.w3.org/2000/svg">
<g clip-path="url(#clip0_160_1334)">
<path d="M17.1557 31.6733C14.0839 31.6733 11.2992 31.0147 8.8016 29.6977C6.3327 28.352 4.38054 26.5053 2.94513 24.1575C1.53843 21.7811 0.835083 19.104 0.835083 16.1263C0.835083 13.1486 1.53843 10.4859 2.94513 8.13811C4.38054 5.76169 6.3327 3.91496 8.8016 2.5979C11.2992 1.25222 14.0983 0.579376 17.1987 0.579376C19.8112 0.579376 22.1653 1.03748 24.261 1.95369C26.3854 2.8699 28.1653 4.18696 29.6007 5.90485L25.1222 10.0278C23.0839 7.68001 20.5576 6.50611 17.5432 6.50611C15.6772 6.50611 14.0121 6.92127 12.548 7.75159C11.0839 8.55327 9.93557 9.68422 9.10304 11.1444C8.29921 12.6046 7.89729 14.2653 7.89729 16.1263C7.89729 17.9874 8.29921 19.648 9.10304 21.1082C9.93557 22.5684 11.0839 23.7137 12.548 24.544C14.0121 25.3457 15.6772 25.7465 17.5432 25.7465C20.5576 25.7465 23.0839 24.5583 25.1222 22.1819L29.6007 26.3048C28.1653 28.0514 26.3854 29.3827 24.261 30.299C22.1365 31.2152 19.7681 31.6733 17.1557 31.6733ZM34.3116 1.09475H41.2877V31.1579H34.3116V1.09475ZM54.6855 6.7638H45.0395V1.09475H71.3075V6.7638H61.6615V31.1579H54.6855V6.7638ZM88.9835 20.507V31.1579H82.0071V20.4211L70.3372 1.09475H77.7439L85.7969 14.4514L93.8496 1.09475H100.696L88.9835 20.507Z" fill="#8F9CBB"/>
<path d="M116.662 1.09475C119.332 1.09475 121.643 1.53853 123.595 2.42611C125.576 3.31369 127.098 4.57348 128.16 6.20548C129.222 7.83748 129.753 9.77011 129.753 12.0034C129.753 14.208 129.222 16.1406 128.16 17.8013C127.098 19.4333 125.576 20.6931 123.595 21.5806C121.643 22.4396 119.332 22.8691 116.662 22.8691H110.591V31.1579H103.615V1.09475H116.662ZM116.275 17.2C118.371 17.2 119.964 16.7562 121.055 15.8686C122.146 14.9524 122.691 13.664 122.691 12.0034C122.691 10.3141 122.146 9.02569 121.055 8.13811C119.964 7.2219 118.371 6.7638 116.275 6.7638H110.591V17.2H116.275ZM153.072 24.7158H139.077L136.407 31.1579H129.259L142.694 1.09475H149.584L163.062 31.1579H155.742L153.072 24.7158ZM150.876 19.4333L146.096 7.92338L141.316 19.4333H150.876ZM176.094 31.6733C173.711 31.6733 171.4 31.3583 169.161 30.7284C166.951 30.0699 165.171 29.2253 163.822 28.1945L166.19 22.955C167.482 23.8998 169.018 24.6585 170.798 25.2312C172.578 25.8038 174.357 26.0901 176.137 26.0901C178.118 26.0901 179.582 25.8038 180.53 25.2312C181.477 24.6299 181.951 23.8425 181.951 22.8691C181.951 22.1533 181.664 21.5663 181.089 21.1082C180.544 20.6215 179.826 20.235 178.936 19.9486C178.075 19.6623 176.898 19.3474 175.405 19.0038C173.109 18.4598 171.228 17.9158 169.764 17.3718C168.3 16.8278 167.037 15.9545 165.975 14.752C164.941 13.5495 164.424 11.9461 164.424 9.9419C164.424 8.19538 164.898 6.62064 165.845 5.21769C166.793 3.78611 168.214 2.65517 170.109 1.82485C172.032 0.994535 174.372 0.579376 177.128 0.579376C179.051 0.579376 180.932 0.808429 182.769 1.26653C184.606 1.72464 186.214 2.38317 187.592 3.24211L185.439 8.52464C182.654 6.9499 179.869 6.16254 177.085 6.16254C175.133 6.16254 173.683 6.47748 172.735 7.10738C171.817 7.73727 171.357 8.56759 171.357 9.59832C171.357 10.6291 171.889 11.4021 172.951 11.9175C174.042 12.4042 175.692 12.891 177.903 13.3777C180.2 13.9217 182.08 14.4657 183.544 15.0097C185.008 15.5537 186.257 16.4126 187.29 17.5865C188.353 18.7604 188.884 20.3495 188.884 22.3537C188.884 24.0716 188.396 25.6463 187.42 27.0779C186.472 28.4809 185.037 29.5975 183.113 30.4278C181.19 31.2581 178.85 31.6733 176.094 31.6733ZM203.554 31.6733C201.172 31.6733 198.861 31.3583 196.621 30.7284C194.411 30.0699 192.631 29.2253 191.282 28.1945L193.65 22.955C194.942 23.8998 196.478 24.6585 198.258 25.2312C200.038 25.8038 201.818 26.0901 203.598 26.0901C205.578 26.0901 207.043 25.8038 207.99 25.2312C208.937 24.6299 209.411 23.8425 209.411 22.8691C209.411 22.1533 209.124 21.5663 208.55 21.1082C208.004 20.6215 207.287 20.235 206.397 19.9486C205.535 19.6623 204.358 19.3474 202.865 19.0038C200.569 18.4598 198.688 17.9158 197.224 17.3718C195.76 16.8278 194.497 15.9545 193.435 14.752C192.401 13.5495 191.885 11.9461 191.885 9.9419C191.885 8.19538 192.358 6.62064 193.306 5.21769C194.253 3.78611 195.674 2.65517 197.569 1.82485C199.492 0.994535 201.832 0.579376 204.588 0.579376C206.511 0.579376 208.392 0.808429 210.229 1.26653C212.066 1.72464 213.674 2.38317 215.052 3.24211L212.899 8.52464C210.114 6.9499 207.33 6.16254 204.545 6.16254C202.593 6.16254 201.143 6.47748 200.196 7.10738C199.277 7.73727 198.818 8.56759 198.818 9.59832C198.818 10.6291 199.349 11.4021 200.411 11.9175C201.502 12.4042 203.153 12.891 205.363 13.3777C207.66 13.9217 209.54 14.4657 211.004 15.0097C212.468 15.5537 213.717 16.4126 214.751 17.5865C215.813 18.7604 216.344 20.3495 216.344 22.3537C216.344 24.0716 215.856 25.6463 214.88 27.0779C213.932 28.4809 212.497 29.5975 210.574 30.4278C208.65 31.2581 206.31 31.6733 203.554 31.6733Z" fill="#8F9CBB"/>
</g>
<defs>
<clipPath id="clip0_160_1334">
<rect width="217" height="32" fill="white"/>
</clipPath>
</defs>
</svg>
