<svg width="128" height="63" viewBox="0 0 128 63" fill="none" xmlns="http://www.w3.org/2000/svg">
<g clip-path="url(#clip0_160_1350)">
<mask id="mask0_160_1350" style="mask-type:luminance" maskUnits="userSpaceOnUse" x="0" y="0" width="128" height="63">
<path d="M128 0.492828H0V62.5215H128V0.492828Z" fill="white"/>
</mask>
<g mask="url(#mask0_160_1350)">
<path d="M63.9268 9.31277V22.2669C63.9268 25.12 63.189 27.2405 61.7131 28.6284C60.2374 30.0164 58.0815 30.7104 55.245 30.7104C53.7501 30.7104 52.3319 30.5273 50.9903 30.1609C49.6488 29.7947 48.5373 29.2646 47.6558 28.5706L49.4381 25.332C50.0896 25.8718 50.9138 26.296 51.9103 26.6044C52.9069 26.9321 53.9035 27.0959 54.9 27.0959C56.4525 27.0959 57.5927 26.7393 58.321 26.026C59.0684 25.332 59.4422 24.2718 59.4422 22.8454V22.1802C58.2731 23.4718 56.644 24.1176 54.5551 24.1176C53.1368 24.1176 51.8336 23.8092 50.6454 23.1923C49.4763 22.5562 48.5469 21.6694 47.8569 20.5321C47.167 19.3947 46.822 18.0838 46.822 16.5996C46.822 15.1152 47.167 13.8043 47.8569 12.667C48.5469 11.5297 49.4763 10.6525 50.6454 10.0357C51.8336 9.39952 53.1368 9.08148 54.5551 9.08148C56.7974 9.08148 58.5031 9.82365 59.6721 11.308V9.31277H63.9268ZM55.4463 20.4164C56.6345 20.4164 57.6023 20.0694 58.3498 19.3755C59.1164 18.6621 59.4996 17.7369 59.4996 16.5996C59.4996 15.4622 59.1164 14.5465 58.3498 13.8525C57.6023 13.1393 56.6345 12.7827 55.4463 12.7827C54.258 12.7827 53.2806 13.1393 52.514 13.8525C51.7473 14.5465 51.3641 15.4622 51.3641 16.5996C51.3641 17.7369 51.7473 18.6621 52.514 19.3755C53.2806 20.0694 54.258 20.4164 55.4463 20.4164Z" fill="#8F9CBB"/>
<path d="M71.5208 11.3658C72.0573 10.614 72.7763 10.0453 73.6766 9.65978C74.5965 9.27425 75.6509 9.08148 76.839 9.08148V13.2453C76.3408 13.2068 76.0052 13.1875 75.8331 13.1875C74.5488 13.1875 73.5429 13.5538 72.8146 14.2862C72.086 14.9996 71.7219 16.079 71.7219 17.5248V24.8694H67.2373V9.31277H71.5208V11.3658Z" fill="#8F9CBB"/>
<path d="M93.6534 17.149C93.6534 17.2067 93.6245 17.6115 93.5666 18.3633H81.8665C82.0777 19.3273 82.576 20.0887 83.3613 20.6478C84.1474 21.2067 85.1244 21.4863 86.2938 21.4863C87.0986 21.4863 87.8081 21.3706 88.4213 21.1393C89.0533 20.8887 89.6377 20.5032 90.175 19.9827L92.5607 22.5851C91.1042 24.2622 88.9767 25.1007 86.1788 25.1007C84.4345 25.1007 82.892 24.7634 81.5505 24.0887C80.209 23.3948 79.1742 22.4405 78.446 21.2261C77.717 20.0116 77.3533 18.6332 77.3533 17.0911C77.3533 15.5682 77.7076 14.1995 78.417 12.9851C79.1453 11.7514 80.1324 10.7971 81.3777 10.1224C82.6425 9.42849 84.0512 9.08148 85.6039 9.08148C87.1174 9.08148 88.4878 9.40915 89.7143 10.0646C90.9415 10.72 91.8997 11.6646 92.5896 12.8983C93.2983 14.1128 93.6534 15.5297 93.6534 17.149ZM85.6328 12.4935C84.6167 12.4935 83.7641 12.7827 83.0742 13.361C82.3843 13.9393 81.9627 14.7296 81.8094 15.7321H89.4272C89.2739 14.7489 88.8523 13.9682 88.1624 13.3899C87.4725 12.7923 86.6293 12.4935 85.6328 12.4935Z" fill="#8F9CBB"/>
<path d="M110.927 17.149C110.927 17.2067 110.898 17.6115 110.84 18.3633H99.14C99.3519 19.3273 99.8494 20.0887 100.635 20.6478C101.422 21.2067 102.399 21.4863 103.568 21.4863C104.373 21.4863 105.081 21.3706 105.695 21.1393C106.327 20.8887 106.912 20.5032 107.448 19.9827L109.834 22.5851C108.378 24.2622 106.25 25.1007 103.452 25.1007C101.709 25.1007 100.166 24.7634 98.8247 24.0887C97.4825 23.3948 96.4476 22.4405 95.7194 21.2261C94.9912 20.0116 94.6274 18.6332 94.6274 17.0911C94.6274 15.5682 94.9818 14.1995 95.6905 12.9851C96.4187 11.7514 97.4058 10.7971 98.6518 10.1224C99.9167 9.42849 101.325 9.08148 102.878 9.08148C104.392 9.08148 105.762 9.40915 106.989 10.0646C108.215 10.72 109.173 11.6646 109.864 12.8983C110.572 14.1128 110.927 15.5297 110.927 17.149ZM102.906 12.4935C101.891 12.4935 101.038 12.7827 100.348 13.361C99.6578 13.9393 99.2362 14.7296 99.0836 15.7321H106.701C106.548 14.7489 106.126 13.9682 105.436 13.3899C104.747 12.7923 103.903 12.4935 102.906 12.4935Z" fill="#8F9CBB"/>
<path d="M121.587 9.08148C123.503 9.08148 125.046 9.65978 126.215 10.8164C127.403 11.973 127.998 13.6887 127.998 15.9634V24.8694H123.513V16.6573C123.513 15.4237 123.244 14.508 122.708 13.9103C122.171 13.2935 121.396 12.9851 120.379 12.9851C119.249 12.9851 118.349 13.3417 117.677 14.0549C117.006 14.7489 116.671 15.7899 116.671 17.1779V24.8694H112.187V9.31277H116.47V11.1345C117.064 10.479 117.803 9.97782 118.683 9.63089C119.565 9.26462 120.533 9.08148 121.587 9.08148Z" fill="#8F9CBB"/>
<path d="M55.4463 53.5499C53.7981 53.5499 52.3127 53.2126 50.9903 52.5379C49.6871 51.8439 48.6618 50.8897 47.9144 49.6752C47.1861 48.4608 46.822 47.0825 46.822 45.5403C46.822 43.9982 47.1861 42.6199 47.9144 41.4053C48.6618 40.191 49.6871 39.2464 50.9903 38.5717C52.3127 37.8776 53.7981 37.5307 55.4463 37.5307C57.0753 37.5307 58.4935 37.8776 59.7009 38.5717C60.9274 39.2464 61.8186 40.2199 62.3744 41.4921L58.8959 43.3717C58.091 41.9451 56.9316 41.2319 55.4175 41.2319C54.2485 41.2319 53.2806 41.6174 52.514 42.3886C51.7473 43.1596 51.3641 44.2102 51.3641 45.5403C51.3641 46.8705 51.7473 47.9211 52.514 48.6921C53.2806 49.4632 54.2485 49.8488 55.4175 49.8488C56.9507 49.8488 58.1102 49.1355 58.8959 47.709L62.3744 49.6174C61.8186 50.8512 60.9274 51.815 59.7009 52.509C58.4935 53.2029 57.0753 53.5499 55.4463 53.5499Z" fill="#8F9CBB"/>
<path d="M63.9802 31.8632H68.4648V53.3186H63.9802V31.8632Z" fill="#8F9CBB"/>
<path d="M71.7665 37.762H76.2511V53.3186H71.7665V37.762ZM74.0086 35.5933C73.1849 35.5933 72.5138 35.3524 71.9965 34.8704C71.4791 34.3884 71.2203 33.7909 71.2203 33.0776C71.2203 32.3644 71.4791 31.7668 71.9965 31.2849C72.5138 30.803 73.1849 30.562 74.0086 30.562C74.833 30.562 75.5033 30.7934 76.0211 31.256C76.5389 31.7186 76.7971 32.2969 76.7971 32.9909C76.7971 33.7427 76.5389 34.3692 76.0211 34.8704C75.5033 35.3524 74.833 35.5933 74.0086 35.5933Z" fill="#8F9CBB"/>
<path d="M88.375 37.5307C90.2914 37.5307 91.8339 38.109 93.0033 39.2657C94.1914 40.4223 94.7859 42.1379 94.7859 44.4126V53.3186H90.3008V45.1066C90.3008 43.8728 90.0325 42.9572 89.4959 42.3597C88.9593 41.7427 88.1834 41.4343 87.1673 41.4343C86.037 41.4343 85.136 41.7909 84.4656 42.5042C83.7945 43.1982 83.4589 44.2391 83.4589 45.6271V53.3186H78.9746V37.762H83.2579V39.5837C83.8523 38.9284 84.59 38.4271 85.4715 38.08C86.3531 37.7138 87.3206 37.5307 88.375 37.5307Z" fill="#8F9CBB"/>
<path d="M97.413 37.762H101.898V53.3186H97.413V37.762ZM99.6556 35.5933C98.8319 35.5933 98.1608 35.3524 97.643 34.8704C97.126 34.3884 96.8671 33.7909 96.8671 33.0776C96.8671 32.3644 97.126 31.7668 97.643 31.2849C98.1608 30.803 98.8319 30.562 99.6556 30.562C100.48 30.562 101.15 30.7934 101.667 31.256C102.185 31.7186 102.444 32.2969 102.444 32.9909C102.444 33.7427 102.185 34.3692 101.667 34.8704C101.15 35.3524 100.48 35.5933 99.6556 35.5933Z" fill="#8F9CBB"/>
<path d="M112.673 53.5499C111.024 53.5499 109.539 53.2126 108.216 52.538C106.913 51.8439 105.887 50.8897 105.14 49.6752C104.412 48.4608 104.048 47.0825 104.048 45.5403C104.048 43.9982 104.412 42.6199 105.14 41.4053C105.887 40.191 106.913 39.2464 108.216 38.5717C109.539 37.8776 111.024 37.5307 112.673 37.5307C114.301 37.5307 115.72 37.8776 116.927 38.5717C118.153 39.2464 119.045 40.2199 119.6 41.4921L116.122 43.3717C115.316 41.9451 114.157 41.2319 112.644 41.2319C111.475 41.2319 110.507 41.6174 109.739 42.3886C108.974 43.1596 108.59 44.2102 108.59 45.5403C108.59 46.8705 108.974 47.9211 109.739 48.6921C110.507 49.4632 111.475 49.8488 112.644 49.8488C114.177 49.8488 115.336 49.1355 116.122 47.709L119.6 49.6174C119.045 50.8512 118.153 51.815 116.927 52.509C115.72 53.2029 114.301 53.5499 112.673 53.5499Z" fill="#8F9CBB"/>
<path fill-rule="evenodd" clip-rule="evenodd" d="M32.9204 2.82474H2.31835V60.1897H32.9204V2.82474ZM0 0.492828V62.5216H35.2389V0.492828H0Z" fill="#8F9CBB"/>
<path fill-rule="evenodd" clip-rule="evenodd" d="M17.3866 28.9421C17.9327 28.9421 18.4682 28.8958 18.9891 28.8068C22.2936 29.3651 24.8053 32.2444 24.8053 35.7046C24.8053 39.5638 21.681 42.7004 17.8172 42.7004C17.7599 42.7004 17.7029 42.6997 17.646 42.6984L17.5908 45.0296C17.666 45.0314 17.7415 45.0323 17.8172 45.0323C22.9525 45.0323 27.1237 40.8607 27.1237 35.7046C27.1237 32.1934 25.1892 29.1387 22.3332 27.5471C25.067 25.8679 26.8918 22.839 26.8918 19.3813C26.8918 14.101 22.6361 9.82047 17.3866 9.82047C12.137 9.82047 7.88135 14.101 7.88135 19.3813C7.88135 24.6616 12.137 28.9421 17.3866 28.9421ZM17.3866 26.6102C21.3558 26.6102 24.5735 23.3737 24.5735 19.3813C24.5735 15.3889 21.3558 12.1523 17.3866 12.1523C13.4174 12.1523 10.1997 15.3889 10.1997 19.3813C10.1997 23.3737 13.4174 26.6102 17.3866 26.6102Z" fill="#8F9CBB"/>
<path d="M17.5905 50.6267C17.5338 50.6282 17.4767 50.6288 17.4195 50.6288C13.5556 50.6288 10.4314 47.4923 10.4314 43.6331C10.4314 39.774 13.5556 36.6374 17.4195 36.6374C17.4768 36.6374 17.5338 36.6381 17.5907 36.6395L17.6459 34.3083C17.5706 34.3065 17.4951 34.3055 17.4195 34.3055C12.2842 34.3055 8.11304 38.4771 8.11304 43.6331C8.11304 48.7891 12.2842 52.9608 17.4195 52.9608C17.4951 52.9608 17.5706 52.9599 17.6459 52.9581L17.5905 50.6267Z" fill="#8F9CBB"/>
</g>
</g>
<defs>
<clipPath id="clip0_160_1350">
<rect width="128" height="63" fill="white"/>
</clipPath>
</defs>
</svg>
