<svg width="212" height="45" viewBox="0 0 212 45" fill="none" xmlns="http://www.w3.org/2000/svg">
<path d="M82.759 29.6606L82.8001 33.7771H70.1761C68.6241 33.7771 67.1754 33.4876 65.8512 32.8876C64.5263 32.3084 63.3882 31.5017 62.4156 30.4468C61.4635 29.4125 60.7185 28.192 60.1597 26.7645C59.6216 25.3373 59.3525 23.7858 59.3525 22.1309C59.3525 20.4762 59.6216 18.9452 60.1597 17.5593C60.7185 16.1734 61.4635 14.9941 62.4156 14.0013C63.3882 13.0085 64.5263 12.243 65.8512 11.7052C67.1754 11.188 68.6241 10.9191 70.1761 10.9191H79.3444L82.8001 15.0977H70.1761C69.4313 15.0977 68.7276 15.2839 68.086 15.6563C67.4446 16.0491 66.8857 16.5663 66.4096 17.2076C65.9336 17.8489 65.5613 18.6764 65.3129 19.6899C65.044 20.7036 64.8992 21.6136 64.8992 22.4205C64.8992 23.2686 65.044 24.0961 65.2922 24.9236C65.5613 25.751 65.9336 26.5164 66.4096 27.199C66.8857 27.9024 67.5065 28.4814 68.2928 28.9574C69.0588 29.4332 69.8241 29.6606 70.5694 29.6606H82.759ZM108.09 19.1108C107.697 20.1657 107.117 21.0346 106.372 21.7588C105.627 22.5032 104.696 23.0618 103.62 23.4756C102.543 23.8893 101.322 24.1167 99.9567 24.1167L108.297 33.798H102.688L94.2448 24.1167H91.4924V33.7771H86.0081V20.3106H100.474C101.384 20.2278 102.109 19.9796 102.647 19.5657C103.164 19.1521 103.454 18.5315 103.516 17.6833C103.516 16.7939 103.226 16.0907 102.647 15.6355C102.047 15.1597 101.322 14.9322 100.474 14.9322H88.8228L84.6214 10.8777H99.9775C101.343 10.8777 102.585 11.1054 103.661 11.5189C104.737 11.9536 105.648 12.5324 106.393 13.2978C107.138 14.0427 107.697 14.9323 108.09 15.9872C108.462 17.0423 108.462 18.0765 108.09 19.1108ZM123.011 10.8777C127.088 10.8777 130.13 11.8084 132.159 13.6703C134.207 15.532 135.221 18.4695 135.221 22.5032C135.221 26.5369 134.207 29.4951 132.179 31.357C130.151 33.2185 127.088 34.1497 123.011 34.1497C118.913 34.1497 115.871 33.2185 113.843 31.357C111.815 29.4951 110.801 26.5369 110.801 22.5032C110.801 18.4695 111.815 15.532 113.843 13.6703C115.871 11.8084 118.934 10.8777 123.011 10.8777ZM123.011 30.0535C124.314 30.0535 125.412 29.8468 126.302 29.4332C127.212 29.04 127.936 28.4814 128.495 27.8194C129.054 27.1369 129.447 26.4336 129.696 25.6889C129.944 24.9649 130.068 24.0133 130.068 22.8344C130.068 21.6551 129.944 20.6829 129.696 19.959C129.447 19.2348 129.054 18.5522 128.495 17.9522C127.936 17.3316 127.212 16.7939 126.302 16.3389C125.412 15.8837 124.314 15.6355 123.011 15.6355C121.707 15.6355 120.611 15.8837 119.7 16.3389C118.81 16.7939 118.086 17.3316 117.527 17.9522C116.968 18.5522 116.575 19.2348 116.326 19.959C116.078 20.6829 115.954 21.6551 115.954 22.8344C115.954 24.0133 116.078 24.9649 116.326 25.6889C116.575 26.4336 116.968 27.1369 117.527 27.8194C118.086 28.4814 118.81 29.04 119.7 29.4332C120.611 29.8468 121.707 30.0535 123.011 30.0535ZM160.841 29.6606L160.883 33.7771H148.238C146.686 33.7771 145.238 33.4876 143.913 32.8876C142.589 32.3084 141.45 31.5017 140.478 30.4468C139.526 29.4125 138.781 28.192 138.243 26.7645C137.684 25.3373 137.415 23.7858 137.415 22.1309C137.415 20.4762 137.684 18.9452 138.243 17.5593C138.781 16.1734 139.526 14.9941 140.478 14.0013C141.45 13.0085 142.589 12.243 143.913 11.7052C145.238 11.188 146.686 10.9191 148.238 10.9191H157.407L160.883 15.0977H148.238C147.493 15.0977 146.79 15.2839 146.148 15.6563C145.507 16.0491 144.948 16.5663 144.472 17.2076C144.016 17.8489 143.644 18.6764 143.375 19.6899C143.106 20.7036 142.961 21.6136 142.961 22.4205C142.961 23.2686 143.106 24.0961 143.354 24.9236C143.624 25.751 143.996 26.5164 144.472 27.199C144.948 27.9024 145.569 28.4814 146.355 28.9574C147.121 29.4332 147.886 29.6606 148.652 29.6606H160.841ZM175.204 10.8777C179.26 10.8777 182.323 11.8084 184.351 13.6703C186.4 15.532 187.414 18.4695 187.414 22.5032C187.414 26.5369 186.4 29.4951 184.372 31.357C182.344 33.2185 179.281 34.1497 175.204 34.1497C171.107 34.1497 168.044 33.2185 166.036 31.357C164.008 29.4951 162.994 26.5369 162.994 22.5032C162.994 18.4695 164.008 15.532 166.036 13.6703C168.065 11.8084 171.128 10.8777 175.204 10.8777ZM175.204 30.0535C176.508 30.0535 177.605 29.8468 178.495 29.4332C179.405 29.04 180.129 28.4814 180.689 27.8194C181.247 27.1369 181.64 26.4336 181.889 25.6889C182.137 24.9649 182.261 24.0133 182.261 22.8344C182.261 21.6551 182.137 20.6829 181.889 19.959C181.64 19.2348 181.247 18.5522 180.689 17.9522C180.129 17.3316 179.405 16.7939 178.495 16.3389C177.605 15.8837 176.508 15.6355 175.204 15.6355C173.9 15.6355 172.804 15.8837 171.893 16.3389C171.003 16.7939 170.279 17.3316 169.72 17.9522C169.161 18.5522 168.768 19.2348 168.52 19.959C168.271 20.6829 168.147 21.6551 168.147 22.8344C168.147 24.0133 168.271 24.9649 168.52 25.6889C168.768 26.4336 169.161 27.1369 169.72 27.8194C170.279 28.4814 171.003 29.04 171.893 29.4332C172.804 29.8468 173.9 30.0535 175.204 30.0535ZM205.584 20.1864C207.675 20.1864 209.269 20.6829 210.365 21.6551C211.441 22.6481 212 24.1789 212 26.2681C212 27.4473 211.855 28.502 211.586 29.4332C211.317 30.3845 210.883 31.1707 210.282 31.812C209.683 32.4329 208.917 32.9292 207.985 33.2808C207.075 33.6118 205.957 33.7771 204.633 33.7771H192.133L188.594 29.9916H205.046C205.688 29.9916 206.185 29.7642 206.557 29.309C206.951 28.8746 207.178 28.0678 207.261 26.9094C207.178 25.8336 206.951 25.1096 206.557 24.7582C206.185 24.427 205.688 24.2407 205.046 24.2407H195.713C194.616 24.2407 193.664 24.1374 192.857 23.9305C192.05 23.7237 191.388 23.3309 190.85 22.7723C190.312 22.193 189.918 21.4897 189.671 20.6829C189.401 19.8761 189.277 18.9868 189.277 18.0142C189.277 16.9386 189.422 15.9458 189.712 15.0769C189.981 14.2082 190.415 13.4429 191.015 12.8222C191.595 12.2224 192.36 11.7464 193.291 11.3947C194.223 11.0638 195.341 10.8777 196.644 10.8777H207.054L211.4 15.0769H196.231C195.61 15.2011 195.175 15.3871 194.865 15.6355C194.554 15.9044 194.368 16.6697 194.264 17.9316C194.264 18.6968 194.409 19.2141 194.72 19.5038C195.009 19.7936 195.506 20.021 196.231 20.1864H205.584Z" fill="#070A25"/>
<path d="M17.6728 0.00600067L0 10.2093V30.5844L2.68473 29.0306V13.3037L16.2057 21.1099L17.6551 18.847L4.03216 10.9812L17.6728 3.10606V0.00600067ZM2.19442 34.3188L19.7822 44.4732L37.3526 34.329L35.019 32.9958V32.989L34.6936 32.7644L21.1246 40.5985V23.3935H18.4401V40.5985L4.8789 32.7691L2.19442 34.3188ZM39.5646 30.5977V10.2093L21.8814 0V3.10006L35.5325 10.9812L21.9261 18.8371L23.2381 21.1797L36.8801 13.3037V29.0455L39.5646 30.5977Z" fill="#070A25"/>
<path d="M17.6727 0.00600067L0 10.2094V30.5844L2.68473 29.0306V13.3037L16.2057 21.1099L17.6551 18.847L4.03216 10.9812L17.6727 3.10598V0.00600067ZM39.5646 30.5977V10.2094L21.8814 0V3.10006L35.5324 10.9812L21.9261 18.8371L23.2381 21.1797L36.8801 13.3037V29.0455L39.5646 30.5977Z" fill="#070A25"/>
</svg>
