<svg width="1034" height="1163" viewBox="0 0 1034 1163" fill="none" xmlns="http://www.w3.org/2000/svg">
<path d="M105.126 287.414L460.691 492.715L423.351 551.01L70.412 347.243L69.662 346.81V347.676V758.392L0.5 798.418V267.096L461.356 1.02284V80.8844L105.126 286.548L104.376 286.981L105.126 287.414ZM482.408 1060.99V611.86H551.566V1060.99V1061.86L552.316 1061.42L906.652 856.849L914.678 862.39V862.594L914.93 862.738L975.16 897.149L516.985 1161.67L58.3485 896.879L127.504 856.957L481.658 1061.42L482.408 1061.86V1060.99ZM963.566 347.243L607.489 552.82L573.69 492.472L928.849 287.414L929.599 286.981L928.849 286.548L572.344 80.7276V0.866023L1033.47 267.096V798.768L964.316 758.78V347.676V346.81L963.566 347.243Z" stroke="#ECF2FF"/>
</svg>
