<svg width="22" height="18" viewBox="0 0 22 18" fill="none" xmlns="http://www.w3.org/2000/svg">
<path d="M2.54102 8.87403L9.58611 15.9191C10.2528 16.5858 10.5861 16.9191 11.0003 16.9191C11.4145 16.9191 11.7479 16.5858 12.4145 15.9191L19.4596 8.87403L19.4596 8.87402C19.8849 8.44877 20.0975 8.23614 20.1628 7.95966C20.2281 7.68318 20.133 7.39791 19.9428 6.82736L18.912 3.73509L18.912 3.73507C18.472 2.41504 18.252 1.75503 17.7282 1.37752C17.2045 1 16.5087 1 15.1173 1H6.88336C5.49192 1 4.7962 1 4.27242 1.37752C3.74865 1.75503 3.52864 2.41505 3.08863 3.73509L2.05787 6.82736C1.86769 7.39791 1.7726 7.68318 1.83787 7.95966C1.90313 8.23614 2.11576 8.44877 2.54102 8.87403Z" stroke="url(#paint0_linear_398_846)" stroke-width="2" stroke-linecap="round"/>
<defs>
<linearGradient id="paint0_linear_398_846" x1="11.0003" y1="1" x2="11.0003" y2="17.3333" gradientUnits="userSpaceOnUse">
<stop stop-color="#0066FF"/>
<stop offset="1" stop-color="#51C0FF"/>
</linearGradient>
</defs>
</svg>
