<svg width="216" height="59" viewBox="0 0 216 59" fill="none" xmlns="http://www.w3.org/2000/svg">
<g clip-path="url(#clip0_160_1369)">
<path fill-rule="evenodd" clip-rule="evenodd" d="M201.165 45.0799C209.358 45.0799 216 38.4201 216 30.2048C216 21.9896 209.358 15.3298 201.165 15.3298C192.972 15.3298 186.33 21.9896 186.33 30.2048C186.33 38.4201 192.972 45.0799 201.165 45.0799ZM201.165 36.9662C204.89 36.9662 207.908 33.939 207.908 30.2048C207.908 26.4706 204.89 23.4434 201.165 23.4434C197.441 23.4434 194.422 26.4706 194.422 30.2048C194.422 33.939 197.441 36.9662 201.165 36.9662Z" fill="#8F9CBB"/>
<path d="M205.649 43.7428C204.478 42.5689 204.478 40.6656 205.649 39.4918C206.82 38.3179 208.718 38.3179 209.889 39.4918L211.678 41.2862C212.849 42.4601 212.849 44.3633 211.678 45.5372C210.507 46.7111 208.609 46.7111 207.439 45.5372L205.649 43.7428Z" fill="#8F9CBB"/>
<path fill-rule="evenodd" clip-rule="evenodd" d="M211.003 41.9637L209.213 40.1693C208.415 39.3695 207.122 39.3695 206.325 40.1693C205.527 40.969 205.527 42.2656 206.325 43.0653L208.114 44.8597C208.912 45.6594 210.205 45.6594 211.003 44.8597C211.8 44.06 211.8 42.7634 211.003 41.9637ZM205.649 39.4918C204.478 40.6656 204.478 42.5689 205.649 43.7428L207.439 45.5372C208.609 46.7111 210.507 46.7111 211.678 45.5372C212.849 44.3633 212.849 42.4601 211.678 41.2862L209.889 39.4918C208.718 38.3179 206.82 38.3179 205.649 39.4918Z" fill="#8F9CBB"/>
<path fill-rule="evenodd" clip-rule="evenodd" d="M29.4208 59C45.6695 59 58.8415 45.7924 58.8415 29.5C58.8415 13.2076 45.6695 0 29.4208 0C13.1721 0 0 13.2076 0 29.5C0 45.7924 13.1721 59 29.4208 59ZM29.4208 47.2837C39.2161 47.2837 47.1568 39.3217 47.1568 29.5C47.1568 19.6783 39.2161 11.7163 29.4208 11.7163C19.6256 11.7163 11.6849 19.6783 11.6849 29.5C11.6849 39.3217 19.6256 47.2837 29.4208 47.2837Z" fill="#8F9CBB"/>
<path d="M15.0682 22.1831C12.1365 28.0431 13.6721 34.0426 14.8064 36.3098C18.1569 43.8441 25.9748 45.902 29.4649 45.9893H46.7409C47.1597 42.2221 46.2174 38.1411 37.0558 38.4027H29.4649C21.8739 38.4027 21.0014 31.1649 21.3504 28.4617C21.5249 26.1072 23.3921 21.346 29.4649 21.1367C35.5377 20.9274 37.5794 25.4968 37.8411 27.6768H25.5385V33.1706H45.4321C45.6415 31.9149 45.6938 30.9033 45.6938 30.5545C45.1703 13.5501 31.8207 12.5037 25.5385 13.8117C23.2699 14.1605 17.9998 16.3231 15.0682 22.1831Z" fill="#8F9CBB"/>
<path d="M149.66 18.1274C149.914 17.6675 150.284 17.3609 150.768 17.2076C151.252 17.0543 151.851 16.9776 152.564 16.9776C153.303 16.9776 153.889 17.0415 154.323 17.1693C154.782 17.297 155.113 17.4503 155.316 17.6291C155.546 17.808 155.711 18.0763 155.813 18.434C155.966 18.8427 156.043 19.4943 156.043 20.3885V41.6586C156.043 42.2717 156.017 42.7189 155.966 42.9999C155.941 43.281 155.826 43.6131 155.622 43.9963C155.265 44.6862 154.272 45.0311 152.641 45.0311C151.647 45.0311 150.959 44.9545 150.577 44.8012C150.195 44.6479 149.876 44.4051 149.621 44.073C143.888 36.4081 140.117 31.4004 138.308 29.0499V41.6586C138.308 42.2717 138.282 42.7189 138.231 42.9999C138.206 43.281 138.091 43.6131 137.887 43.9963C137.531 44.6862 136.537 45.0311 134.906 45.0311C133.326 45.0311 132.358 44.6862 132.001 43.9963C131.798 43.6131 131.67 43.2682 131.619 42.9616C131.593 42.655 131.581 42.2079 131.581 41.6202V20.2352C131.581 19.2643 131.696 18.5617 131.925 18.1274C132.18 17.6675 132.549 17.3609 133.033 17.2076C133.517 17.0543 134.142 16.9776 134.906 16.9776C135.671 16.9776 136.269 17.0543 136.702 17.2076C137.161 17.3353 137.48 17.4886 137.658 17.6675C137.76 17.7441 138.053 18.0763 138.537 18.6639C143.914 25.9967 147.506 30.8383 149.316 33.1889V20.2352C149.316 19.2643 149.43 18.5617 149.66 18.1274Z" fill="#8F9CBB"/>
<path d="M175.64 18.9322L185.96 40.3172C186.393 41.1859 186.609 41.8374 186.609 42.2717C186.609 43.1915 185.871 44.0219 184.392 44.7628C183.526 45.1972 182.838 45.4143 182.329 45.4143C181.844 45.4143 181.436 45.2994 181.105 45.0694C180.8 44.8395 180.57 44.5968 180.418 44.3413C180.29 44.0858 180.099 43.7025 179.844 43.1915L177.856 39.0525H167.269L165.282 43.1915C165.027 43.7025 164.823 44.073 164.67 44.3029C164.543 44.5329 164.313 44.7756 163.982 45.0311C163.677 45.261 163.269 45.376 162.759 45.376C162.275 45.376 161.6 45.1588 160.733 44.7245C159.255 44.0091 158.517 43.1915 158.517 42.2717C158.517 41.8374 158.733 41.1859 159.166 40.3172L169.486 18.8938C169.766 18.3062 170.187 17.8335 170.747 17.4758C171.333 17.1181 171.945 16.9393 172.582 16.9393C173.958 16.9393 174.977 17.6036 175.64 18.9322ZM172.544 28.1301L170.021 33.3805H175.104L172.544 28.1301Z" fill="#8F9CBB"/>
<path fill-rule="evenodd" clip-rule="evenodd" d="M81.7225 46.0378C89.9156 46.0378 96.5576 39.3781 96.5576 31.1628C96.5576 22.9475 89.9156 16.2878 81.7225 16.2878C73.5289 16.2878 66.8875 22.9475 66.8875 31.1628C66.8875 39.3781 73.5289 46.0378 81.7225 46.0378ZM81.7225 37.9242C85.4465 37.9242 88.4658 34.897 88.4658 31.1628C88.4658 27.4286 85.4465 24.4015 81.7225 24.4015C77.9981 24.4015 74.9792 27.4286 74.9792 31.1628C74.9792 34.897 77.9981 37.9242 81.7225 37.9242Z" fill="#8F9CBB"/>
<path fill-rule="evenodd" clip-rule="evenodd" d="M114.211 46.0378C122.405 46.0378 129.047 39.3781 129.047 31.1628C129.047 22.9475 122.405 16.2878 114.211 16.2878C106.018 16.2878 99.376 22.9475 99.376 31.1628C99.376 39.3781 106.018 46.0378 114.211 46.0378ZM114.212 37.9242C117.936 37.9242 120.954 34.897 120.954 31.1628C120.954 27.4286 117.936 24.4015 114.212 24.4015C110.487 24.4015 107.468 27.4286 107.468 31.1628C107.468 34.897 110.487 37.9242 114.212 37.9242Z" fill="#8F9CBB"/>
<path d="M86.5399 44.3008C85.3694 43.1269 85.3694 41.2236 86.5399 40.0497C87.7109 38.8758 89.6091 38.8758 90.7796 40.0497L92.5694 41.8442C93.7399 43.018 93.7399 44.9213 92.5694 46.0952C91.3983 47.2691 89.5001 47.2691 88.3296 46.0952L86.5399 44.3008Z" fill="#8F9CBB"/>
<path fill-rule="evenodd" clip-rule="evenodd" d="M91.8936 42.5216L90.1039 40.7272C89.3062 39.9275 88.0133 39.9275 87.2156 40.7272C86.418 41.5269 86.418 42.8235 87.2156 43.6233L89.0054 45.4177C89.803 46.2174 91.0959 46.2174 91.8936 45.4177C92.6912 44.618 92.6912 43.3214 91.8936 42.5216ZM86.5399 40.0497C85.3694 41.2236 85.3694 43.1269 86.5399 44.3008L88.3296 46.0952C89.5001 47.2691 91.3983 47.2691 92.5694 46.0952C93.7399 44.9213 93.7399 43.018 92.5694 41.8442L90.7796 40.0497C89.6091 38.8758 87.7109 38.8758 86.5399 40.0497Z" fill="#8F9CBB"/>
</g>
<defs>
<clipPath id="clip0_160_1369">
<rect width="216" height="59" fill="white"/>
</clipPath>
</defs>
</svg>
