<svg width="222" height="49" viewBox="0 0 222 49" fill="none" xmlns="http://www.w3.org/2000/svg">
<g clip-path="url(#clip0_160_1314)">
<path fill-rule="evenodd" clip-rule="evenodd" d="M170.402 17.8819H164.85V19.1169H168.924V25.4376C168.296 25.7755 167.13 26.0697 165.335 26.0697C160.73 26.0697 157.77 23.0636 157.77 17.9079C157.77 12.8954 160.801 9.79367 165.603 9.79367C167.324 9.79367 168.534 10.1316 169.457 10.5691L169.894 9.33419C168.997 8.89709 167.42 8.53317 165.676 8.53317C159.664 8.53317 156.218 12.6747 156.218 18.0031C156.218 22.63 158.594 27.3042 165.166 27.3042C167.567 27.3042 169.483 26.7235 170.402 26.334V17.8819Z" fill="#8F9CBB"/>
<path fill-rule="evenodd" clip-rule="evenodd" d="M179.544 13.766C179.35 13.7404 179.181 13.6928 178.985 13.6928C177.265 13.6928 175.907 14.9753 175.348 16.5994H175.253L175.205 13.9828H173.849C173.918 15.2913 173.944 16.5738 173.944 17.8819V27.1094H175.448V19.8663C175.448 17.496 176.709 15.1441 178.89 15.1441C179.159 15.1441 179.35 15.1441 179.544 15.1957V13.766Z" fill="#8F9CBB"/>
<path fill-rule="evenodd" clip-rule="evenodd" d="M187.076 13.6928C183.829 13.6928 180.942 16.1623 180.942 20.6673C180.942 24.8313 183.538 27.3998 186.907 27.3998C189.794 27.3998 193.067 25.3162 193.067 20.4249C193.067 16.4526 190.687 13.6928 187.076 13.6928ZM191.536 20.4985C191.536 23.7174 189.573 26.1872 186.955 26.1872C184.384 26.1872 182.472 23.7174 182.472 20.5941C182.472 17.8563 183.851 14.9018 187.029 14.9018C190.254 14.9018 191.536 18.0987 191.536 20.4985Z" fill="#8F9CBB"/>
<path fill-rule="evenodd" clip-rule="evenodd" d="M206.199 13.9828H204.694V22.1705C204.694 24.7096 202.562 26.1172 200.84 26.1172C198.392 26.1172 197.568 24.1549 197.568 21.3951V14.0087H196.064V21.7075C196.064 26.4812 198.66 27.3998 200.429 27.3998C202.73 27.3998 204.135 26.0183 204.768 24.8825H204.842L204.937 27.1094H206.32C206.247 26.1172 206.199 25.0514 206.199 23.8166V13.9828Z" fill="#8F9CBB"/>
<path fill-rule="evenodd" clip-rule="evenodd" d="M211.744 16.3791L211.623 14.0087H210.241C210.288 15.2177 210.335 16.5002 210.335 18.1722V32.5114H211.84V25.0992H211.888C212.738 26.5509 214.337 27.3998 216.158 27.3998C219.14 27.3998 221.975 25.147 221.975 20.3514C221.975 16.4302 219.721 13.6928 216.47 13.6928C214.289 13.6928 212.712 14.685 211.792 16.3791H211.744ZM211.84 19.3848C211.84 17.544 213.344 14.9273 216.106 14.9273C218.919 14.9273 220.471 17.518 220.471 20.4249C220.471 23.791 218.846 26.1648 215.985 26.1648C213.539 26.1648 211.84 24.2029 211.84 21.9498V19.3848Z" fill="#8F9CBB"/>
<path fill-rule="evenodd" clip-rule="evenodd" d="M21.3198 48.7657L20.4208 48.6294L19.5417 48.4634L18.6679 48.2633L17.8183 48.039L16.9641 47.795L16.1387 47.5022L15.3186 47.1948L14.517 46.8533L13.7261 46.4776L12.9448 46.0919L12.1937 45.6773L11.4711 45.2331L10.7474 44.7597L10.045 44.2819L9.34693 43.7448L8.69257 43.2131L8.04321 42.6419L7.41302 42.081L6.81735 41.4757L6.23627 40.8462L5.67971 40.1975L5.13774 39.5535L4.6299 38.875L4.14162 38.1725L3.66722 37.4699L3.21771 36.7283L2.82296 35.9867L2.42182 35.23L2.06619 34.4543L1.73901 33.654L1.42571 32.8536L1.28843 32.4682L1.25572 32.4731L1.1092 31.9997L0.971928 31.5119L0.849592 31.0533L0.722632 30.565L0.615235 30.0677L0.518148 29.5892L0.429953 29.0965L0.332868 28.6133L0.253917 28.0963L0.190973 27.618L0.126959 27.1055L0.0881967 26.5936L0.0448094 26.0955L0.0195612 25.5831L0 25.0712V24.5587L0.0195612 23.3141L0.126959 22.1091L0.273477 20.899L0.493965 19.7082L0.742195 18.5323L1.07968 17.3809L1.441 16.2536L1.89051 15.1605L2.35425 14.0969L2.88163 13.0428L3.45776 12.0183L4.07299 11.052L4.75117 10.1007L5.45425 9.15864L6.21136 8.27091L6.998 7.43615L7.82343 6.63621L8.68688 5.84053L9.60048 5.1234L10.5276 4.42082L11.4953 3.79643L12.5205 3.20119L13.5362 2.63011L14.6009 2.13721L15.6949 1.66883L16.803 1.26868L17.9499 0.907619L19.1071 0.614794L20.2792 0.385581L21.4958 0.185511L22.7213 0.063257L23.9415 0L24.0489 1.71787L24.1221 3.36715L24.1417 4.99651L24.1221 6.59213L24.0297 8.12415L23.9027 9.63198L23.7174 11.0911L23.5069 12.5304L23.2039 13.9067L22.892 15.2437L22.5008 16.5365L22.0663 17.7856L21.578 18.9665L21.0417 20.1378L20.4265 21.2405L19.7714 22.2946L19.0683 23.3141L18.3112 24.2903L17.4812 25.1977L16.5981 26.076L15.655 26.9005L14.6635 27.6621L13.5992 28.3793L12.4761 29.0577L11.2894 29.6725L10.0393 30.2286L8.75551 30.7264L7.38316 31.195L6.84297 31.3442L7.04604 31.8778L7.32022 32.4585L7.5791 33.0343L7.86717 33.5757L8.17904 34.1079L8.49235 34.6493L8.82416 35.1715L9.18973 35.6644L9.56635 36.1717L9.94687 36.6552L10.3576 37.1086L10.7769 37.5774L11.2072 38.0116L11.6656 38.4409L12.1297 38.8702L12.6087 39.2702L13.1062 39.6412L13.6048 40.0218L14.1216 40.3633L14.6497 40.6954L15.1966 41.0123L15.767 41.3248L16.3193 41.5881L16.915 41.8516L17.4765 42.091L18.0722 42.325L18.6921 42.5493L19.3173 42.7253L19.9474 42.8862L20.5726 43.0276L21.2167 43.1595L21.3198 43.1741V48.7657Z" fill="#8F9CBB"/>
<path fill-rule="evenodd" clip-rule="evenodd" d="M25.348 49L25.245 47.2774L25.1719 45.6331L25.1523 44.0035L25.1719 42.4079L25.2653 40.8757L25.3924 39.368L25.5776 37.9089L25.7871 36.4696L26.0896 35.0935L26.408 33.7566L26.7932 32.4636L27.2277 31.2093L27.7207 30.0336L28.2533 28.8671L28.8685 27.7547L29.5282 26.7008L30.2257 25.6809L30.9875 24.7101L31.8128 23.8024L32.7016 22.9239L33.6391 22.1041L34.6305 21.3382L35.6949 20.6161L36.8132 19.9424L38.0047 19.3276L39.2601 18.7764L40.5443 18.2689L41.9109 17.8005L42.4527 17.6541L42.2437 17.1075L41.9702 16.5269L41.7106 15.9512L41.4225 15.4096L41.1149 14.8776L40.798 14.336L40.4708 13.814L40.1042 13.3211L39.7287 12.8136L39.3425 12.3307L38.9378 11.8719L38.5121 11.4081L38.0825 10.9689L37.6285 10.5396L37.1596 10.1103L36.6863 9.71013L36.1831 9.33949L35.6856 8.9589L35.1724 8.62199L34.6454 8.29008L34.0987 7.96812L33.5269 7.65574L32.9758 7.39738L32.3791 7.13371L31.8128 6.89454L31.2171 6.66036L30.6018 6.4361L29.9768 6.25061L29.3477 6.09459L28.7224 5.95281L28.0727 5.82097L27.9949 5.81137V0.224579L28.8732 0.351449L29.7477 0.517049L30.6216 0.717483L31.4711 0.941716L32.331 1.18586L33.1507 1.4833L33.9765 1.78608L34.7723 2.13221L35.5678 2.50818L36.3492 2.89377L37.0967 3.30352L37.8239 3.74737L38.5465 4.22072L39.2454 4.70367L39.9429 5.24065L40.5979 5.77229L41.2476 6.3384L41.8775 6.90448L42.473 7.50933L43.0541 8.13904L43.6157 8.78298L44.1526 9.43191L44.6605 10.1053L45.1538 10.8129L45.6225 11.5154L46.0721 12.2575L46.4675 12.9941L46.8676 13.7504L47.2289 14.5261L47.556 15.3314L47.8678 16.1267L48.0154 16.5365L48.0398 16.5319L48.1813 17.0002L48.3221 17.4882L48.4443 17.9469L48.5714 18.4398L48.6741 18.9274L48.7819 19.4107L48.8651 19.9036L48.9576 20.3915L49.04 20.904L49.1042 21.382L49.1671 21.8944L49.2069 22.4065L49.2506 22.9044L49.2701 23.4168L49.294 23.9292V24.4412L49.2701 25.6809L49.1671 26.891L49.0205 28.1014L48.8012 29.2917L48.5519 30.4678L48.2155 31.6191L47.8542 32.7464L47.4048 33.8395L46.9452 34.9031L46.4134 35.9572L45.8376 36.9816L45.2221 37.9528L44.5386 38.8992L43.8399 39.8414L43.0785 40.729L42.2973 41.5588L41.4715 42.364L40.6028 43.1595L39.6994 43.8767L38.7661 44.5741L37.7944 45.2038L36.7744 45.7991L35.7588 46.3703L34.6944 46.8628L33.6003 47.3311L32.492 47.7267L31.3398 48.0973L30.1827 48.3852L29.0147 48.6143L27.8039 48.815L26.5692 48.9368L25.348 49Z" fill="#8F9CBB"/>
<path fill-rule="evenodd" clip-rule="evenodd" d="M30.3723 42.5639L31.2415 42.3055L32.0626 41.9881L32.8684 41.6661L33.6586 41.2907L34.4256 40.8955L35.1633 40.4757L35.8664 40.0069L36.5446 39.5194L37.2045 39.0121L37.8149 38.4655L38.4196 37.9089L38.9771 37.3136L39.5279 36.6988L40.0415 36.084L40.5194 35.4253L40.9592 34.7666L41.3893 34.0687L41.7645 33.3907L42.1314 32.6686L42.4439 31.9512L42.7467 31.2094L42.9948 30.4678L43.2246 29.7262L43.4244 28.9695L43.571 28.2038L43.6932 27.4229L43.7769 26.6616L43.8203 25.8759L43.8398 25.1148L43.8011 24.3245L43.7574 23.5437L43.6544 22.7775L42.8735 23.1045L42.1119 23.4168L41.3691 23.7829L40.646 24.134L39.977 24.5441L39.3037 24.9588L38.6643 25.3881L38.0688 25.8564L37.4731 26.3203L36.9015 26.8276L36.3741 27.3398L35.8664 27.8717L35.3724 28.4329L34.9037 29.0085L34.4649 29.6038L34.0345 30.2186L33.6586 30.8581L33.2778 31.5119L32.9416 32.1903L32.5942 32.8683L32.3012 33.5904L32.0233 34.3078L31.7499 35.0496L31.5206 35.8302L31.3007 36.5964L31.1144 37.4014L30.9246 38.2212L30.7677 39.0606L30.6408 39.8997L30.5391 40.7878L30.4367 41.6466L30.3723 42.5639Z" fill="#8F9CBB"/>
<path fill-rule="evenodd" clip-rule="evenodd" d="M18.9219 6.4361L18.0573 6.69943L17.2273 7.01181L16.4268 7.33377L15.6355 7.70939L14.8695 8.10456L14.1323 8.51964L13.4289 8.99299L12.7496 9.48092L12.0956 9.98343L11.4758 10.535L10.8694 11.0911L10.3185 11.6864L9.76626 12.3012L9.25417 12.9159L8.77477 13.5748L8.33594 14.2333L7.90597 14.9313L7.52972 15.6097L7.16842 16.3268L6.85154 17.0489L6.54892 17.7856L6.29925 18.5322L6.06952 19.2693L5.8693 20.0305L5.72278 20.7963L5.6008 21.577L5.51866 22.3383L5.47385 23.124L5.45428 23.8802L5.49412 24.6758L5.53786 25.4564L5.64064 26.2226L6.42196 25.8954L7.18796 25.5831L7.92519 25.2172L8.64782 24.8659L9.31674 24.4559L9.99636 24.0366L10.6308 23.6119L11.2265 23.1386L11.8225 22.6798L12.3936 22.1723L12.921 21.6602L13.4289 21.1282L13.9214 20.5621L14.3905 19.9864L14.8247 19.3961L15.2593 18.7813L15.6355 18.142L16.0221 17.4882L16.3539 16.8097L16.7003 16.1317L16.9883 15.4096L17.2764 14.6921L17.5406 13.9504L17.775 13.1697L17.9947 12.4035L18.1797 11.6032L18.3706 10.7787L18.526 9.94433L18.6487 9.09536L18.7561 8.21224L18.8589 7.35332L18.9219 6.4361Z" fill="#8F9CBB"/>
<path fill-rule="evenodd" clip-rule="evenodd" d="M63.3371 27.135V8.68744H74.6013V12.109H67.5295V15.9416H74.3251V19.3337H67.5295V23.714H74.6013V27.135H63.3371Z" fill="#8F9CBB"/>
<path fill-rule="evenodd" clip-rule="evenodd" d="M82.1283 27.4363C79.4143 27.4363 77.4141 25.7389 77.4141 21.6084V13.7515H81.606V20.9506C81.606 22.8909 82.2359 24.0704 83.692 24.0704C84.8386 24.0704 85.4968 23.2768 85.7732 22.619C85.8791 22.3728 85.9093 22.0419 85.9093 21.7146V13.7515H90.1012V22.8394C90.1012 24.5885 90.1527 26.0146 90.2081 27.135H86.5932L86.4019 25.2462H86.3177C85.7991 26.0658 84.5373 27.4363 82.1283 27.4363Z" fill="#8F9CBB"/>
<path fill-rule="evenodd" clip-rule="evenodd" d="M93.3307 27.135V18.1577C93.3307 16.1879 93.2756 14.9018 93.2197 13.7515H96.809L96.9488 16.2135H97.0557C97.7397 14.2696 99.3872 13.4501 100.674 13.4501C101.057 13.4501 101.248 13.4501 101.549 13.5052V17.4484C101.248 17.3638 100.891 17.3087 100.428 17.3087C98.8907 17.3087 97.85 18.1318 97.5782 19.4182C97.5226 19.6901 97.4929 20.0206 97.4929 20.3479V27.135H93.3307Z" fill="#8F9CBB"/>
<path fill-rule="evenodd" clip-rule="evenodd" d="M106.812 27.4366C104.102 27.4366 102.483 25.4671 102.483 23.3319C102.483 19.8553 105.605 18.1869 110.345 18.2128V18.0216C110.345 17.3087 109.963 16.2945 107.908 16.2945C106.539 16.2945 105.087 16.7611 104.208 17.3087V14.2661L104.308 14.2256C105.33 13.8215 106.819 13.4501 108.646 13.4501C113.115 13.4501 114.538 16.0777 114.538 19.227V23.8757C114.538 25.1658 114.593 26.3966 114.729 27.135H110.978L110.728 25.794H110.651C109.773 26.8632 108.404 27.4366 106.812 27.4366ZM108.238 24.5078C109.279 24.5078 110.129 23.8241 110.401 22.9755C110.456 22.7548 110.485 22.5086 110.485 22.2623V20.8109C108.294 20.785 106.595 21.307 106.595 22.9204C106.595 23.9858 107.305 24.5078 108.238 24.5078Z" fill="#8F9CBB"/>
<path fill-rule="evenodd" clip-rule="evenodd" d="M121.282 27.4366C119.966 27.4366 118.759 27.2052 117.811 26.8598L117.694 26.8157V23.4972L117.848 23.5817C118.66 24.0263 120.127 24.5078 121.282 24.5078C122.544 24.5078 123.066 24.0704 123.066 23.387C123.066 22.6997 122.654 22.3728 121.091 21.8507C118.326 20.9211 117.256 19.4182 117.286 17.8564C117.286 15.3389 119.417 13.4501 122.735 13.4501C123.809 13.4501 124.805 13.6193 125.589 13.8581L125.773 13.9167V17.0884L125.654 17.0294C125.03 16.7096 123.953 16.324 122.871 16.324C121.856 16.324 121.282 16.7355 121.282 17.4189C121.282 18.0472 121.805 18.378 123.449 18.9513C125.994 19.8262 127.063 21.1158 127.089 23.0857C127.089 25.5773 125.119 27.4366 121.282 27.4366Z" fill="#8F9CBB"/>
<path fill-rule="evenodd" clip-rule="evenodd" d="M129.531 27.135V13.7515H133.693V27.135H129.531ZM131.587 12.1089C130.27 12.1089 129.394 11.1789 129.42 10.029C129.394 8.82353 130.27 7.91946 131.612 7.91946C132.955 7.91946 133.805 8.82353 133.833 10.029C133.833 11.1789 132.955 12.1089 131.587 12.1089Z" fill="#8F9CBB"/>
<path fill-rule="evenodd" clip-rule="evenodd" d="M140.435 27.4366C137.724 27.4366 136.107 25.4671 136.107 23.3319C136.107 19.8553 139.232 18.1869 143.972 18.2128V18.0216C143.972 17.3087 143.587 16.2945 141.53 16.2945C140.247 16.2945 138.89 16.706 138.004 17.2096L137.835 17.3087V14.2621L137.926 14.2256C138.953 13.8215 140.442 13.4501 142.27 13.4501C146.738 13.4501 148.161 16.0777 148.161 19.227V23.8757C148.161 25.1658 148.216 26.3966 148.352 27.135H144.602L144.352 25.794H144.271C143.395 26.8632 142.023 27.4366 140.435 27.4366ZM141.862 24.5078C142.903 24.5078 143.748 23.8241 144.024 22.9755C144.079 22.7548 144.109 22.5086 144.109 22.2623V20.8109C141.917 20.785 140.218 21.307 140.218 22.9204C140.218 23.9858 140.931 24.5078 141.862 24.5078Z" fill="#8F9CBB"/>
<path fill-rule="evenodd" clip-rule="evenodd" d="M49.3091 0.234187V0.00497437H51.423V0.234187H50.505V2.89842H50.2274V0.234187H49.3091Z" fill="#8F9CBB"/>
<path fill-rule="evenodd" clip-rule="evenodd" d="M52.0727 2.89842H51.7994V0.00497437H52.219L53.1714 2.56188H53.1761L54.1136 0.00497437H54.5286V2.89842H54.2553V0.317347H54.2461L53.2937 2.89842H53.0353L52.0829 0.317347H52.0727V2.89842Z" fill="#8F9CBB"/>
<path d="M71.9046 44.0547H73.1841L72.5518 33.9153H70.8807L69.0752 38.8195C68.6234 40.0981 68.2621 41.2114 68.0054 42.2346H67.9603C67.7041 41.1812 67.3589 40.0681 66.9364 38.8195L65.205 33.9153H63.5342L62.8265 44.0547H64.076L64.3471 39.7071C64.4373 38.1876 64.5134 36.4877 64.5427 35.2242H64.573C64.8589 36.4275 65.2653 37.7361 65.7471 39.1654L67.388 43.9947H68.3816L70.1732 39.0752C70.685 37.6761 71.1063 36.4124 71.4528 35.2242H71.4979C71.483 36.4877 71.5733 38.1876 71.6484 39.6015L71.9046 44.0547ZM75.0165 36.7734V44.0244C75.5585 44.0849 76.236 44.13 76.9735 44.13C77.9369 44.13 79.1113 43.9645 79.9093 43.2875C80.3759 42.8962 80.6621 42.3699 80.6621 41.6027C80.6621 39.8124 79.0813 39.1654 77.5156 39.1654C77.0337 39.1654 76.6122 39.1954 76.3263 39.2558V36.7734H75.0165ZM76.3263 40.1883C76.5973 40.1432 76.9284 40.1132 77.3045 40.1132C78.2982 40.1132 79.3523 40.4742 79.3523 41.6478C79.3523 42.776 78.253 43.1973 77.2445 43.1973C76.8683 43.1973 76.5819 43.1671 76.3263 43.1371V40.1883ZM81.5804 36.7734V44.0547H82.8901V36.7734H81.5804ZM88.1396 36.7734V44.0547H89.4492V40.8504H89.7053C90.9397 40.8504 91.6172 41.3918 92.1139 42.5654C92.3398 43.1671 92.5959 43.7387 92.7913 44.0547H94.1765C93.8455 43.4679 93.5896 42.7609 93.3939 42.2797C92.8216 40.9708 92.1139 40.1883 90.9397 40.0681L94.1165 36.7734H92.5054L89.7653 39.9328H89.4492V36.7734H88.1396ZM98.2372 36.6079C96.2197 36.6079 94.6239 38.0372 94.6239 40.4742C94.6239 42.776 96.1445 44.2202 98.1167 44.2202C99.878 44.2202 101.745 43.0469 101.745 40.3538C101.745 38.1274 100.33 36.6079 98.2372 36.6079ZM98.2069 37.6008C99.7726 37.6008 100.39 39.1654 100.39 40.3989C100.39 42.0386 99.4416 43.2275 98.1772 43.2275C96.8822 43.2275 95.964 42.0237 95.964 40.4291C95.964 39.045 96.6415 37.6008 98.2069 37.6008ZM103.306 47.0334H104.616V43.0766H104.646C105.083 43.7989 105.926 44.2202 106.889 44.2202C108.606 44.2202 110.202 42.9264 110.202 40.3087C110.202 38.0971 108.876 36.6079 107.115 36.6079C105.926 36.6079 105.068 37.1344 104.526 38.0218H104.495L104.435 36.7734H103.246C103.276 37.4655 103.306 38.2178 103.306 39.1503V47.0334ZM104.616 39.8424C104.616 39.662 104.661 39.4662 104.706 39.3009C104.962 38.308 105.805 37.6608 106.709 37.6608C108.109 37.6608 108.876 38.9097 108.876 40.3687C108.876 42.0386 108.063 43.1822 106.663 43.1822C105.715 43.1822 104.917 42.5505 104.676 41.6324C104.646 41.4672 104.616 41.2868 104.616 41.091V39.8424ZM111.296 44.0547H112.515L112.696 40.6098C112.741 39.8124 112.786 38.8497 112.817 37.9921H112.877C113.058 38.669 113.374 39.7219 113.6 40.414L114.894 44.0096H115.858L117.258 40.3389C117.664 39.2256 117.86 38.6388 118.056 37.9767H118.101C118.131 38.8646 118.191 39.7973 118.236 40.5796L118.402 44.0547H119.667L119.155 36.7734H117.514L116.34 39.9477C116.053 40.7451 115.647 41.9033 115.481 42.445H115.451C115.286 41.8733 114.969 40.9857 114.789 40.444L113.464 36.7734H111.838L111.296 44.0547ZM121.243 36.7734V44.0547H122.763C123.546 42.776 124.344 41.377 125.037 40.2487C125.458 39.5113 125.774 38.9245 126.241 37.9921H126.286C126.226 39.1654 126.196 39.7822 126.196 40.9708V44.0547H127.46V36.7734H125.91L123.637 40.5345C123.155 41.377 122.899 41.8884 122.462 42.776L122.417 42.7609C122.477 41.7226 122.492 41.0006 122.492 39.8424V36.7734H121.243ZM129.037 44.0547H130.256L130.437 40.6098C130.482 39.8124 130.527 38.8497 130.557 37.9921H130.617C130.798 38.669 131.114 39.7219 131.34 40.414L132.635 44.0096H133.598L134.998 40.3389C135.405 39.2256 135.6 38.6388 135.796 37.9767H135.842C135.871 38.8646 135.932 39.7973 135.976 40.5796L136.142 44.0547H137.407L136.895 36.7734H135.254L134.08 39.9477C133.794 40.7451 133.387 41.9033 133.222 42.445H133.192C133.026 41.8733 132.71 40.9857 132.529 40.444L131.204 36.7734H129.578L129.037 44.0547ZM141.738 44.0547H142.958L143.139 40.6098C143.184 39.8124 143.229 38.8497 143.259 37.9921H143.319C143.5 38.669 143.816 39.7219 144.042 40.414L145.337 44.0096H146.3L147.7 40.3389C148.107 39.2256 148.302 38.6388 148.498 37.9767H148.543C148.573 38.8646 148.634 39.7973 148.678 40.5796L148.844 44.0547H150.109L149.597 36.7734H147.956L146.782 39.9477C146.496 40.7451 146.089 41.9033 145.924 42.445H145.894C145.728 41.8733 145.412 40.9857 145.231 40.444L143.906 36.7734H142.28L141.738 44.0547ZM151.685 36.7734V44.0547H153.205C153.989 42.776 154.786 41.377 155.479 40.2487C155.9 39.5113 156.216 38.9245 156.682 37.9921H156.728C156.668 39.1654 156.637 39.7822 156.637 40.9708V44.0547H157.902V36.7734H156.351L154.079 40.5345C153.596 41.377 153.34 41.8884 152.905 42.776L152.86 42.7609C152.919 41.7226 152.934 41.0006 152.934 39.8424V36.7734H151.685ZM159.945 47.0334H161.254V43.0766H161.285C161.721 43.7989 162.564 44.2202 163.528 44.2202C165.244 44.2202 166.84 42.9264 166.84 40.3087C166.84 38.0971 165.515 36.6079 163.754 36.6079C162.564 36.6079 161.706 37.1344 161.164 38.0218H161.134L161.074 36.7734H159.885C159.915 37.4655 159.945 38.2178 159.945 39.1503V47.0334ZM161.254 39.8424C161.254 39.662 161.3 39.4662 161.345 39.3009C161.601 38.308 162.444 37.6608 163.347 37.6608C164.747 37.6608 165.515 38.9097 165.515 40.3687C165.515 42.0386 164.702 43.1822 163.302 43.1822C162.354 43.1822 161.556 42.5505 161.315 41.6324C161.285 41.4672 161.254 41.2868 161.254 41.091V39.8424ZM169.546 41.1361L169.756 33.9153H168.311L168.522 41.1361H169.546ZM169.033 44.2202C169.575 44.2202 169.922 43.814 169.922 43.2875C169.922 42.7458 169.575 42.3545 169.033 42.3545C168.522 42.3545 168.145 42.7458 168.145 43.2875C168.145 43.814 168.507 44.2202 169.033 44.2202Z" fill="#8F9CBB"/>
</g>
<defs>
<clipPath id="clip0_160_1314">
<rect width="222" height="49" fill="white"/>
</clipPath>
</defs>
</svg>
