<svg width="168" height="68" viewBox="0 0 168 68" fill="none" xmlns="http://www.w3.org/2000/svg">
<g clip-path="url(#clip0_160_1523)">
<path d="M30.0371 24.6476C30.0371 27.3352 27.8262 29.5341 25.1239 29.5341C22.4216 29.5341 20.2106 27.3352 20.2106 24.6476C20.2106 21.96 22.4216 19.7611 25.1239 19.7611C27.8671 19.7611 30.0371 21.96 30.0371 24.6476ZM25.1239 28.1903C27.0891 28.1903 28.686 26.6023 28.686 24.6476C28.686 22.6931 27.0891 21.1049 25.1239 21.1049C23.1585 21.1049 21.5617 22.6931 21.5617 24.6476C21.5617 26.6023 23.1585 28.1903 25.1239 28.1903ZM25.1239 28.679C27.3757 28.679 29.2183 26.8465 29.2183 24.6069C29.2183 22.3672 27.3757 20.5349 25.1239 20.5349C22.872 20.5349 21.0294 22.3672 21.0294 24.6069C21.0294 26.8873 22.872 28.679 25.1239 28.679ZM23.7317 23.1003H26.5979V23.5889H23.7317V23.1003ZM26.6388 24.5254H25.5333V26.1543H24.7963V24.5254H23.7317V23.8739H26.5979V24.5254H26.6388Z" fill="#8F9CBB"/>
<path d="M40.7637 17.8474C40.7637 20.535 38.5526 22.7339 35.8504 22.7339C33.1482 22.7339 30.9371 20.535 30.9371 17.8474C30.9371 15.1598 33.1482 12.9608 35.8504 12.9608C38.5526 12.9608 40.7637 15.1598 40.7637 17.8474ZM35.8094 21.3901C37.7748 21.3901 39.3715 19.802 39.3715 17.8474C39.3715 15.8927 37.7748 14.3046 35.8094 14.3046C33.8442 14.3046 32.2474 15.8927 32.2474 17.8474C32.2474 19.802 33.8442 21.3901 35.8094 21.3901ZM35.8094 21.8788C38.0614 21.8788 39.9038 20.0463 39.9038 17.8066C39.9038 15.567 38.0614 13.7345 35.8094 13.7345C33.5576 13.7345 31.7151 15.567 31.7151 17.8066C31.7151 20.087 33.5576 21.8788 35.8094 21.8788ZM34.4583 16.3H37.3243V16.7886H34.4583V16.3ZM37.3243 17.7659H36.2189V19.3947H35.4819V17.7659H34.4174V17.1144H37.2834V17.7659H37.3243Z" fill="#8F9CBB"/>
<path d="M48.3779 26.2765C48.3779 28.9641 46.1669 31.163 43.4646 31.163C40.7623 31.163 38.5514 28.9641 38.5514 26.2765C38.5514 23.589 40.7623 21.39 43.4646 21.39C46.2079 21.39 48.3779 23.589 48.3779 26.2765ZM43.4646 29.7785C45.43 29.7785 47.0268 28.1904 47.0268 26.2357C47.0268 24.2812 45.43 22.6931 43.4646 22.6931C41.4994 22.6931 39.9025 24.2812 39.9025 26.2357C39.9025 28.1904 41.4994 29.7785 43.4646 29.7785ZM43.4646 30.3078C45.7166 30.3078 47.5591 28.4754 47.5591 26.2357C47.5591 23.9962 45.7166 22.1637 43.4646 22.1637C41.2128 22.1637 39.3703 23.9962 39.3703 26.2357C39.3703 28.4754 41.2128 30.3078 43.4646 30.3078ZM42.0726 24.7291H44.9386V25.2178H42.0726V24.7291ZM44.9795 26.1544H43.874V27.7832H43.1371V26.1544H42.0726V25.5028H44.9386V26.1544H44.9795Z" fill="#8F9CBB"/>
<path d="M16.2787 32.5476C27.6201 34.5022 44.6527 34.2171 53.169 32.344V35.4388C42.196 37.597 22.0518 37.3526 16.2787 35.0316V32.5476Z" fill="#8F9CBB"/>
<path d="M16.5248 41.8321C16.5248 41.8321 13.5359 36.1312 15.7468 35.4797C17.9578 34.8281 16.5248 41.8321 16.5248 41.8321Z" fill="#8F9CBB"/>
<path d="M52.8825 42.4837C52.8825 42.4837 55.8714 36.7828 53.6604 36.1312C51.4494 35.4797 52.8825 42.4837 52.8825 42.4837Z" fill="#8F9CBB"/>
<path d="M39.9035 47.6143C36.4643 48.1437 33.0249 48.1029 29.5448 47.6143C29.3809 47.2885 29.34 47.0034 29.5448 46.7592C33.0249 47.3699 36.4643 47.3699 39.9035 46.7592C40.1901 46.9627 40.1082 47.2885 39.9035 47.6143Z" fill="#8F9CBB"/>
<path d="M42.4007 54.496C37.3647 55.3919 32.2467 55.3919 27.1288 54.496C26.8421 54.4553 26.6783 54.211 26.6783 53.9259V53.7631C26.6783 53.3966 27.006 53.1522 27.3335 53.2337C32.3286 54.211 37.2827 54.2517 42.1961 53.2337C42.5236 53.1522 42.8511 53.4372 42.8511 53.7631V53.9259C42.8511 54.211 42.6464 54.4146 42.4007 54.496Z" fill="#8F9CBB"/>
<path d="M27.5789 52.6641L29.7898 48.1033C33.3109 48.6327 36.5864 48.6327 39.6982 48.1033L41.9092 52.8676C37.2006 53.8042 32.4512 53.682 27.5789 52.6641Z" fill="#8F9CBB"/>
<path d="M34.7851 39.0629C34.4985 39.0629 32.7788 39.2665 32.7788 41.1396C32.7788 43.1757 34.7442 45.0082 34.7442 45.0082C34.7442 45.0082 36.7094 43.1757 36.7094 41.1396C36.7504 39.2665 35.0717 39.0629 34.7851 39.0629Z" fill="#8F9CBB"/>
<path d="M23.3625 38.3709C23.1168 38.3709 21.561 38.5745 21.561 40.3663C21.561 42.3208 23.3625 44.0311 23.3625 44.0311C23.3625 44.0311 25.1641 42.2801 25.1641 40.3663C25.1231 38.6153 23.6491 38.3709 23.3625 38.3709Z" fill="#8F9CBB"/>
<path d="M45.9226 38.3709C45.677 38.3709 44.1211 38.5745 44.1211 40.3663C44.1211 42.3208 45.9226 44.0311 45.9226 44.0311C45.9226 44.0311 47.7242 42.2801 47.7242 40.3663C47.6832 38.6153 46.1683 38.3709 45.9226 38.3709Z" fill="#8F9CBB"/>
<path d="M17.1401 36.0907C17.3448 36.62 17.3448 37.3123 17.3448 37.7195C18.9007 37.9638 20.2928 38.2082 21.8486 38.371C22.4219 37.8825 23.1997 37.8417 23.4045 37.8417C23.6092 37.8417 24.7556 37.9638 25.3288 38.7376C27.8674 38.9819 30.4058 39.1041 32.9443 39.1448C33.5995 38.4525 34.5412 38.371 34.7869 38.371C35.0325 38.371 35.9332 38.4932 36.5884 39.1855C39.045 39.1448 41.5016 39.0226 43.9992 38.8191C44.5724 37.9638 45.6369 37.801 45.8826 37.801C46.0873 37.801 46.8652 37.9232 47.4384 38.4932C48.9944 38.3304 50.2636 38.086 51.9422 37.6788C51.9832 37.1494 52.0241 36.4572 52.3927 36.0907C40.8055 38.2489 28.85 38.2082 17.1401 36.0907Z" fill="#8F9CBB"/>
<path d="M52.0616 39.3481L51.9798 38.2079C50.6695 38.5337 49.2775 38.8187 47.9263 39.0224C48.0492 39.3481 48.131 39.7146 48.131 40.1625C48.131 41.3841 47.5578 42.565 47.0255 43.4203C48.7452 42.3615 50.5467 40.9362 52.0616 39.3481Z" fill="#8F9CBB"/>
<path d="M43.6699 39.5922C41.4999 39.7959 39.3299 39.8772 37.1189 39.7959C38.3062 42.6056 34.7441 45.6596 34.7441 45.6596C34.7441 45.6596 31.0592 42.5648 32.5332 39.7959C30.3632 39.8772 27.7427 39.7959 25.5727 39.5922C25.6137 39.7551 25.6137 39.9587 25.6137 40.1623C25.6137 41.9133 24.5083 43.5014 23.8531 44.2751C27.0877 45.8633 30.5269 46.5962 34.6622 46.5962C38.7567 46.5148 42.155 45.8633 45.3896 44.2751C44.7344 43.4607 43.629 41.8726 43.629 40.1623C43.629 39.9587 43.6699 39.7551 43.6699 39.5922Z" fill="#8F9CBB"/>
<path d="M21.3562 39.0224C20.0459 38.778 18.6948 38.5337 17.3846 38.2079V39.4703C18.9405 41.0584 20.5782 42.3615 22.2979 43.4203C21.7247 42.565 21.1924 41.3841 21.1924 40.1625C21.1514 39.7146 21.2333 39.3481 21.3562 39.0224Z" fill="#8F9CBB"/>
<path d="M47.4788 29.616C47.2741 29.8604 47.0694 30.0639 46.8237 30.2676C49.526 30.5119 51.2047 30.8377 51.2047 31.2042C51.2047 31.9779 43.8758 32.5887 34.8272 32.5887C25.7786 32.5887 18.4497 31.9779 18.4497 31.2042C18.4497 30.4305 25.7786 29.8197 34.8272 29.8197C36.5878 29.8197 38.2665 29.8604 39.8633 29.9011C39.6586 29.6975 39.4539 29.4532 39.2901 29.2088C37.857 29.1681 36.383 29.1682 34.8681 29.1682C32.3297 29.1682 29.914 29.2088 27.703 29.331C26.966 29.7382 26.1063 29.9418 25.2055 29.9418C24.5503 29.9418 23.8952 29.8197 23.2811 29.5754C18.4906 29.9418 15.3789 30.5526 15.3789 31.2449C15.3789 32.3851 24.1 33.3217 34.8681 33.3217C45.6364 33.3217 54.3574 32.3851 54.3574 31.2449C54.2754 30.5933 51.6142 30.0233 47.4788 29.616Z" fill="#8F9CBB"/>
<path d="M34.186 0C34.0321 0.153153 33.878 0.459462 33.878 0.804057C33.878 1.11036 33.9936 1.3401 34.0321 1.49325C34.0705 1.56983 34.0705 1.60811 34.0705 1.60811L34.0321 1.56983C33.9165 1.41667 33.5701 0.957206 33.0311 1.22522C32.7231 1.37838 32.6846 1.60811 32.6461 1.83784C32.6461 1.91442 32.6461 1.95271 32.6077 2.02928C33.0311 1.60811 33.8395 1.91442 33.8395 2.22072V3.63739C33.2621 3.75225 32.7231 3.48424 32.2226 3.21622C31.6836 2.94821 31.1833 2.68019 30.7597 3.02478C30.3748 3.2928 30.4902 3.79055 30.5672 3.82883C30.2977 4.02027 29.9128 3.98199 29.5663 3.98199C29.1813 3.94371 28.8348 3.94369 28.7194 4.25001C28.5654 4.74776 28.9889 5.05405 29.1428 5.05405C28.9889 5.20721 28.6808 5.20721 28.4113 5.20721C28.0264 5.20721 27.6799 5.16893 27.6799 5.66668C27.6799 6.01127 27.8723 6.08785 28.2959 6.08785C28.2959 6.77704 27.8725 8.15541 27.064 8.34685C26.0245 8.5383 25.4086 8.15541 25.6395 7.73424C25.755 7.46622 25.9475 7.50451 26.14 7.50451C26.1785 7.50451 26.2169 7.50451 26.2555 7.50451C26.2555 6.8919 25.293 6.66216 25.0235 7.08334C24.6771 7.58109 24.8695 7.96398 24.9851 8.19371C25.0235 8.23199 25.0235 8.27027 25.0235 8.30857C24.8696 8.23199 24.5231 8.15541 24.2151 8.30857C23.8686 8.46172 23.4451 8.76802 23.4066 8.92118C24.3691 9.07434 26.525 9.11262 27.1025 8.92118C27.5644 8.76802 27.7954 8.53829 27.9879 8.42343C28.0649 8.38515 28.1034 8.34685 28.1418 8.30857C28.1418 8.92118 28.5654 9.34235 28.5654 9.34235C28.5654 9.34235 28.9889 8.72974 28.7579 8.30857C28.7579 8.30857 29.7972 9.11262 30.7982 9.11262C31.6067 9.11262 31.9531 8.95947 32.0302 8.92118C31.6067 8.8829 31.4142 8.76802 31.2217 8.50001C31.3757 8.30857 31.6452 7.73424 31.6452 7.08334C31.6452 6.73874 31.5682 6.50902 31.4912 6.35587C31.4142 6.12613 31.3372 5.93469 31.4526 5.47524C31.5682 5.01577 31.7607 4.67118 31.8377 4.51802C31.8377 4.47974 31.8762 4.47974 31.8762 4.47974C31.8377 4.51802 31.7607 4.51802 31.6836 4.55632C31.3372 4.67118 30.8367 4.82433 30.8367 5.51352C30.8367 5.51352 30.6057 5.13063 30.4133 5.32208C29.9898 5.74326 30.4902 6.39415 30.6057 6.5473C30.1823 6.35587 29.8358 6.5473 29.7972 6.73874C29.6048 7.35136 29.9898 7.5428 30.2208 7.5428C30.1438 7.35136 30.1823 7.12163 30.4133 7.12163C31.0292 7.12163 31.0292 8.15541 30.8367 8.34685C30.6828 8.50001 29.6048 8.53829 29.1813 7.92568C28.7579 7.31307 28.9889 5.8964 29.7972 5.05405C30.6057 4.25 31.0292 4.02027 31.8377 3.82883C32.4921 3.67568 33.4931 4.17343 33.878 4.44144V5.47524C33.6856 6.08785 33.1851 6.04956 32.8387 5.8964C32.6077 5.78154 32.7231 5.47522 32.8001 5.2455C32.8387 5.16892 32.8387 5.09235 32.8387 5.05405C32.0302 5.05405 31.8762 5.93469 32.2226 6.27929C32.4921 6.54731 32.9541 6.47072 33.3391 6.39415C33.0696 6.50902 32.7231 6.77704 32.6461 7.12163C32.4921 7.61938 32.4536 7.88739 32.4536 7.92568C32.7231 7.92568 33.3006 7.88739 33.4931 7.73424C33.647 7.58108 33.8395 7.27479 33.9165 7.12163C33.7626 7.38965 33.5316 8.00226 33.7241 8.34685C33.7626 8.42343 33.8011 8.53829 33.878 8.61487C34.0321 8.88288 34.1475 9.1892 34.2631 9.34235C34.34 9.22749 34.4555 8.95947 34.571 8.72974C34.648 8.57659 34.6865 8.46172 34.7636 8.30857C34.9175 7.96397 34.6865 7.35136 34.571 7.08334C34.648 7.23649 34.802 7.5428 34.9945 7.69596C35.1485 7.8491 35.7644 7.8874 36.0339 7.8874C36.0339 7.81082 35.9954 7.5428 35.8414 7.08334C35.7259 6.73874 35.418 6.50902 35.1485 6.35587C35.5334 6.47073 36.0339 6.50902 36.2649 6.24099C36.6114 5.8964 36.4574 5.01577 35.649 5.01577C35.649 5.05407 35.6875 5.13063 35.6875 5.20721C35.7644 5.43694 35.88 5.74325 35.649 5.85811C35.3024 6.01127 34.8405 6.04955 34.6095 5.43694V4.40316C35.0329 4.13514 35.9954 3.6374 36.65 3.79055C37.4583 3.98199 37.8818 4.21172 38.6903 5.01577C39.4988 5.81983 39.7298 7.27479 39.3062 7.8874C38.8828 8.50001 37.8049 8.42343 37.6508 8.30857C37.4583 8.11713 37.4583 7.08334 38.0744 7.08334C38.3438 7.08334 38.3438 7.27479 38.2668 7.50451C38.4593 7.50451 38.8828 7.31307 38.6903 6.70046C38.6133 6.50902 38.2668 6.27929 37.8818 6.50902C38.0358 6.35586 38.4978 5.70496 38.0744 5.28379C37.8818 5.09235 37.6508 5.47524 37.6508 5.47524C37.6508 4.78604 37.1503 4.63289 36.8039 4.51802C36.7269 4.47974 36.6883 4.47974 36.6114 4.44144C36.6114 4.44144 36.6114 4.47974 36.65 4.47974C36.7269 4.63288 36.9193 5.01577 37.0349 5.43694C37.1504 5.8964 37.0734 6.08785 36.9964 6.31757C36.9193 6.50902 36.8424 6.70046 36.8424 7.04506C36.8424 7.69596 37.1119 8.27028 37.2659 8.46173C37.0734 8.72974 36.8809 8.8446 36.4574 8.88288C36.5344 8.95947 36.8809 9.07433 37.6893 9.07433C38.7288 9.07433 39.7298 8.27028 39.7298 8.27028C39.5372 8.69145 39.9222 9.30407 39.9222 9.30407C39.9222 9.30407 40.3457 8.8829 40.3457 8.27028C40.3842 8.27028 40.4227 8.34685 40.4996 8.38515C40.6537 8.5383 40.9232 8.72974 41.3852 8.88288C41.9626 9.07433 44.1185 9.03604 45.0809 8.88288C45.0039 8.72974 44.5804 8.42343 44.2725 8.27028C43.926 8.11713 43.5795 8.19371 43.464 8.27028C43.464 8.23199 43.5025 8.19371 43.5025 8.15541C43.618 7.92568 43.772 7.5428 43.464 7.04506C43.1945 6.62388 42.2321 6.85361 42.2321 7.46622C42.2706 7.46622 42.3091 7.46622 42.3476 7.46622C42.5016 7.42793 42.694 7.42793 42.8481 7.69596C43.0406 8.11713 42.4245 8.50001 41.4237 8.30857C40.6152 8.15541 40.1917 6.73874 40.1917 6.04955C40.6152 6.04955 40.8077 5.97297 40.8077 5.62838C40.8077 5.16892 40.4612 5.16892 40.0762 5.16892C39.8067 5.16892 39.5372 5.16893 39.3447 5.01577C39.4988 5.01577 39.9222 4.67118 39.7682 4.21172C39.6527 3.86713 39.3062 3.90541 38.9213 3.94369C38.5749 3.98199 38.2283 3.98199 37.9203 3.79055C37.9973 3.71397 38.0744 3.25451 37.7278 2.98649C37.3044 2.68019 36.8039 2.90991 36.2649 3.17793C35.7644 3.40766 35.2255 3.67568 34.648 3.5991V2.18244C34.648 1.83784 35.4565 1.56983 35.88 1.99099C35.88 1.91442 35.8414 1.87613 35.8414 1.79955C35.8029 1.56983 35.7644 1.3401 35.4565 1.18694C34.9175 0.918922 34.6095 1.37838 34.4555 1.53153C34.4555 1.56983 34.417 1.56983 34.417 1.56983C34.417 1.53153 34.417 1.49325 34.4555 1.45496C34.5326 1.3018 34.6095 1.03378 34.6095 0.765766C34.4941 0.497749 34.34 0.153153 34.186 0Z" fill="#8F9CBB"/>
<path d="M34.186 68.0001C34.0321 67.847 33.878 67.5407 33.878 67.196C33.878 66.8898 33.9936 66.6601 34.0321 66.5068C34.0705 66.4303 34.0705 66.392 34.0705 66.392L34.0321 66.4303C33.9165 66.5835 33.5701 67.0429 33.0311 66.7749C32.7231 66.6218 32.6846 66.392 32.6461 66.1623C32.6461 66.0857 32.6461 66.0474 32.6077 65.9708C33.0311 66.392 33.8395 66.0857 33.8395 65.7794V64.3627C33.2621 64.2479 32.7231 64.5159 32.2226 64.7838C31.6836 65.0519 31.1833 65.3199 30.7597 64.9754C30.3748 64.7073 30.4902 64.2096 30.5672 64.1713C30.2977 63.9798 29.9128 64.0182 29.5663 64.0182C29.1813 64.0565 28.8348 64.0565 28.7194 63.7501C28.5654 63.2524 28.9889 62.946 29.1428 62.946C28.9889 62.7929 28.6808 62.7929 28.4113 62.7929C28.0264 62.7929 27.6799 62.7929 27.6799 62.3335C27.6799 61.9888 27.8723 61.9123 28.2959 61.9123C28.2959 61.2231 27.8725 59.8447 27.064 59.6532C26.0245 59.4618 25.4086 59.8447 25.6395 60.2659C25.755 60.5338 25.9475 60.4956 26.14 60.4956C26.1785 60.4956 26.2169 60.4956 26.2555 60.4956C26.2555 61.1082 25.293 61.3379 25.0235 60.9168C24.6771 60.419 24.8695 60.0362 24.9851 59.8065C25.0235 59.7682 25.0235 59.7298 25.0235 59.6915C24.8696 59.7682 24.5231 59.8447 24.2151 59.6915C23.8686 59.5384 23.4451 59.2321 23.4066 59.079C24.3691 58.9257 26.525 58.8874 27.1025 59.079C27.5644 59.2321 27.7954 59.4618 27.9879 59.5766C28.0649 59.6149 28.1034 59.6532 28.1418 59.6915C28.1418 59.079 28.5654 58.6577 28.5654 58.6577C28.5654 58.6577 28.9889 59.2704 28.7579 59.6915C28.7579 59.6915 29.7972 58.8874 30.7982 58.8874C31.6067 58.8874 31.9531 59.0407 32.0302 59.079C31.6067 59.1172 31.4142 59.2321 31.2217 59.5001C31.3757 59.6915 31.6452 60.2659 31.6452 60.9168C31.6452 61.2613 31.5682 61.491 31.4912 61.6443C31.4142 61.874 31.3372 62.0654 31.4526 62.5249C31.5682 62.9843 31.7607 63.329 31.8377 63.4821C31.8377 63.5204 31.8762 63.5204 31.8762 63.5204C31.8377 63.4821 31.7607 63.4821 31.6836 63.4438C31.3372 63.329 30.8367 63.1757 30.8367 62.4866C30.8367 62.4866 30.6057 62.8695 30.4133 62.678C29.9898 62.2568 30.4902 61.606 30.6057 61.4529C30.1823 61.6443 29.8358 61.4529 29.7972 61.2613C29.6048 60.6488 29.9898 60.4573 30.2208 60.4573C30.1438 60.6488 30.1823 60.8785 30.4133 60.8785C31.0292 60.8785 31.0292 59.8447 30.8367 59.6532C30.6828 59.5001 29.6048 59.4618 29.1813 60.0744C28.7579 60.6871 28.9889 62.1037 29.7972 62.946C30.6057 63.7501 31.0292 63.9798 31.8377 64.1713C32.4921 64.3244 33.4931 63.8267 33.878 63.5587V62.5249C33.6856 61.9123 33.1851 61.9505 32.8387 62.1037C32.6077 62.2185 32.7231 62.5249 32.8001 62.7546C32.8387 62.8312 32.8387 62.9077 32.8387 62.946C32.0302 62.946 31.8762 62.0654 32.2226 61.7208C32.4921 61.4529 32.9541 61.5294 33.3391 61.606C33.0696 61.491 32.7231 61.2231 32.6461 60.8785C32.4921 60.3807 32.4536 60.1127 32.4536 60.0744C32.7231 60.0744 33.3006 60.1127 33.4931 60.2659C33.647 60.419 33.8395 60.7254 33.9165 60.8785C33.7626 60.6104 33.5316 59.9979 33.7241 59.6532C33.7626 59.5766 33.8011 59.4618 33.878 59.3852C34.0321 59.1172 34.1475 58.8109 34.2631 58.6577C34.34 58.7726 34.4555 59.0407 34.571 59.2704C34.648 59.4235 34.6865 59.5384 34.7636 59.6915C34.9175 60.0362 34.6865 60.6488 34.571 60.9168C34.648 60.7636 34.802 60.4573 34.9945 60.3041C35.1485 60.151 35.7644 60.1127 36.0339 60.1127C36.0339 60.1893 35.9954 60.4573 35.8414 60.9168C35.7259 61.2613 35.418 61.491 35.1485 61.6443C35.5334 61.5294 36.0339 61.491 36.2649 61.7591C36.6114 62.1037 36.4574 62.9843 35.649 62.9843C35.649 62.946 35.6875 62.8695 35.6875 62.7929C35.7644 62.5632 35.88 62.2568 35.649 62.142C35.3024 61.9888 34.8405 61.9505 34.6095 62.5632V63.5969C35.0329 63.8649 35.9954 64.3627 36.65 64.2096C37.4583 64.0182 37.8818 63.7884 38.6903 62.9843C39.4988 62.1803 39.7298 60.7254 39.3062 60.1127C38.8828 59.5001 37.8049 59.5767 37.6508 59.6915C37.4583 59.883 37.4583 60.9168 38.0744 60.9168C38.3438 60.9168 38.3438 60.7254 38.2668 60.4956C38.4593 60.4956 38.8828 60.6871 38.6903 61.2996C38.6133 61.491 38.2668 61.7208 37.8818 61.491C38.0358 61.6443 38.4978 62.2951 38.0744 62.7163C37.8818 62.9077 37.6508 62.5249 37.6508 62.5249C37.6508 63.2141 37.1503 63.3672 36.8039 63.4821C36.7269 63.5204 36.6883 63.5204 36.6114 63.5587C36.6114 63.5587 36.6114 63.5204 36.65 63.5204C36.7269 63.3673 36.9193 62.9843 37.0349 62.5632C37.1504 62.1037 37.0734 61.9123 36.9964 61.6826C36.9193 61.491 36.8424 61.2996 36.8424 60.9551C36.8424 60.3041 37.1119 59.7298 37.2659 59.5384C37.0734 59.2704 36.8809 59.1555 36.4574 59.1172C36.5344 59.0407 36.8809 58.9257 37.6893 58.9257C38.7288 58.9257 39.7298 59.7298 39.7298 59.7298C39.5372 59.3087 39.9222 58.696 39.9222 58.696C39.9222 58.696 40.3457 59.1172 40.3457 59.7298C40.3842 59.7298 40.4227 59.6532 40.4996 59.6149C40.6537 59.4618 40.9232 59.2704 41.3852 59.1172C41.9626 58.9257 44.1185 58.9641 45.0809 59.1172C45.0039 59.2704 44.5804 59.5767 44.2725 59.7298C43.926 59.883 43.5795 59.8065 43.464 59.7298C43.464 59.7682 43.5025 59.8065 43.5025 59.8447C43.618 60.0744 43.772 60.4573 43.464 60.9551C43.1945 61.3762 42.2321 61.1465 42.2321 60.5338C42.2706 60.5338 42.3091 60.5338 42.3476 60.5338C42.5016 60.5721 42.694 60.5721 42.8481 60.3041C43.0406 59.883 42.4245 59.5001 41.4237 59.6915C40.6152 59.8447 40.1917 61.2613 40.1917 61.9505C40.6152 61.9505 40.8077 62.0271 40.8077 62.3718C40.8077 62.8312 40.4612 62.8312 40.0762 62.8312C39.8067 62.8312 39.5372 62.8312 39.3447 62.9843C39.4988 62.9843 39.9222 63.329 39.7682 63.7884C39.6527 64.133 39.3062 64.0947 38.9213 64.0565C38.5749 64.0182 38.2283 64.0182 37.9203 64.2096C37.9973 64.2862 38.0744 64.7456 37.7278 65.0137C37.3044 65.3199 36.8039 65.0902 36.2649 64.8221C35.7644 64.5924 35.2255 64.3244 34.648 64.401V65.8177C34.648 66.1623 35.4565 66.4303 35.88 66.0091C35.88 66.0857 35.8414 66.124 35.8414 66.2006C35.8029 66.4303 35.7644 66.6601 35.4565 66.8132C34.9175 67.0812 34.6095 66.6218 34.4555 66.4685C34.4555 66.4302 34.417 66.4303 34.417 66.4303C34.417 66.4685 34.417 66.5068 34.4555 66.5451C34.5326 66.6983 34.6095 66.9663 34.6095 67.2343C34.4941 67.5407 34.34 67.8852 34.186 68.0001Z" fill="#8F9CBB"/>
<path d="M0 33.9998C0.153991 34.1529 0.461974 34.306 0.808454 34.306C1.11644 34.306 1.34742 34.1912 1.50142 34.1529C1.57842 34.1146 1.61691 34.1146 1.61691 34.1146L1.57842 34.1529C1.42442 34.2678 0.962445 34.6123 1.23193 35.1484C1.38593 35.4547 1.61691 35.493 1.84789 35.5312C1.92489 35.5312 1.96338 35.5312 2.04038 35.5695C1.61691 35.1484 1.92489 34.3443 2.23287 34.3443H3.65729C3.77278 34.9187 3.50331 35.4547 3.23382 35.9525C2.96433 36.4884 2.69485 36.9862 3.04133 37.4074C3.31082 37.7903 3.81129 37.6754 3.84978 37.5989C4.04227 37.8668 4.00378 38.2498 4.00378 38.5943C3.96527 38.9772 3.96527 39.3218 4.27326 39.4367C4.77373 39.5898 5.08171 39.1687 5.08171 39.0156C5.23571 39.1687 5.23571 39.475 5.23571 39.743C5.23571 40.1259 5.19721 40.4704 5.69769 40.4704C6.04416 40.4704 6.12116 40.279 6.12116 39.8578C6.81412 39.8578 8.20004 40.279 8.39253 41.0831C8.58502 42.1169 8.20004 42.7295 7.77656 42.4998C7.50707 42.3848 7.54558 42.1934 7.54558 42.002C7.54558 41.9637 7.54558 41.9254 7.54558 41.8872C6.92961 41.8872 6.69862 42.8443 7.1221 43.1123C7.62258 43.457 8.00755 43.2656 8.23854 43.1506C8.27703 43.1123 8.31553 43.1123 8.35403 43.1123C8.27703 43.2656 8.20004 43.6101 8.35403 43.9164C8.50802 44.261 8.81601 44.6822 8.97 44.7205C9.12399 43.7633 9.16249 41.6192 8.97 41.0448C8.81601 40.5853 8.58502 40.3556 8.46952 40.1642C8.43103 40.0876 8.39253 40.0493 8.35403 40.011C8.97 40.011 9.39347 39.5898 9.39347 39.5898C9.39347 39.5898 8.77751 39.1687 8.35403 39.3984C8.35403 39.3984 9.16249 38.3646 9.16249 37.3692C9.16249 36.5651 9.00849 36.2204 8.97 36.1439C8.9315 36.5651 8.816 36.7565 8.54652 36.9479C8.35403 36.7948 7.77656 36.5268 7.1221 36.5268C6.77562 36.5268 6.54463 36.6034 6.39064 36.6799C6.15965 36.7565 5.96716 36.8331 5.5052 36.7182C5.04322 36.6034 4.69674 36.4119 4.54274 36.3353C4.50425 36.3353 4.50425 36.297 4.50425 36.297C4.54274 36.3353 4.54274 36.4119 4.58124 36.4884C4.69674 36.8331 4.85073 37.3309 5.54369 37.3309C5.54369 37.3309 5.15871 37.5606 5.3512 37.752C5.77467 38.1731 6.42914 37.6754 6.58313 37.5606C6.39064 37.9817 6.58313 38.3264 6.77562 38.3646C7.39158 38.5561 7.58407 38.1731 7.58407 37.9434C7.39158 38.02 7.1606 37.9817 7.1606 37.752C7.1606 37.1394 8.20004 37.1394 8.39253 37.3309C8.54652 37.484 8.58502 38.5561 7.96905 38.9772C7.35309 39.3984 5.92867 39.1687 5.08171 38.3646C4.27326 37.5606 4.04227 37.1394 3.84978 36.3353C3.6958 35.6845 4.19627 34.6889 4.46575 34.306H5.5052C6.12116 34.4975 6.08265 34.9953 5.92867 35.3398C5.81318 35.5695 5.5052 35.4547 5.2742 35.3781C5.19721 35.3398 5.12021 35.3398 5.08171 35.3398C5.08171 36.1439 5.96716 36.297 6.31365 35.9525C6.58313 35.6845 6.50614 35.225 6.42914 34.8421C6.54463 35.1101 6.81412 35.4547 7.1606 35.5312C7.66107 35.6845 7.93056 35.7228 7.96905 35.7228C7.96905 35.4547 7.93056 34.8804 7.77656 34.6889C7.62258 34.5358 7.31459 34.3443 7.1606 34.2678C7.43009 34.4209 8.04605 34.6506 8.39253 34.4592C8.46952 34.4209 8.58502 34.3826 8.66201 34.306C8.9315 34.1529 9.23948 34.0381 9.39347 33.9231C9.27798 33.8465 9.00849 33.7317 8.77751 33.6168C8.62352 33.5403 8.50802 33.502 8.35403 33.4254C8.00755 33.2723 7.39158 33.502 7.1221 33.6168C7.27609 33.5403 7.58407 33.3871 7.73807 33.1957C7.89205 33.0425 7.93056 32.4299 7.93056 32.1619C7.85356 32.1619 7.58407 32.2001 7.1221 32.3534C6.77562 32.4682 6.54463 32.7745 6.39064 33.0425C6.50614 32.6596 6.54463 32.1619 6.27515 31.9322C5.92867 31.5876 5.04322 31.7407 5.04322 32.5448C5.08171 32.5448 5.15871 32.5065 5.23571 32.5065C5.46669 32.4299 5.77467 32.3151 5.89016 32.5448C6.04416 32.8894 6.08265 33.3489 5.46669 33.5786H4.42725C4.15776 33.1574 3.65729 32.2001 3.81129 31.5493C4.00378 30.7453 4.23476 30.324 5.04322 29.52C5.85167 28.7159 7.31459 28.4862 7.93056 28.9074C8.54652 29.3286 8.46952 30.4006 8.35403 30.5537C8.16154 30.7453 7.1221 30.7453 7.1221 30.1326C7.1221 29.8646 7.31459 29.8646 7.54558 29.9412C7.54558 29.7498 7.35309 29.3286 6.73712 29.52C6.54463 29.5965 6.31365 29.9412 6.54463 30.324C6.39064 30.1709 5.73618 29.7115 5.31271 30.1326C5.12021 30.324 5.5052 30.5537 5.5052 30.5537C4.81223 30.5537 4.65824 31.0515 4.54274 31.3962C4.50425 31.4728 4.50425 31.511 4.46575 31.5876C4.46575 31.5876 4.50425 31.5876 4.50425 31.5493C4.65824 31.4728 5.04322 31.2812 5.46669 31.1664C5.92867 31.0515 6.12116 31.1281 6.35214 31.2047C6.54463 31.2812 6.73712 31.3578 7.0836 31.3578C7.73807 31.3578 8.31554 31.0898 8.50802 30.9367C8.77751 31.1281 8.893 31.3195 8.9315 31.7407C9.00849 31.6642 9.12399 31.3195 9.12399 30.5156C9.12399 29.4817 8.31554 28.4862 8.31554 28.4862C8.73901 28.6776 9.35498 28.2948 9.35498 28.2948C9.35498 28.2948 8.9315 27.8736 8.31554 27.8736C8.31554 27.8353 8.39253 27.797 8.43103 27.7204C8.58502 27.5673 8.77751 27.2993 8.9315 26.8398C9.12399 26.2654 9.08549 24.1214 8.9315 23.1642C8.77751 23.2407 8.46952 23.6618 8.31554 23.9682C8.16154 24.3128 8.23854 24.6574 8.31554 24.7723C8.27703 24.7723 8.23854 24.734 8.20004 24.734C7.96905 24.619 7.58407 24.4659 7.0836 24.7723C6.66013 25.0403 6.89111 25.9975 7.50707 25.9975C7.50707 25.9592 7.50707 25.9209 7.50707 25.8826C7.46858 25.7295 7.46858 25.5381 7.73807 25.3848C8.16154 25.1934 8.54652 25.806 8.35403 26.8015C8.20004 27.6056 6.77562 28.0268 6.08265 28.0268C6.08265 27.6056 6.00567 27.4142 5.65918 27.4142C5.19721 27.4142 5.1972 27.7587 5.1972 28.1417C5.1972 28.4096 5.19721 28.6776 5.04322 28.8692C5.04322 28.7159 4.69674 28.2948 4.23476 28.4479C3.88829 28.5628 3.92678 28.9074 3.96527 29.2903C4.00378 29.6348 4.00378 29.9795 3.81129 30.2857C3.73429 30.2092 3.27232 30.1326 3.00283 30.4772C2.69485 30.8984 2.92584 31.3962 3.19532 31.9322C3.42631 32.4299 3.6958 32.9659 3.6188 33.5403H2.19438C1.84789 33.5403 1.57842 32.7362 2.00189 32.3151C1.92489 32.3151 1.8864 32.3534 1.8094 32.3534C1.57842 32.3917 1.34742 32.4299 1.19343 32.7362C0.923948 33.2723 1.38592 33.5786 1.53991 33.7317C1.57842 33.7317 1.57842 33.77 1.57842 33.77C1.53991 33.77 1.50142 33.77 1.46291 33.7317C1.30893 33.6551 1.03944 33.5786 0.769956 33.5786C0.461974 33.6934 0.115493 33.8465 0 33.9998Z" fill="#8F9CBB"/>
<path d="M10.0097 9.95515C10.0097 10.1466 10.1252 10.5295 10.3562 10.7592C10.5487 10.9506 10.8182 11.0655 10.9722 11.1421C11.0492 11.1804 11.0877 11.1804 11.0877 11.2187C11.0877 11.2187 11.0492 11.2187 11.0107 11.2187C10.8182 11.1804 10.2407 11.1038 10.0482 11.6781C9.93272 12.0228 10.0867 12.2142 10.2407 12.3673C10.2792 12.4056 10.3177 12.4822 10.3562 12.5205C10.3562 11.9461 11.1262 11.5633 11.3571 11.793L12.3581 12.7884C12.0116 13.2479 11.4342 13.4394 10.9337 13.6308C10.3562 13.8223 9.81723 13.9754 9.74024 14.5114C9.66324 14.9709 10.0867 15.2389 10.1637 15.2389C10.0867 15.5836 9.81723 15.8133 9.54775 16.043C9.23977 16.3111 8.97028 16.5408 9.12427 16.847C9.35526 17.3065 9.89423 17.23 10.0097 17.1534C10.0097 17.3831 9.81723 17.5745 9.62474 17.7659C9.35526 18.034 9.08577 18.2637 9.43225 18.6083C9.66324 18.8381 9.85573 18.7614 10.1637 18.4551C10.6642 18.9529 11.3572 20.2164 10.8952 20.9056C10.3177 21.7862 9.58624 21.9011 9.43225 21.48C9.35526 21.2119 9.47075 21.097 9.62474 20.9822C9.66324 20.9439 9.70174 20.9439 9.74024 20.9056C9.31676 20.4844 8.46981 20.9822 8.5853 21.48C8.70079 22.0925 9.08577 22.2075 9.31676 22.284C9.35526 22.284 9.39375 22.3223 9.43225 22.3223C9.27826 22.3606 8.97028 22.552 8.85479 22.8966C8.7393 23.2412 8.6623 23.7772 8.70079 23.8922C9.47075 23.3178 11.0492 21.8245 11.3186 21.2884C11.5111 20.8673 11.5496 20.5228 11.5881 20.3312C11.5881 20.2547 11.5881 20.1781 11.6267 20.1398C12.0501 20.5611 12.6276 20.5611 12.6276 20.5611C12.6276 20.5611 12.4736 19.8336 12.0501 19.6803C12.0501 19.6803 13.3591 19.5272 14.0904 18.7997C14.668 18.2254 14.8219 17.8808 14.8219 17.8042C14.4755 18.0723 14.283 18.1489 13.9365 18.1106C13.898 17.8808 13.667 17.2682 13.205 16.8087C12.9355 16.5408 12.7431 16.4642 12.5891 16.3876C12.3581 16.2728 12.1656 16.1961 11.8961 15.8133C11.6652 15.4303 11.5496 15.0475 11.4726 14.8561C11.4726 14.8178 11.4726 14.8178 11.4342 14.7795C11.3957 14.8178 11.3957 14.8944 11.3571 14.9326C11.2032 15.2772 10.9337 15.7367 11.4342 16.1961C11.4342 16.1961 11.0107 16.0812 11.0107 16.3493C11.0107 16.9236 11.8191 17.0767 12.0116 17.0767C11.5881 17.23 11.4726 17.6128 11.5881 17.8042C11.8962 18.3786 12.3196 18.2254 12.4736 18.1106C12.2811 17.9956 12.1657 17.8425 12.3196 17.6894C12.7431 17.2682 13.4745 17.9956 13.4745 18.2637C13.4745 18.4551 12.7431 19.2592 12.0116 19.1444C11.2802 18.9912 10.4332 17.8425 10.4332 16.6939C10.4332 15.5453 10.5872 15.1241 11.0107 14.3966C11.3572 13.8223 12.3966 13.4776 12.897 13.4011L13.6285 14.1286C13.9365 14.7029 13.5516 15.0092 13.205 15.1241C12.9355 15.2006 12.8201 14.8944 12.7045 14.7029C12.666 14.6264 12.6276 14.5881 12.6276 14.5497C12.0501 15.1241 12.5891 15.8515 13.0511 15.8515C13.3975 15.8515 13.7055 15.4687 13.898 15.1241C13.8211 15.392 13.744 15.8133 13.898 16.1195C14.129 16.579 14.283 16.8087 14.3214 16.847C14.514 16.6556 14.8989 16.1961 14.8989 15.9664C14.8989 15.7367 14.7835 15.392 14.745 15.2389C14.8604 15.5453 15.1299 16.1195 15.4765 16.2344C15.5534 16.2728 15.6689 16.3111 15.7844 16.3493C16.0924 16.4642 16.4004 16.579 16.5929 16.6173C16.5543 16.4642 16.4773 16.2344 16.3619 15.9664C16.3234 15.8133 16.2463 15.6601 16.2079 15.5453C16.0924 15.2006 15.4765 14.9326 15.207 14.8178C15.3609 14.8561 15.7074 14.9709 15.9384 14.9709C16.1694 14.9709 16.6314 14.5881 16.8238 14.3966C16.7853 14.3583 16.5543 14.2051 16.0924 13.9754C15.7844 13.8223 15.3609 13.8606 15.0914 13.9754C15.4379 13.784 15.8229 13.4777 15.8229 13.1331C15.8229 12.6736 15.0914 12.1376 14.514 12.7119C14.5525 12.7502 14.5909 12.7502 14.668 12.7884C14.8604 12.865 15.1684 13.0182 15.0914 13.2862C14.976 13.6308 14.668 14.0137 14.0904 13.7075L13.3591 12.98C13.4745 12.4822 13.7825 11.4484 14.3599 11.1038C15.0914 10.6826 15.5149 10.5295 16.6699 10.5295C17.8248 10.5295 18.9797 11.4101 19.1337 12.0993C19.2877 12.8267 18.4792 13.5542 18.2483 13.5542C17.9402 13.5542 17.2473 12.8267 17.6707 12.4056C17.8633 12.2142 18.0173 12.3673 18.0943 12.5587C18.2483 12.4056 18.4022 11.9844 17.7863 11.6781C17.5938 11.5633 17.2088 11.6781 17.0548 12.0993C17.0548 11.9078 16.9009 11.1038 16.3234 11.1038C16.0924 11.1038 16.1694 11.525 16.1694 11.525C15.6689 11.0272 15.207 11.2569 14.8989 11.4484C14.8219 11.4867 14.7835 11.525 14.745 11.525C14.745 11.525 14.7835 11.525 14.8219 11.5633C15.0145 11.6398 15.3994 11.7547 15.7844 11.9844C16.2079 12.2142 16.2848 12.4439 16.3619 12.6736C16.4389 12.865 16.5158 13.0565 16.7853 13.2862C17.2473 13.7456 17.8633 13.9754 18.0943 14.0137C18.1327 14.32 18.0943 14.5497 17.7863 14.8944C17.9017 14.8944 18.2097 14.7412 18.7873 14.1669C19.5187 13.4394 19.6727 12.1376 19.6727 12.1376C19.8266 12.5587 20.5581 12.7119 20.5581 12.7119C20.5581 12.7119 20.5581 12.1376 20.1346 11.7164C20.1732 11.7164 20.2502 11.6781 20.3271 11.6781C20.5581 11.6398 20.8661 11.6398 21.2896 11.4101C21.8286 11.1421 23.33 9.57226 23.9074 8.80649C23.7535 8.76821 23.253 8.84478 22.9065 8.95965C22.56 9.07451 22.3676 9.38082 22.329 9.53398C22.329 9.49569 22.2905 9.4574 22.2905 9.41911C22.2135 9.18938 22.0595 8.80649 21.482 8.69163C20.9815 8.57676 20.4812 9.4191 20.9046 9.84028C20.9431 9.80199 20.9815 9.7637 20.9815 9.72542C21.0971 9.57226 21.2126 9.4574 21.482 9.53398C21.9056 9.68712 21.79 10.4146 20.9046 10.9889C20.2117 11.4484 18.9027 10.7592 18.4407 10.2615C18.7487 9.95515 18.8258 9.7637 18.5948 9.53398C18.2483 9.18937 18.0173 9.4574 17.7478 9.72542C17.5553 9.91686 17.3628 10.1083 17.1319 10.1083C17.2473 9.99343 17.3243 9.4574 16.8238 9.22767C16.5158 9.07451 16.2848 9.34253 16.0153 9.64884C15.7844 9.91685 15.5534 10.1849 15.207 10.2615C15.207 10.1466 14.9375 9.7637 14.4755 9.84028C13.9365 9.91685 13.7825 10.4529 13.5901 11.0272C13.436 11.5633 13.2435 12.0993 12.7431 12.4439L11.7421 11.4484C11.5111 11.2187 11.8962 10.4529 12.4736 10.4529C12.435 10.4146 12.3581 10.3763 12.3196 10.338C12.1271 10.1849 11.9347 10.07 11.6267 10.1466C11.0492 10.338 11.1647 10.8741 11.1647 11.1038C11.1647 11.1421 11.1647 11.1421 11.1647 11.1804C11.1647 11.1804 11.1262 11.1421 11.0877 11.0655C11.0107 10.9124 10.9337 10.6826 10.7027 10.4529C10.5487 10.07 10.2022 9.95515 10.0097 9.95515Z" fill="#8F9CBB"/>
<path d="M58.3629 9.99318C58.1704 9.99318 57.7855 10.108 57.5544 10.3378C57.3619 10.5292 57.2465 10.7972 57.1694 10.9504C57.1309 11.027 57.1309 11.0653 57.1309 11.0653C57.1309 11.0653 57.1309 11.027 57.1309 10.9887C57.1694 10.7972 57.2465 10.2229 56.669 10.0315C56.3225 9.9166 56.1299 10.0697 55.976 10.2229C55.9375 10.2612 55.8606 10.2995 55.822 10.3378C56.3994 10.3378 56.7845 11.1035 56.5535 11.3333L55.5525 12.3287C55.0906 11.9842 54.8981 11.4098 54.7055 10.9121C54.5131 10.3378 54.3591 9.80174 53.8201 9.72516C53.3581 9.64859 53.0886 10.0697 53.0886 10.1463C52.7422 10.0697 52.5112 9.80174 52.2803 9.53372C52.0108 9.22741 51.7798 8.95939 51.4718 9.11255C51.0098 9.34227 51.0868 9.87832 51.1637 9.99318C50.9328 9.99318 50.7403 9.80174 50.5478 9.61029C50.2783 9.34227 50.0473 9.07426 49.7008 9.41885C49.4698 9.64858 49.5469 9.84002 49.8549 10.1463C49.3544 10.6441 48.0839 11.3333 47.391 10.8738C46.5056 10.2995 46.39 9.57201 46.8136 9.41885C47.083 9.34227 47.1985 9.45715 47.3141 9.61029C47.3525 9.64858 47.3525 9.68687 47.391 9.72516C47.8144 9.30399 47.3141 8.46165 46.8136 8.57651C46.1975 8.69138 46.0821 9.07426 46.0051 9.30399C46.0051 9.34227 45.9666 9.38057 45.9666 9.41885C45.928 9.2657 45.7356 8.9594 45.3891 8.84452C45.0426 8.72966 44.5036 8.65308 44.3882 8.69138C44.9656 9.45714 46.467 11.027 47.006 11.295C47.4295 11.4864 47.776 11.5248 47.9685 11.5629C48.0454 11.5629 48.1224 11.5629 48.161 11.6013C47.7375 12.0224 47.7375 12.5968 47.7375 12.5968C47.7375 12.5968 48.469 12.4437 48.6229 12.0225C48.6229 12.0225 48.7769 13.3243 49.5083 14.0517C50.0859 14.626 50.4323 14.7792 50.5093 14.7792C50.2398 14.4346 50.1629 14.2432 50.2013 13.8986C50.4323 13.8603 51.0483 13.6306 51.5103 13.1711C51.7798 12.9031 51.8567 12.7117 51.9337 12.5585C52.0493 12.3287 52.1262 12.1373 52.5112 11.8693C52.8962 11.6396 53.2811 11.5248 53.4737 11.4481C53.5121 11.4481 53.5121 11.4481 53.5506 11.4098C53.5121 11.3715 53.4352 11.3715 53.3967 11.3333C53.0501 11.1801 52.5882 10.9121 52.1262 11.4098C52.1262 11.4098 52.2417 10.9887 51.9722 10.9887C51.3947 10.9887 51.2408 11.7927 51.2408 11.9842C51.0868 11.5629 50.7018 11.4481 50.5093 11.5629C49.9319 11.8693 50.0859 12.2904 50.2013 12.4437C50.3168 12.2522 50.4708 12.1373 50.6249 12.2904C51.0483 12.7117 50.3168 13.4392 50.0473 13.4392C49.8549 13.4392 49.0464 12.7117 49.1619 11.9842C49.3159 11.2567 50.4708 10.4143 51.6257 10.4143C52.7807 10.4143 53.2042 10.5675 53.9357 10.9887C54.5131 11.3333 54.8596 12.367 54.9365 12.8648L54.2052 13.5923C53.6276 13.8986 53.3196 13.5157 53.2042 13.1711C53.1272 12.9031 53.4352 12.7882 53.6276 12.6734C53.7047 12.6351 53.7431 12.5968 53.7816 12.5968C53.2042 12.0225 52.4727 12.5585 52.4727 13.0179C52.4727 13.3626 52.8577 13.6689 53.2042 13.8603C52.9347 13.7837 52.5112 13.7071 52.2032 13.8603C51.7413 14.0901 51.5103 14.2432 51.4718 14.2815C51.6642 14.4729 52.1262 14.8558 52.3572 14.8558C52.5882 14.8558 52.9347 14.7409 53.0886 14.7026C52.7807 14.8175 52.2032 15.0856 52.0877 15.4301C52.0493 15.5067 52.0108 15.6215 51.9722 15.7364C51.8567 16.0428 51.7413 16.349 51.7027 16.5404C51.8567 16.5022 52.0877 16.4256 52.3572 16.3107C52.5112 16.2725 52.6652 16.1959 52.7807 16.1576C53.1272 16.0427 53.3967 15.4301 53.5121 15.1621C53.4737 15.3153 53.3581 15.6598 53.3581 15.8896C53.3581 16.1193 53.7431 16.5787 53.9357 16.7702C53.9742 16.732 54.1281 16.5022 54.3591 16.0428C54.5131 15.7364 54.4745 15.3153 54.3591 15.0473C54.5516 15.3918 54.8596 15.7748 55.206 15.7748C55.668 15.7748 56.207 15.0473 55.6296 14.4729C55.5911 14.5112 55.5911 14.5495 55.5525 14.626C55.4755 14.8175 55.3216 15.1238 55.0521 15.0473C54.7055 14.9323 54.3206 14.626 54.6286 14.0517L55.3601 13.3243C55.8606 13.4392 56.8999 13.7454 57.2465 14.3198C57.6699 15.0473 57.8239 15.4684 57.8239 16.617C57.8239 17.7657 56.9384 18.9143 56.2455 19.0675C55.514 19.2207 54.7826 18.4166 54.7826 18.1868C54.7826 17.8806 55.514 17.1914 55.9375 17.6126C56.13 17.804 55.976 17.9571 55.7835 18.0337C55.9375 18.1868 56.3609 18.3401 56.669 17.7274C56.7845 17.536 56.669 17.1531 56.2455 16.9999C56.438 16.9999 57.2465 16.8468 57.2465 16.2725C57.2465 16.0427 56.823 16.1193 56.823 16.1193C57.3234 15.6215 57.0924 15.1621 56.8999 14.8558C56.8614 14.7792 56.823 14.7409 56.823 14.7026C56.823 14.7026 56.823 14.7409 56.823 14.7792C56.746 14.9707 56.6304 15.3535 56.3995 15.7364C56.1685 16.1576 55.9375 16.2342 55.745 16.3107C55.5526 16.3873 55.3601 16.4639 55.1291 16.732C54.6671 17.1914 54.4361 17.804 54.3976 18.0337C54.0896 18.072 53.8586 18.0337 53.5121 17.7274C53.5121 17.8423 53.6662 18.1486 54.2436 18.7229C54.975 19.4504 56.284 19.6035 56.284 19.6035C55.8606 19.7567 55.7065 20.4842 55.7065 20.4842C55.7065 20.4842 56.284 20.4842 56.7075 20.0631C56.7075 20.1013 56.746 20.1779 56.746 20.2545C56.7845 20.4842 56.7845 20.7904 57.0155 21.2117C57.285 21.7476 58.8634 23.2409 59.6333 23.8153C59.6719 23.6621 59.5948 23.1643 59.4793 22.8198C59.3638 22.4751 59.0558 22.2837 58.9019 22.2454C58.9404 22.2454 58.9788 22.2071 59.0173 22.2071C59.2483 22.1306 59.6333 21.9774 59.7488 21.4031C59.8643 20.9054 59.0173 20.4076 58.5939 20.8287C58.6324 20.867 58.6709 20.9054 58.7094 20.9054C58.8634 21.0202 58.9788 21.1351 58.9019 21.4031C58.7478 21.8243 58.0165 21.7095 57.4389 20.8287C56.977 20.1396 57.6699 18.8378 58.1704 18.3784C58.4784 18.6846 58.6709 18.7612 58.9019 18.5315C59.2483 18.1868 58.9788 17.9571 58.7094 17.6892C58.5168 17.4976 58.3244 17.3062 58.3244 17.0765C58.4399 17.1914 58.9788 17.2679 59.2098 16.7702C59.3638 16.4639 59.0943 16.2342 58.7863 15.9662C58.5168 15.7364 58.2474 15.5067 58.1704 15.1621C58.2858 15.1621 58.6709 14.894 58.5939 14.4346C58.5168 13.8986 57.9779 13.7454 57.4004 13.554C56.8614 13.4009 56.3225 13.2093 55.976 12.7117L56.977 11.7162C57.2079 11.4864 57.9779 11.8693 57.9779 12.4437C58.0163 12.4054 58.0549 12.3287 58.0934 12.2904C58.2474 12.099 58.3629 11.9076 58.2858 11.6013C58.0934 11.027 57.5544 11.1418 57.3234 11.1418C57.285 11.1418 57.285 11.1418 57.2465 11.1418C57.2465 11.1418 57.285 11.1035 57.3619 11.0653C57.516 10.9887 57.747 10.9121 57.9779 10.6824C58.2089 10.5292 58.3629 10.1846 58.3629 9.99318Z" fill="#8F9CBB"/>
<path d="M10.0097 58.0452C10.0097 57.8538 10.1252 57.471 10.3562 57.2411C10.5487 57.0497 10.8182 56.9349 10.9722 56.8583C11.0492 56.82 11.0877 56.82 11.0877 56.82C11.0877 56.82 11.0492 56.82 11.0107 56.82C10.8182 56.8583 10.2407 56.9349 10.0482 56.3605C9.93272 56.016 10.0867 55.8245 10.2407 55.6714C10.2792 55.6331 10.3177 55.5566 10.3562 55.5182C10.3562 56.0925 11.1262 56.4755 11.3571 56.2457L12.3581 55.2502C12.0116 54.7908 11.4342 54.5993 10.9337 54.4078C10.3562 54.2164 9.81723 54.0633 9.74024 53.5272C9.66324 53.0678 10.0867 52.7997 10.1637 52.7997C10.0867 52.4552 9.81723 52.2255 9.54775 51.9957C9.23977 51.7277 8.97028 51.498 9.12427 51.1916C9.35526 50.7322 9.89423 50.8088 10.0097 50.8853C10.0097 50.6556 9.81723 50.4641 9.62474 50.2727C9.35526 50.0047 9.08577 49.775 9.43225 49.4303C9.66324 49.2006 9.85573 49.2772 10.1637 49.5835C10.6642 49.0858 11.3572 47.8222 10.8952 47.1331C10.3177 46.2525 9.58624 46.1375 9.43225 46.5588C9.35526 46.8267 9.47075 46.9416 9.62474 47.0566C9.66324 47.0947 9.70174 47.0947 9.74024 47.1331C9.31676 47.5542 8.46981 47.0564 8.5853 46.5588C8.70079 45.9461 9.08577 45.8313 9.31676 45.7547C9.35526 45.7547 9.39375 45.7164 9.43225 45.7164C9.27826 45.6781 8.97028 45.4867 8.85479 45.1421C8.7393 44.7975 8.6623 44.2614 8.70079 44.1466C9.47075 44.7209 11.0492 46.2141 11.3186 46.7502C11.5111 47.1714 11.5496 47.516 11.5881 47.7074C11.5881 47.7839 11.5881 47.8605 11.6267 47.8988C12.0501 47.4777 12.6276 47.4777 12.6276 47.4777C12.6276 47.4777 12.4736 48.2052 12.0501 48.3583C12.0501 48.3583 13.3591 48.5114 14.0904 49.2389C14.668 49.8133 14.8219 50.1578 14.8219 50.2344C14.4755 49.9664 14.283 49.8899 13.9365 49.9281C13.898 50.1578 13.667 50.7705 13.205 51.2299C12.9355 51.498 12.7431 51.5745 12.5891 51.6511C12.3581 51.766 12.1656 51.8425 11.8961 52.2255C11.6652 52.6083 11.5496 52.9911 11.4726 53.1827C11.4726 53.2209 11.4726 53.2209 11.4342 53.2592C11.3957 53.2209 11.3957 53.1444 11.3571 53.1061C11.2032 52.7614 10.9337 52.302 11.4342 51.8425C11.4342 51.8425 11.0107 51.9574 11.0107 51.6894C11.0107 51.115 11.8191 50.9619 12.0116 50.9619C11.5881 50.8088 11.4726 50.4258 11.5881 50.2344C11.8962 49.66 12.3196 49.8133 12.4736 49.9281C12.2811 50.043 12.1657 50.1961 12.3196 50.3493C12.7431 50.7705 13.4745 50.043 13.4745 49.775C13.4745 49.5835 12.7431 48.7794 12.0116 48.8944C11.2802 49.0475 10.4332 50.1961 10.4332 51.3447C10.4332 52.4934 10.5872 52.9146 11.0107 53.6421C11.3572 54.2164 12.3966 54.561 12.897 54.6375L13.6285 53.9102C13.9365 53.3358 13.5516 53.0294 13.205 52.9146C12.9355 52.838 12.8201 53.1444 12.7045 53.3358C12.666 53.4124 12.6276 53.4506 12.6276 53.4889C12.0501 52.9146 12.5891 52.1872 13.0511 52.1872C13.3975 52.1872 13.7055 52.57 13.898 52.9146C13.8211 52.6466 13.744 52.2255 13.898 51.9191C14.129 51.4597 14.283 51.2299 14.3214 51.1916C14.514 51.3831 14.8989 51.8425 14.8989 52.0722C14.8989 52.302 14.7835 52.6466 14.745 52.7997C14.8604 52.4935 15.1299 51.9191 15.4765 51.8042C15.5534 51.766 15.6689 51.7277 15.7844 51.6894C16.0924 51.5745 16.4004 51.4597 16.5929 51.4214C16.5543 51.5745 16.4773 51.8042 16.3619 52.0722C16.3234 52.2255 16.2463 52.3786 16.2079 52.4934C16.0924 52.838 15.4765 53.1061 15.207 53.2209C15.3609 53.1827 15.7074 53.0678 15.9384 53.0678C16.1694 53.0678 16.6314 53.4506 16.8238 53.6421C16.7853 53.6803 16.5543 53.8335 16.0924 54.0633C15.7844 54.2164 15.3609 54.1781 15.0914 54.0633C15.4379 54.2547 15.8229 54.561 15.8229 54.9056C15.8229 55.365 15.0914 55.9011 14.514 55.3268C14.5525 55.2885 14.5909 55.2885 14.668 55.2502C14.8604 55.1736 15.1684 55.0205 15.0914 54.7525C14.976 54.4078 14.668 54.025 14.0904 54.3313L13.3591 55.0588C13.4745 55.5566 13.7825 56.5903 14.3599 56.9349C15.0914 57.3561 15.5149 57.5092 16.6699 57.5092C17.8248 57.5092 18.9797 56.6286 19.1337 55.9394C19.2877 55.2119 18.4792 54.4844 18.2483 54.4844C17.9402 54.4844 17.2473 55.2119 17.6707 55.6331C17.8633 55.8245 18.0173 55.6714 18.0943 55.4799C18.2483 55.6331 18.4022 56.0542 17.7863 56.3605C17.5938 56.4755 17.2088 56.3605 17.0548 55.9394C17.0548 56.1308 16.9009 56.9349 16.3234 56.9349C16.0924 56.9349 16.1694 56.5137 16.1694 56.5137C15.6689 57.0114 15.207 56.7817 14.8989 56.5903C14.8219 56.552 14.7835 56.5137 14.745 56.5137C14.745 56.5137 14.7835 56.5137 14.8219 56.5137C15.0145 56.4372 15.3994 56.3222 15.7844 56.0925C16.2079 55.8628 16.2848 55.6331 16.3619 55.4416C16.4389 55.2502 16.5158 55.0588 16.7853 54.8291C17.2473 54.3696 17.8633 54.1399 18.0943 54.1016C18.1327 53.7952 18.0943 53.5655 17.7863 53.2209C17.9017 53.2209 18.2097 53.3741 18.7873 53.9484C19.5187 54.6758 19.6727 55.9777 19.6727 55.9777C19.8266 55.5566 20.5581 55.4033 20.5581 55.4033C20.5581 55.4033 20.5581 55.9777 20.1346 56.3988C20.1732 56.3988 20.2502 56.4372 20.3271 56.4372C20.5581 56.4755 20.8661 56.4755 21.2896 56.7052C21.8286 56.9732 23.33 58.543 23.9074 59.3088C23.7535 59.3471 23.253 59.2705 22.9065 59.1556C22.56 59.0408 22.3676 58.7344 22.329 58.5813C22.329 58.6196 22.2905 58.6578 22.2905 58.6961C22.2135 58.9258 22.0595 59.3088 21.482 59.4236C20.9815 59.5385 20.4812 58.6961 20.9046 58.275C20.9431 58.3133 20.9815 58.3516 20.9815 58.3899C21.0971 58.543 21.2126 58.6578 21.482 58.5813C21.9056 58.4281 21.79 57.7006 20.9046 57.1263C20.2117 56.6669 18.9027 57.3561 18.4407 57.8538C18.7487 58.1602 18.8258 58.3516 18.5948 58.5813C18.2483 58.9258 18.0173 58.6578 17.7478 58.3899C17.5553 58.1984 17.3628 58.0069 17.1319 58.0069C17.2473 58.1219 17.3243 58.6578 16.8238 58.8875C16.5158 59.0408 16.2848 58.7727 16.0153 58.4664C15.7844 58.1984 15.5534 57.9303 15.207 57.8538C15.207 57.9686 14.9375 58.3516 14.4755 58.275C13.9365 58.1984 13.7825 57.6624 13.5901 57.088C13.436 56.552 13.2435 56.016 12.7431 55.6714L11.7421 56.6669C11.5111 56.8966 11.8962 57.6624 12.4736 57.6624C12.435 57.7006 12.3581 57.7389 12.3196 57.7772C12.1271 57.9304 11.9347 58.0452 11.6267 57.9686C11.0492 57.7772 11.1647 57.2411 11.1647 57.0114C11.1647 56.9732 11.1647 56.9732 11.1647 56.9349C11.1647 56.9349 11.1262 56.9732 11.0877 57.0497C11.0107 57.2029 10.9337 57.4327 10.7027 57.6624C10.5487 57.9303 10.2022 58.0452 10.0097 58.0452Z" fill="#8F9CBB"/>
<path d="M58.3237 58.0452C58.1313 58.0452 57.7847 57.9303 57.5152 57.6624C57.3228 57.4709 57.2072 57.2029 57.1303 57.0497C57.0918 56.9732 57.0918 56.9349 57.0533 56.9349C57.0533 56.9349 57.0533 56.9732 57.0533 57.0114C57.0918 57.2029 57.1688 57.7772 56.5913 57.9686C56.2449 58.0835 56.0523 57.9304 55.8984 57.7772C55.8598 57.7389 55.7828 57.7006 55.7444 57.6624C56.3218 57.6624 56.7069 56.8966 56.4759 56.6669L55.4749 55.6714C55.0129 56.016 54.8204 56.5903 54.6279 57.088C54.4354 57.6624 54.2815 58.1984 53.7425 58.275C53.2805 58.3516 53.011 57.9303 53.011 57.8538C52.6646 57.9303 52.4336 58.1984 52.2025 58.4664C51.9331 58.7727 51.7021 59.0408 51.3941 58.8875C50.9322 58.6578 51.0092 58.1219 51.0861 58.0069C50.8551 58.0069 50.6627 58.1984 50.4702 58.3899C50.2007 58.6578 49.9697 58.9258 49.6232 58.5813C49.3922 58.3516 49.4692 58.1602 49.7772 57.8538C49.2768 57.3561 48.0063 56.6669 47.3133 57.1263C46.4279 57.7006 46.3124 58.4281 46.7358 58.5813C47.0053 58.6578 47.1209 58.543 47.2363 58.3899C47.2748 58.3516 47.2748 58.3133 47.3133 58.275C47.7368 58.6961 47.2363 59.5385 46.7358 59.4236C46.1199 59.3088 46.0045 58.9258 45.9274 58.6961C45.9274 58.6578 45.8889 58.6196 45.8889 58.5813C45.8504 58.7344 45.6579 59.0408 45.3114 59.1556C44.965 59.2705 44.426 59.3471 44.3105 59.3088C44.8879 58.543 46.3894 56.9732 46.9284 56.7052C47.3518 56.5137 47.6983 56.4755 47.8909 56.4372C47.9678 56.4372 48.0448 56.4372 48.0833 56.3988C47.6599 55.9777 47.6599 55.4033 47.6599 55.4033C47.6599 55.4033 48.3913 55.5566 48.5453 55.9777C48.5453 55.9777 48.6992 54.6758 49.4307 53.9484C50.0082 53.3741 50.3546 53.2209 50.4317 53.2209C50.1622 53.5655 50.0851 53.7569 50.1237 54.1016C50.3546 54.1399 50.9707 54.3696 51.4326 54.8291C51.7021 55.097 51.7791 55.2885 51.8561 55.4416C51.9715 55.6714 52.0486 55.8628 52.4336 56.0925C52.8185 56.3222 53.2035 56.4372 53.3959 56.5137C53.4345 56.5137 53.4345 56.5137 53.473 56.5137C53.4345 56.552 53.3575 56.552 53.319 56.5903C52.9725 56.7435 52.5105 57.0114 52.0486 56.5137C52.0486 56.5137 52.1641 56.9349 51.8946 56.9349C51.3171 56.9349 51.1631 56.1308 51.1631 55.9394C51.0092 56.3605 50.6241 56.4755 50.4317 56.3605C49.8542 56.0542 50.0082 55.6331 50.1237 55.4799C50.2392 55.6714 50.3932 55.8245 50.5471 55.6331C50.9707 55.2119 50.2392 54.4844 49.9697 54.4844C49.7772 54.4844 48.9687 55.2119 49.0843 55.9394C49.2382 56.6669 50.3932 57.5092 51.5481 57.5092C52.703 57.5092 53.1266 57.3561 53.858 56.9349C54.4354 56.5903 54.782 55.5566 54.8589 55.0588L54.1274 54.3313C53.55 54.025 53.242 54.4078 53.1266 54.7525C53.0495 55.0205 53.3575 55.1353 53.55 55.2502C53.6269 55.2885 53.6654 55.3268 53.704 55.3268C53.1266 55.9011 52.3951 55.365 52.3951 54.9056C52.3951 54.561 52.78 54.2547 53.1266 54.0633C52.8571 54.1399 52.4336 54.2164 52.1256 54.0633C51.6636 53.8335 51.4326 53.6803 51.3941 53.6421C51.5866 53.4506 52.0486 53.0678 52.2795 53.0678C52.5105 53.0678 52.8571 53.1827 53.011 53.2209C52.703 53.1061 52.1256 52.838 52.01 52.4934C51.9715 52.3786 51.8946 52.2255 51.8561 52.0722C51.7791 51.8042 51.6636 51.5745 51.6251 51.4214C51.8176 51.4597 52.1256 51.5745 52.4336 51.6894C52.549 51.7277 52.6261 51.766 52.7415 51.8042C53.088 51.9191 53.3575 52.5317 53.473 52.7997C53.4345 52.6466 53.319 52.302 53.319 52.0722C53.319 51.8425 53.704 51.3831 53.8964 51.1916C53.9349 51.2299 54.089 51.4597 54.32 51.9191C54.4739 52.2255 54.4354 52.6466 54.32 52.9146C54.5125 52.57 54.8204 52.1872 55.1669 52.1872C55.6289 52.1872 56.1679 52.9146 55.5903 53.4889C55.5518 53.4506 55.5518 53.4124 55.5134 53.3358C55.4364 53.1444 55.2824 52.838 55.0129 52.9146C54.6664 53.0294 54.2815 53.3358 54.5894 53.9102L55.3208 54.6375C55.8213 54.5227 56.8608 54.2164 57.2072 53.6421C57.6308 52.9146 57.7847 52.4934 57.7847 51.3447C57.7847 50.1961 56.8993 49.0475 56.2064 48.8944C55.4749 48.7411 54.7434 49.5452 54.7434 49.775C54.7434 50.0813 55.4749 50.7705 55.8984 50.3493C56.0908 50.1578 55.9369 50.0047 55.7444 49.9281C55.8984 49.775 56.3218 49.6219 56.6298 50.2344C56.7453 50.4258 56.6298 50.8088 56.2064 50.9619C56.3988 50.9619 57.2072 51.115 57.2072 51.6894C57.2072 51.9191 56.7838 51.8425 56.7838 51.8425C57.2843 52.3403 57.0533 52.7997 56.8608 53.1061C56.8223 53.1827 56.7838 53.2209 56.7838 53.2592C56.7838 53.2592 56.7838 53.2209 56.7453 53.1827C56.6683 52.9911 56.5528 52.6083 56.3218 52.2255C56.0908 51.8042 55.8598 51.7277 55.6289 51.6511C55.4364 51.5745 55.2439 51.498 55.0129 51.2299C54.551 50.7705 54.32 50.1578 54.2815 49.9281C53.9735 49.8899 53.7425 49.9281 53.3959 50.2344C53.3959 50.1196 53.55 49.8133 54.1274 49.2389C54.8589 48.5114 56.1679 48.3583 56.1679 48.3583C55.7444 48.2052 55.5903 47.4777 55.5903 47.4777C55.5903 47.4777 56.1679 47.4777 56.5913 47.8988C56.5913 47.8605 56.6298 47.7839 56.6298 47.7074C56.6683 47.4777 56.6683 47.1714 56.8993 46.7502C57.1688 46.2141 58.7472 44.7209 59.5172 44.1466C59.5557 44.2997 59.4787 44.7975 59.3631 45.1421C59.2477 45.4867 58.9397 45.6781 58.7857 45.7164C58.8242 45.7164 58.8627 45.7547 58.9012 45.7547C59.1321 45.8313 59.5172 45.9844 59.6326 46.5588C59.7482 47.0564 58.9012 47.5542 58.4777 47.1331C58.5162 47.0947 58.5547 47.0566 58.5932 47.0566C58.7472 46.9416 58.8628 46.8267 58.7857 46.5588C58.6317 46.1375 57.9003 46.2525 57.3228 47.1331C56.8608 47.8222 57.5538 49.1241 58.0542 49.5835C58.3623 49.2772 58.5547 49.2006 58.7857 49.4303C59.1321 49.775 58.8627 50.0047 58.5932 50.2727C58.4007 50.4641 58.2082 50.6556 58.2082 50.8853C58.3237 50.7705 58.8627 50.6939 59.0937 51.1916C59.2477 51.498 58.9782 51.7277 58.6702 51.9957C58.4007 52.2255 58.1313 52.4552 58.0542 52.7997C58.1697 52.7997 58.5547 53.0678 58.4777 53.5272C58.4007 54.0633 57.8618 54.2164 57.2843 54.4078C56.7453 54.561 56.2064 54.7525 55.8598 55.2502L56.8608 56.2457C57.0918 56.4755 57.8618 56.0925 57.8618 55.5182C57.9003 55.5566 57.9387 55.6331 57.9772 55.6714C58.1313 55.8628 58.2467 56.0542 58.1697 56.3605C57.9772 56.9349 57.4382 56.82 57.2072 56.82C57.1688 56.82 57.1688 56.82 57.1303 56.82C57.1303 56.82 57.1688 56.8583 57.2457 56.8583C57.3998 56.9349 57.6308 57.0114 57.8618 57.2411C58.2082 57.5092 58.3237 57.8538 58.3237 58.0452Z" fill="#8F9CBB"/>
<path d="M69.1798 34.0382C69.0258 33.8851 68.7178 33.7318 68.3714 33.7318C68.0634 33.7318 67.8324 33.8468 67.6785 33.8851C67.6014 33.9233 67.5629 33.9233 67.5629 33.9233L67.6014 33.8851C67.7554 33.7701 68.2173 33.4255 67.9478 32.8895C67.7939 32.5832 67.5629 32.5449 67.3319 32.5066C67.2549 32.5066 67.2165 32.5066 67.1395 32.4684C67.5629 32.8895 67.2549 33.6935 66.947 33.6935H65.5226C65.407 33.1193 65.6765 32.5832 65.946 32.0854C66.2155 31.5494 66.485 31.0517 66.1385 30.6305C65.869 30.2476 65.3685 30.3624 65.33 30.4391C65.1375 30.171 65.176 29.7882 65.176 29.4435C65.2146 29.0607 65.2146 28.716 64.9065 28.6012C64.4061 28.448 64.0982 28.8693 64.0982 29.0224C63.9441 28.8693 63.9441 28.5629 63.9441 28.2949C63.9441 27.9121 63.9826 27.5674 63.4821 27.5674C63.1357 27.5674 63.0587 27.7588 63.0587 28.1801C62.3657 28.1801 60.9798 27.7588 60.7873 26.9548C60.5948 25.921 60.9798 25.3085 61.4033 25.5382C61.6728 25.653 61.6342 25.8445 61.6342 26.0359C61.6342 26.0742 61.6342 26.1124 61.6342 26.1507C62.2502 26.1507 62.4812 25.1935 62.0577 24.9255C61.5572 24.581 61.1723 24.7724 60.9413 24.8873C60.9028 24.9255 60.8643 24.9255 60.8257 24.9255C60.9028 24.7724 60.9798 24.4279 60.8257 24.1215C60.6718 23.7769 60.3638 23.3557 60.2098 23.3174C60.0559 24.2746 60.0174 26.4188 60.2098 26.9932C60.3638 27.4526 60.5948 27.6823 60.7103 27.8738C60.7488 27.9504 60.7873 27.9886 60.8257 28.0269C60.2098 28.0269 59.7864 28.448 59.7864 28.448C59.7864 28.448 60.4023 28.8693 60.8257 28.6395C60.8257 28.6395 60.0174 29.6733 60.0174 30.6688C60.0174 31.4729 60.1713 31.8174 60.2098 31.894C60.2483 31.4729 60.3638 31.2813 60.6333 31.0899C60.8257 31.2432 61.4033 31.5112 62.0577 31.5112C62.4042 31.5112 62.6352 31.4346 62.7892 31.358C63.0202 31.2815 63.2126 31.2048 63.6746 31.3197C64.1366 31.4346 64.4831 31.626 64.637 31.7026C64.6756 31.7026 64.6756 31.7409 64.6756 31.7409C64.637 31.7026 64.637 31.626 64.5986 31.5494C64.4831 31.2048 64.3291 30.7071 63.6362 30.7071C63.6362 30.7071 64.0211 30.4774 63.8287 30.2859C63.4052 29.8647 62.7507 30.3624 62.5967 30.4774C62.7892 30.0562 62.5967 29.7116 62.4042 29.6733C61.7882 29.4818 61.5957 29.8647 61.5957 30.0944C61.7882 30.0179 62.0192 30.0562 62.0192 30.2859C62.0192 30.8985 60.9798 30.8985 60.7873 30.7071C60.6333 30.554 60.5948 29.4818 61.2108 29.0607C61.8267 28.6395 63.2511 28.8693 64.0982 29.6733C64.9065 30.4774 65.1375 30.8985 65.33 31.7026C65.4841 32.3535 64.9836 33.349 64.7141 33.7318H63.6746C63.0587 33.5404 63.0972 33.0427 63.2511 32.6981C63.3667 32.4684 63.6746 32.5832 63.9056 32.6598C63.9826 32.6981 64.0596 32.6981 64.0982 32.6981C64.0982 31.894 63.2126 31.7409 62.8662 32.0854C62.5967 32.3535 62.6737 32.8129 62.7506 33.1958C62.6352 32.9279 62.3657 32.5832 62.0192 32.5066C61.5187 32.3535 61.2493 32.3152 61.2108 32.3152C61.2108 32.5832 61.2493 33.1576 61.4033 33.349C61.5572 33.5021 61.8652 33.6935 62.0192 33.7701C61.7498 33.617 61.1338 33.3873 60.7873 33.5787C60.7103 33.617 60.5948 33.6552 60.5178 33.7318C60.2483 33.885 59.9403 33.9999 59.7864 34.1147C59.9018 34.1913 60.1713 34.3062 60.4023 34.421C60.5564 34.4976 60.6718 34.5359 60.8257 34.6124C61.1723 34.7657 61.7882 34.5359 62.0577 34.421C61.9037 34.4976 61.5957 34.6507 61.4418 34.8423C61.2877 34.9954 61.2493 35.608 61.2493 35.876C61.3262 35.876 61.5957 35.8377 62.0577 35.6846C62.4042 35.5697 62.6352 35.2634 62.7892 34.9954C62.6737 35.3782 62.6352 35.876 62.9047 36.1057C63.2511 36.4504 64.1366 36.2971 64.1366 35.4932C64.0982 35.4932 64.0211 35.5315 63.9441 35.5315C63.7131 35.608 63.4052 35.7229 63.2897 35.4932C63.1357 35.1485 63.0972 34.6891 63.7131 34.4593H64.7526C65.0221 34.8805 65.5226 35.8377 65.3685 36.4887C65.176 37.2927 64.9451 37.7138 64.1366 38.5179C63.3282 39.3219 61.8652 39.5517 61.2493 39.1305C60.6333 38.7093 60.7103 37.6373 60.8257 37.4841C61.0183 37.2927 62.0577 37.2927 62.0577 37.9053C62.0577 38.1733 61.8652 38.1733 61.6342 38.0968C61.6342 38.2882 61.8267 38.7093 62.4427 38.5179C62.6352 38.4413 62.8662 38.0968 62.6352 37.7138C62.7892 37.867 63.4436 38.3265 63.8672 37.9053C64.0596 37.7138 63.6746 37.4841 63.6746 37.4841C64.3677 37.4841 64.5216 36.9863 64.637 36.6418C64.6756 36.5652 64.6756 36.5269 64.7141 36.4504C64.7141 36.4504 64.6756 36.4504 64.6756 36.4887C64.5216 36.5652 64.1367 36.7566 63.7131 36.8715C63.2511 36.9863 63.0587 36.9098 62.8277 36.8332C62.6352 36.7566 62.4427 36.6801 62.0962 36.6801C61.4418 36.6801 60.8643 36.9481 60.6718 37.1012C60.4023 36.9098 60.2869 36.7184 60.2483 36.2971C60.1713 36.3738 60.0559 36.7184 60.0559 37.5224C60.0559 38.5562 60.8643 39.5517 60.8643 39.5517C60.4408 39.3602 59.8249 39.7432 59.8249 39.7432C59.8249 39.7432 60.2483 40.1643 60.8643 40.1643C60.8643 40.2026 60.7873 40.2409 60.7488 40.3174C60.5948 40.4706 60.4023 40.7387 60.2483 41.1981C60.0559 41.7724 60.0944 43.9165 60.2483 44.8738C60.4023 44.7971 60.7103 44.376 60.8643 44.0697C61.0183 43.7251 60.9413 43.3805 60.8643 43.2657C60.9028 43.2657 60.9413 43.304 60.9798 43.304C61.2108 43.4188 61.5957 43.572 62.0962 43.2657C62.5197 42.9976 62.2887 42.0404 61.6728 42.0404C61.6728 42.0787 61.6728 42.117 61.6728 42.1553C61.7113 42.3085 61.7113 42.4999 61.4418 42.653C61.0183 42.8445 60.6333 42.2318 60.8257 41.2363C60.9798 40.4323 62.4042 40.0112 63.0972 40.0112C63.0972 40.4323 63.1742 40.6238 63.5206 40.6238C63.9826 40.6238 63.9826 40.2791 63.9826 39.8963C63.9826 39.6282 63.9826 39.3602 64.1366 39.1688C64.1366 39.322 64.4831 39.7432 64.9451 39.5899C65.2916 39.4751 65.2531 39.1305 65.2146 38.7476C65.176 38.403 65.176 38.0585 65.3685 37.7521C65.4455 37.8287 65.9075 37.9052 66.177 37.5607C66.485 37.1395 66.254 36.6418 65.9845 36.1057C65.7536 35.608 65.4841 35.0719 65.561 34.4976H66.9855C67.3319 34.4976 67.6014 35.3017 67.178 35.7229C67.2549 35.7229 67.2934 35.6846 67.3704 35.6846C67.6014 35.6463 67.8324 35.608 67.9864 35.3017C68.2559 34.7657 67.7939 34.4593 67.6399 34.3062C67.6014 34.3062 67.6014 34.2679 67.6014 34.2679C67.6399 34.2679 67.6785 34.2679 67.7169 34.3062C67.8709 34.3827 68.1404 34.4593 68.4099 34.4593C68.7178 34.3062 69.0258 34.153 69.1798 34.0382Z" fill="#8F9CBB"/>
<path d="M78.0469 54.0654V49.5132H81.6682V54.0654H80.7004V50.3166H79.0147V54.0654H78.0469Z" fill="#8F9CBB"/>
<path d="M85.9249 52.3185C85.9249 52.8966 85.771 53.3429 85.4633 53.6574C85.16 53.9719 84.7454 54.1292 84.2199 54.1292C83.8951 54.1292 83.6047 54.0591 83.3483 53.9189C83.0961 53.7786 82.8975 53.5746 82.7522 53.3068C82.6069 53.0348 82.5342 52.7053 82.5342 52.3185C82.5342 51.7405 82.6859 51.2963 82.9893 50.9861C83.2927 50.6758 83.7093 50.5206 84.2392 50.5206C84.5681 50.5206 84.8587 50.5908 85.1108 50.7309C85.363 50.8713 85.5617 51.0753 85.7069 51.3431C85.8522 51.6066 85.9249 51.9317 85.9249 52.3185ZM83.5085 52.3185C83.5085 52.6628 83.564 52.9243 83.6751 53.1028C83.7905 53.277 83.9764 53.3641 84.2328 53.3641C84.4848 53.3641 84.6665 53.277 84.7776 53.1028C84.8929 52.9243 84.9506 52.6628 84.9506 52.3185C84.9506 51.9742 84.8929 51.7171 84.7776 51.5471C84.6665 51.3729 84.4827 51.2857 84.2263 51.2857C83.9742 51.2857 83.7905 51.3729 83.6751 51.5471C83.564 51.7171 83.5085 51.9742 83.5085 52.3185Z" fill="#8F9CBB"/>
<path d="M89.8163 51.4961C89.8163 51.6831 89.7564 51.8425 89.6369 51.9742C89.5215 52.106 89.3484 52.191 89.1177 52.2293V52.2548C89.3612 52.2845 89.5557 52.3675 89.7009 52.5035C89.8505 52.6395 89.9253 52.8137 89.9253 53.0263C89.9253 53.226 89.8719 53.4046 89.765 53.5618C89.6625 53.7191 89.498 53.8423 89.2715 53.9316C89.045 54.0209 88.7481 54.0654 88.3806 54.0654H86.7141V50.5843H88.3806C88.6541 50.5843 88.8976 50.6141 89.1112 50.6736C89.3292 50.7289 89.5002 50.8224 89.624 50.9541C89.7522 51.0859 89.8163 51.2666 89.8163 51.4961ZM88.8485 51.5726C88.8485 51.3601 88.6797 51.2537 88.3422 51.2537H87.6692V51.9424H88.2332C88.434 51.9424 88.5857 51.9147 88.6882 51.8595C88.795 51.8 88.8485 51.7044 88.8485 51.5726ZM88.9383 52.9753C88.9383 52.8392 88.8848 52.7415 88.7779 52.682C88.6712 52.6182 88.5109 52.5863 88.2973 52.5863H87.6692V53.4088H88.3165C88.496 53.4088 88.6433 53.3769 88.7588 53.3131C88.8784 53.2451 88.9383 53.1325 88.9383 52.9753Z" fill="#8F9CBB"/>
<path d="M90.7451 54.0654V50.5843H91.7002V51.9297H92.1616C92.6958 51.9297 93.091 52.0147 93.3474 52.1847C93.6038 52.3547 93.732 52.6118 93.732 52.9561C93.732 53.2919 93.6123 53.5618 93.373 53.7658C93.1337 53.9656 92.7406 54.0654 92.1937 54.0654H90.7451ZM94.2382 54.0654V50.5843H95.1933V54.0654H94.2382ZM92.1424 53.4088C92.3304 53.4088 92.4821 53.3748 92.5974 53.3068C92.7171 53.2388 92.7769 53.1261 92.7769 52.9688C92.7769 52.7138 92.5612 52.5863 92.1295 52.5863H91.7002V53.4088H92.1424Z" fill="#8F9CBB"/>
<path d="M101.402 50.5843V54.0654H96.1908V50.5843H97.1457V53.3514H98.3188V50.5843H99.2737V53.3514H100.447V50.5843H101.402Z" fill="#8F9CBB"/>
<path d="M103.842 50.5206C104.325 50.5206 104.707 50.6588 104.989 50.9351C105.271 51.2071 105.412 51.5959 105.412 52.1017V52.5608H103.156C103.165 52.8286 103.244 53.039 103.393 53.192C103.547 53.345 103.759 53.4216 104.028 53.4216C104.254 53.4216 104.46 53.4003 104.643 53.3578C104.827 53.311 105.017 53.2409 105.214 53.1474V53.8806C105.043 53.9656 104.861 54.0272 104.669 54.0654C104.481 54.1081 104.252 54.1292 103.983 54.1292C103.633 54.1292 103.323 54.0654 103.054 53.9379C102.784 53.8062 102.573 53.6086 102.419 53.345C102.265 53.0815 102.188 52.75 102.188 52.3504C102.188 51.9424 102.257 51.6044 102.393 51.3367C102.535 51.0646 102.729 50.8606 102.977 50.7246C103.225 50.5886 103.513 50.5206 103.842 50.5206ZM103.848 51.1964C103.665 51.1964 103.511 51.2559 103.387 51.3749C103.267 51.4939 103.197 51.6789 103.175 51.9297H104.515C104.511 51.7171 104.455 51.5429 104.348 51.4069C104.242 51.2666 104.075 51.1964 103.848 51.1964Z" fill="#8F9CBB"/>
<path d="M107.142 50.5843V51.9232H108.475V50.5843H109.43V54.0654H108.475V52.631H107.142V54.0654H106.187V50.5843H107.142Z" fill="#8F9CBB"/>
<path d="M111.354 51.9615C111.354 52.0337 111.349 52.123 111.341 52.2293C111.336 52.3355 111.33 52.444 111.322 52.5545C111.317 52.665 111.311 52.7627 111.302 52.8477C111.294 52.9328 111.287 52.9923 111.283 53.0263L112.898 50.5843H114.046V54.0654H113.123V52.6756C113.123 52.5608 113.127 52.4355 113.135 52.2994C113.144 52.1592 113.153 52.0295 113.161 51.9105C113.174 51.7872 113.182 51.6937 113.187 51.63L111.578 54.0654H110.431V50.5843H111.354V51.9615Z" fill="#8F9CBB"/>
<path d="M116.485 50.5206C116.969 50.5206 117.352 50.6588 117.633 50.9351C117.916 51.2071 118.056 51.5959 118.056 52.1017V52.5608H115.799C115.809 52.8286 115.887 53.039 116.038 53.192C116.191 53.345 116.402 53.4216 116.671 53.4216C116.898 53.4216 117.103 53.4003 117.287 53.3578C117.471 53.311 117.66 53.2409 117.857 53.1474V53.8806C117.687 53.9656 117.505 54.0272 117.313 54.0654C117.125 54.1081 116.896 54.1292 116.627 54.1292C116.277 54.1292 115.967 54.0654 115.697 53.9379C115.428 53.8062 115.217 53.6086 115.063 53.345C114.91 53.0815 114.832 52.75 114.832 52.3504C114.832 51.9424 114.9 51.6044 115.037 51.3367C115.178 51.0646 115.372 50.8606 115.621 50.7246C115.868 50.5886 116.157 50.5206 116.485 50.5206ZM116.492 51.1964C116.309 51.1964 116.155 51.2559 116.031 51.3749C115.911 51.4939 115.841 51.6789 115.819 51.9297H117.159C117.154 51.7171 117.099 51.5429 116.993 51.4069C116.885 51.2666 116.719 51.1964 116.492 51.1964Z" fill="#8F9CBB"/>
<path d="M123.04 50.5653C123.648 50.6163 124.111 50.8011 124.432 51.1199C124.752 51.4344 124.912 51.8361 124.912 52.3249C124.912 52.8137 124.756 53.2175 124.444 53.5363C124.132 53.8551 123.665 54.04 123.04 54.0911V55.5957H122.156V54.0911C121.553 54.0358 121.088 53.8488 120.759 53.53C120.434 53.2111 120.271 52.8095 120.271 52.3249C120.271 51.8276 120.423 51.4217 120.727 51.1071C121.035 50.7884 121.511 50.6078 122.156 50.5653V49.22H123.04V50.5653ZM122.156 51.2793C121.878 51.3176 121.658 51.4324 121.496 51.6236C121.333 51.8149 121.252 52.0487 121.252 52.3249C121.252 52.6097 121.331 52.8478 121.489 53.039C121.648 53.226 121.87 53.3365 122.156 53.3706V51.2793ZM123.04 53.3706C123.326 53.3365 123.547 53.226 123.701 53.039C123.855 52.8478 123.931 52.6097 123.931 52.3249C123.931 52.0487 123.853 51.817 123.694 51.63C123.536 51.4387 123.318 51.3261 123.04 51.2921V53.3706Z" fill="#8F9CBB"/>
<path d="M126.626 51.9615C126.626 52.0337 126.622 52.123 126.614 52.2293C126.609 52.3355 126.602 52.444 126.594 52.5545C126.59 52.665 126.583 52.7627 126.575 52.8477C126.566 52.9328 126.56 52.9923 126.556 53.0263L128.17 50.5843H129.318V54.0654H128.395V52.6756C128.395 52.5608 128.399 52.4355 128.409 52.2994C128.416 52.1592 128.426 52.0295 128.434 51.9105C128.446 51.7872 128.455 51.6937 128.46 51.63L126.851 54.0654H125.703V50.5843H126.626V51.9615Z" fill="#8F9CBB"/>
<path d="M131.271 50.5843V51.9232H132.604V50.5843H133.559V54.0654H132.604V52.631H131.271V54.0654H130.316V50.5843H131.271Z" fill="#8F9CBB"/>
<path d="M135.995 50.5143C136.466 50.5143 136.825 50.6163 137.072 50.8203C137.324 51.0201 137.451 51.3282 137.451 51.7447V54.0654H136.784L136.598 53.5937H136.573C136.423 53.7807 136.266 53.9167 136.098 54.0017C135.932 54.0867 135.703 54.1292 135.412 54.1292C135.101 54.1292 134.842 54.0399 134.637 53.8614C134.432 53.6787 134.329 53.4003 134.329 53.0263C134.329 52.6565 134.459 52.3845 134.72 52.2102C134.981 52.0317 135.372 51.9339 135.893 51.9169L136.503 51.8977V51.7447C136.503 51.5619 136.454 51.4281 136.354 51.3431C136.261 51.2581 136.129 51.2156 135.958 51.2156C135.787 51.2156 135.619 51.2411 135.458 51.2921C135.295 51.3388 135.133 51.3984 134.97 51.4706L134.657 50.8266C134.845 50.7289 135.052 50.6524 135.278 50.5971C135.509 50.5418 135.748 50.5143 135.995 50.5143ZM136.13 52.4652C135.822 52.4737 135.609 52.529 135.49 52.631C135.37 52.733 135.309 52.8668 135.309 53.0326C135.309 53.1771 135.353 53.2813 135.438 53.345C135.524 53.4046 135.634 53.4343 135.771 53.4343C135.976 53.4343 136.149 53.3748 136.291 53.2558C136.432 53.1325 136.503 52.9603 136.503 52.7393V52.4525L136.13 52.4652Z" fill="#8F9CBB"/>
<path d="M139.383 50.5843V51.9232H140.717V50.5843H141.672V54.0654H140.717V52.631H139.383V54.0654H138.428V50.5843H139.383Z" fill="#8F9CBB"/>
<path d="M144.095 54.1292C143.573 54.1292 143.17 53.9869 142.884 53.7021C142.601 53.4131 142.46 52.9603 142.46 52.344C142.46 51.919 142.533 51.5726 142.679 51.3048C142.824 51.0371 143.024 50.8394 143.281 50.7119C143.542 50.5843 143.841 50.5206 144.179 50.5206C144.418 50.5206 144.625 50.5439 144.8 50.5908C144.98 50.6374 145.136 50.6928 145.268 50.7564L144.986 51.4897C144.836 51.4302 144.696 51.3814 144.563 51.3431C144.435 51.3048 144.306 51.2857 144.179 51.2857C143.683 51.2857 143.434 51.6364 143.434 52.3377C143.434 52.6862 143.499 52.9433 143.627 53.1091C143.759 53.2749 143.944 53.3578 144.179 53.3578C144.379 53.3578 144.557 53.3323 144.711 53.2813C144.865 53.226 145.014 53.1516 145.159 53.0581V53.8679C145.014 53.9614 144.86 54.0272 144.697 54.0654C144.54 54.1081 144.338 54.1292 144.095 54.1292Z" fill="#8F9CBB"/>
<path d="M149.143 52.3185C149.143 52.8966 148.99 53.3429 148.682 53.6574C148.379 53.9719 147.964 54.1292 147.439 54.1292C147.114 54.1292 146.823 54.0591 146.567 53.9189C146.315 53.7786 146.116 53.5746 145.971 53.3068C145.825 53.0348 145.753 52.7053 145.753 52.3185C145.753 51.7405 145.905 51.2963 146.208 50.9861C146.511 50.6758 146.928 50.5206 147.458 50.5206C147.787 50.5206 148.078 50.5908 148.33 50.7309C148.582 50.8713 148.78 51.0753 148.926 51.3431C149.07 51.6066 149.143 51.9317 149.143 52.3185ZM146.728 52.3185C146.728 52.6628 146.782 52.9243 146.894 53.1028C147.009 53.277 147.195 53.3641 147.451 53.3641C147.703 53.3641 147.885 53.277 147.996 53.1028C148.112 52.9243 148.169 52.6628 148.169 52.3185C148.169 51.9742 148.112 51.7171 147.996 51.5471C147.885 51.3729 147.702 51.2857 147.446 51.2857C147.193 51.2857 147.009 51.3729 146.894 51.5471C146.782 51.7171 146.728 51.9742 146.728 52.3185Z" fill="#8F9CBB"/>
<path d="M153.035 51.4961C153.035 51.6831 152.976 51.8425 152.856 51.9742C152.74 52.106 152.568 52.191 152.336 52.2293V52.2548C152.58 52.2845 152.774 52.3675 152.92 52.5035C153.069 52.6395 153.144 52.8137 153.144 53.0263C153.144 53.226 153.091 53.4046 152.984 53.5618C152.881 53.7191 152.717 53.8423 152.49 53.9316C152.263 54.0209 151.967 54.0654 151.599 54.0654H149.933V50.5843H151.599C151.873 50.5843 152.116 50.6141 152.33 50.6736C152.548 50.7289 152.719 50.8224 152.842 50.9541C152.971 51.0859 153.035 51.2666 153.035 51.4961ZM152.067 51.5726C152.067 51.3601 151.899 51.2537 151.56 51.2537H150.888V51.9424H151.452C151.653 51.9424 151.804 51.9147 151.907 51.8595C152.014 51.8 152.067 51.7044 152.067 51.5726ZM152.157 52.9753C152.157 52.8392 152.104 52.7415 151.997 52.682C151.89 52.6182 151.73 52.5863 151.516 52.5863H150.888V53.4088H151.535C151.714 53.4088 151.862 53.3769 151.977 53.3131C152.097 53.2451 152.157 53.1325 152.157 52.9753Z" fill="#8F9CBB"/>
<path d="M157.143 52.3185C157.143 52.8966 156.989 53.3429 156.682 53.6574C156.378 53.9719 155.964 54.1292 155.438 54.1292C155.114 54.1292 154.823 54.0591 154.567 53.9189C154.315 53.7786 154.115 53.5746 153.971 53.3068C153.825 53.0348 153.753 52.7053 153.753 52.3185C153.753 51.7405 153.904 51.2963 154.208 50.9861C154.511 50.6758 154.928 50.5206 155.458 50.5206C155.786 50.5206 156.076 50.5908 156.329 50.7309C156.581 50.8713 156.78 51.0753 156.925 51.3431C157.07 51.6066 157.143 51.9317 157.143 52.3185ZM154.727 52.3185C154.727 52.6628 154.782 52.9243 154.894 53.1028C155.009 53.277 155.194 53.3641 155.451 53.3641C155.703 53.3641 155.885 53.277 155.996 53.1028C156.111 52.9243 156.169 52.6628 156.169 52.3185C156.169 51.9742 156.111 51.7171 155.996 51.5471C155.885 51.3729 155.7 51.2857 155.444 51.2857C155.192 51.2857 155.009 51.3729 154.894 51.5471C154.782 51.7171 154.727 51.9742 154.727 52.3185Z" fill="#8F9CBB"/>
<path d="M161.284 49.086C161.264 49.307 161.201 49.5026 161.098 49.6726C160.996 49.8383 160.836 49.968 160.617 50.0615C160.4 50.1551 160.107 50.2018 159.74 50.2018C159.364 50.2018 159.069 50.1571 158.856 50.068C158.646 49.9745 158.497 49.8448 158.407 49.679C158.317 49.5132 158.263 49.3155 158.246 49.086H159.098C159.12 49.3198 159.181 49.475 159.279 49.5515C159.377 49.628 159.537 49.6663 159.759 49.6663C159.943 49.6663 160.092 49.6258 160.207 49.5451C160.327 49.4601 160.398 49.307 160.419 49.086H161.284ZM158.856 51.9615C158.856 52.0337 158.851 52.123 158.842 52.2293C158.839 52.3355 158.832 52.444 158.823 52.5545C158.819 52.665 158.812 52.7627 158.804 52.8477C158.795 52.9328 158.789 52.9923 158.785 53.0263L160.4 50.5843H161.547V54.0654H160.624V52.6756C160.624 52.5608 160.629 52.4355 160.637 52.2994C160.646 52.1592 160.654 52.0295 160.663 51.9105C160.676 51.7872 160.684 51.6937 160.688 51.63L159.079 54.0654H157.933V50.5843H158.856V51.9615Z" fill="#8F9CBB"/>
<path d="M166.614 50.5843V51.2984H165.153V54.0654H164.198V50.5843H166.614Z" fill="#8F9CBB"/>
<path d="M169.207 50.5206C169.6 50.5206 169.918 50.6736 170.162 50.9796C170.406 51.2814 170.528 51.7277 170.528 52.3185C170.528 52.9093 170.402 53.3599 170.15 53.6702C169.897 53.9762 169.574 54.1292 169.181 54.1292C168.929 54.1292 168.729 54.0846 168.579 53.9954C168.429 53.9019 168.308 53.7977 168.214 53.6829H168.162C168.197 53.8614 168.214 54.0314 168.214 54.1931V55.5957H167.259V50.5843H168.035L168.169 51.0371H168.214C168.308 50.8968 168.434 50.7756 168.592 50.6736C168.75 50.5716 168.955 50.5206 169.207 50.5206ZM168.9 51.2793C168.651 51.2793 168.477 51.3558 168.374 51.5089C168.275 51.6619 168.223 51.8957 168.214 52.2102V52.3122C168.214 52.648 168.263 52.9073 168.361 53.09C168.463 53.2685 168.648 53.3578 168.912 53.3578C169.13 53.3578 169.29 53.2685 169.393 53.09C169.5 52.9073 169.554 52.6458 169.554 52.3058C169.554 51.6215 169.335 51.2793 168.9 51.2793Z" fill="#8F9CBB"/>
<path d="M81.745 45.7494H80.6363L79.5723 44.0279L78.5083 45.7494H77.47L78.989 43.4031L77.5661 41.197H78.6365L79.6236 42.8356L80.5914 41.197H81.6361L80.2004 43.4541L81.745 45.7494Z" fill="#8F9CBB"/>
<path d="M84.0013 42.1981C84.4714 42.1981 84.8302 42.3001 85.078 42.5041C85.3302 42.7039 85.4563 43.0121 85.4563 43.4286V45.7494H84.7896L84.6038 45.2776H84.5781C84.4286 45.4646 84.2705 45.6006 84.1039 45.6856C83.9371 45.7706 83.7085 45.8131 83.418 45.8131C83.1061 45.8131 82.8475 45.7238 82.6424 45.5453C82.4374 45.3626 82.3348 45.0841 82.3348 44.7101C82.3348 44.3403 82.4651 44.0683 82.7258 43.894C82.9864 43.7155 83.3774 43.6177 83.8987 43.6007L84.5076 43.5815V43.4286C84.5076 43.2457 84.4585 43.1119 84.3603 43.0269C84.2662 42.9419 84.1337 42.8994 83.9628 42.8994C83.7919 42.8994 83.6252 42.9249 83.4629 42.9759C83.3005 43.0227 83.1381 43.0822 82.9757 43.1544L82.6617 42.5104C82.8497 42.4127 83.057 42.3362 83.2834 42.2809C83.5141 42.2256 83.7534 42.1981 84.0013 42.1981ZM84.1359 44.149C83.8282 44.1575 83.6145 44.2128 83.4949 44.3148C83.3752 44.4168 83.3154 44.5507 83.3154 44.7165C83.3154 44.861 83.3581 44.9651 83.4436 45.0289C83.5291 45.0884 83.6402 45.1181 83.7769 45.1181C83.982 45.1181 84.1551 45.0586 84.2961 44.9396C84.4372 44.8163 84.5076 44.6442 84.5076 44.4232V44.1363L84.1359 44.149Z" fill="#8F9CBB"/>
<path d="M89.8885 45.7494H88.9334V42.9822H88.0554C87.9998 43.6624 87.9251 44.2107 87.8311 44.6272C87.7414 45.0395 87.6152 45.3413 87.4528 45.5326C87.2906 45.7196 87.0726 45.8131 86.7991 45.8131C86.5769 45.8131 86.3953 45.7791 86.2543 45.7111V44.9523C86.3526 44.9949 86.4552 45.0161 86.562 45.0161C86.6389 45.0161 86.7094 44.9778 86.7734 44.9013C86.8376 44.8248 86.8974 44.6867 86.9529 44.487C87.0128 44.2872 87.0662 44.0088 87.1131 43.6517C87.1602 43.2904 87.2029 42.8292 87.2413 42.2682H89.8885V45.7494Z" fill="#8F9CBB"/>
<path d="M91.2058 45.7494V42.2682H92.1607V43.6135H92.6222C93.1563 43.6135 93.5517 43.6985 93.8081 43.8685C94.0644 44.0385 94.1926 44.2957 94.1926 44.64C94.1926 44.9758 94.073 45.2456 93.8337 45.4496C93.5944 45.6494 93.2012 45.7494 92.6543 45.7494H91.2058ZM94.6989 45.7494V42.2682H95.654V45.7494H94.6989ZM92.603 45.0926C92.791 45.0926 92.9428 45.0586 93.0581 44.9906C93.1778 44.9226 93.2376 44.81 93.2376 44.6527C93.2376 44.3977 93.0218 44.2702 92.5902 44.2702H92.1607V45.0926H92.603Z" fill="#8F9CBB"/>
<path d="M99.7857 46.999V45.7494H99.3562L97.9269 43.9832V45.7494H96.9719V42.2682H97.9269V43.9577L99.2665 42.2682H100.318L98.9332 43.9387L99.8626 45.0544H100.645V46.999H99.7857Z" fill="#8F9CBB"/>
<path d="M104.452 42.9822H103.305V45.7494H102.35V42.9822H101.202V42.2682H104.452V42.9822Z" fill="#8F9CBB"/>
<path d="M105.418 45.7494V42.2682H106.373V43.6135H106.835C107.369 43.6135 107.764 43.6985 108.02 43.8685C108.277 44.0385 108.405 44.2957 108.405 44.64C108.405 44.9758 108.285 45.2456 108.046 45.4496C107.807 45.6494 107.414 45.7494 106.867 45.7494H105.418ZM108.911 45.7494V42.2682H109.866V45.7494H108.911ZM106.816 45.0926C107.004 45.0926 107.155 45.0586 107.271 44.9906C107.39 44.9226 107.45 44.81 107.45 44.6527C107.45 44.3977 107.234 44.2702 106.803 44.2702H106.373V45.0926H106.816Z" fill="#8F9CBB"/>
<path d="M114.434 46.999V45.7494H113.472V44.3148H112.139V45.7494H111.184V42.2682H112.139V43.6071H113.472V42.2682H114.428V45.0544H115.292V46.999H114.434Z" fill="#8F9CBB"/>
<path d="M121.055 46.999V45.7494H120.626L119.197 43.9832V45.7494H118.24V42.2682H119.197V43.9577L120.536 42.2682H121.587L120.203 43.9387L121.131 45.0544H121.913V46.999H121.055Z" fill="#8F9CBB"/>
<path d="M124.26 42.1981C124.73 42.1981 125.089 42.3001 125.336 42.5041C125.588 42.7039 125.715 43.0121 125.715 43.4286V45.7494H125.048L124.862 45.2776H124.836C124.687 45.4646 124.528 45.6006 124.362 45.6856C124.196 45.7706 123.967 45.8131 123.676 45.8131C123.365 45.8131 123.106 45.7238 122.901 45.5453C122.696 45.3626 122.594 45.0841 122.594 44.7101C122.594 44.3403 122.723 44.0683 122.984 43.894C123.245 43.7155 123.636 43.6177 124.157 43.6007L124.767 43.5815V43.4286C124.767 43.2457 124.716 43.1119 124.618 43.0269C124.525 42.9419 124.392 42.8994 124.221 42.8994C124.05 42.8994 123.883 42.9249 123.722 42.9759C123.559 43.0227 123.397 43.0822 123.234 43.1544L122.921 42.5104C123.109 42.4127 123.316 42.3362 123.542 42.2809C123.773 42.2256 124.012 42.1981 124.26 42.1981ZM124.394 44.149C124.086 44.1575 123.873 44.2128 123.754 44.3148C123.634 44.4168 123.574 44.5507 123.574 44.7165C123.574 44.861 123.617 44.9651 123.702 45.0289C123.788 45.0884 123.898 45.1181 124.035 45.1181C124.24 45.1181 124.413 45.0586 124.555 44.9396C124.696 44.8163 124.767 44.6442 124.767 44.4232V44.1363L124.394 44.149Z" fill="#8F9CBB"/>
<path d="M128.961 42.2044C129.354 42.2044 129.672 42.3574 129.916 42.6634C130.16 42.9652 130.282 43.4115 130.282 44.0024C130.282 44.5932 130.155 45.0438 129.904 45.3541C129.652 45.6601 129.328 45.8131 128.935 45.8131C128.683 45.8131 128.483 45.7684 128.333 45.6792C128.184 45.5857 128.062 45.4816 127.968 45.3668H127.916C127.95 45.5453 127.968 45.7153 127.968 45.8769V47.2795H127.013V42.2682H127.789L127.923 42.7209H127.968C128.062 42.5806 128.187 42.4594 128.346 42.3574C128.504 42.2554 128.709 42.2044 128.961 42.2044ZM128.654 42.9631C128.406 42.9631 128.231 43.0397 128.128 43.1927C128.03 43.3457 127.977 43.5795 127.968 43.894V43.996C127.968 44.3318 128.017 44.5911 128.116 44.7738C128.218 44.9523 128.402 45.0416 128.666 45.0416C128.885 45.0416 129.044 44.9523 129.147 44.7738C129.254 44.5911 129.308 44.3297 129.308 43.9897C129.308 43.3054 129.089 42.9631 128.654 42.9631Z" fill="#8F9CBB"/>
<path d="M136.238 42.2682L134.949 43.9387L136.359 45.7494H135.34L134.007 43.9832V45.7494H133.116V43.9832L131.783 45.7494H130.764L132.175 43.9387L130.886 42.2682H131.873L133.116 43.9577V42.2682H134.007V43.9577L135.25 42.2682H136.238Z" fill="#8F9CBB"/>
<path d="M137.181 45.7494V42.2682H138.136V43.6135H138.597C139.13 43.6135 139.526 43.6985 139.782 43.8685C140.039 44.0385 140.167 44.2957 140.167 44.64C140.167 44.9758 140.048 45.2456 139.808 45.4496C139.569 45.6494 139.176 45.7494 138.629 45.7494H137.181ZM140.673 45.7494V42.2682H141.628V45.7494H140.673ZM138.578 45.0926C138.766 45.0926 138.917 45.0586 139.032 44.9906C139.152 44.9226 139.212 44.81 139.212 44.6527C139.212 44.3977 138.996 44.2702 138.565 44.2702H138.136V45.0926H138.578Z" fill="#8F9CBB"/>
<path d="M146.08 45.7494H145.125V42.9822H144.247C144.192 43.6624 144.117 44.2107 144.024 44.6272C143.934 45.0395 143.807 45.3413 143.645 45.5326C143.482 45.7196 143.265 45.8131 142.991 45.8131C142.769 45.8131 142.588 45.7791 142.446 45.7111V44.9523C142.544 44.9949 142.647 45.0161 142.754 45.0161C142.83 45.0161 142.901 44.9778 142.966 44.9013C143.03 44.8248 143.089 44.6867 143.145 44.487C143.205 44.2872 143.258 44.0088 143.306 43.6517C143.352 43.2904 143.395 42.8292 143.433 42.2682H146.08V45.7494Z" fill="#8F9CBB"/>
<path d="M147.398 45.7494V42.2682H148.353V43.6135H148.814C149.349 43.6135 149.744 43.6985 150 43.8685C150.257 44.0385 150.384 44.2957 150.384 44.64C150.384 44.9758 150.265 45.2456 150.025 45.4496C149.786 45.6494 149.393 45.7494 148.846 45.7494H147.398ZM150.892 45.7494V42.2682H151.846V45.7494H150.892ZM148.795 45.0926C148.983 45.0926 149.134 45.0586 149.251 44.9906C149.37 44.9226 149.43 44.81 149.43 44.6527C149.43 44.3977 149.214 44.2702 148.782 44.2702H148.353V45.0926H148.795Z" fill="#8F9CBB"/>
<path d="M155.977 46.999V45.7494H155.549L154.119 43.9832V45.7494H153.164V42.2682H154.119V43.9577L155.459 42.2682H156.509L155.125 43.9387L156.055 45.0544H156.836V46.999H155.977Z" fill="#8F9CBB"/>
<path d="M161.143 45.8131C160.622 45.8131 160.217 45.6707 159.931 45.3859C159.65 45.0969 159.509 44.6442 159.509 44.0279C159.509 43.6029 159.582 43.2564 159.726 42.9886C159.871 42.7209 160.073 42.5232 160.329 42.3957C160.589 42.2681 160.889 42.2044 161.226 42.2044C161.465 42.2044 161.673 42.2278 161.848 42.2746C162.027 42.3213 162.183 42.3766 162.315 42.4403L162.034 43.1735C161.885 43.114 161.743 43.0652 161.611 43.0269C161.482 42.9886 161.355 42.9695 161.226 42.9695C160.73 42.9695 160.483 43.3202 160.483 44.0215C160.483 44.37 160.547 44.6272 160.674 44.793C160.808 44.9588 160.991 45.0416 161.226 45.0416C161.426 45.0416 161.604 45.0161 161.758 44.9651C161.912 44.9098 162.061 44.8355 162.207 44.742V45.5517C162.061 45.6452 161.907 45.7111 161.746 45.7494C161.587 45.7919 161.387 45.8131 161.143 45.8131Z" fill="#8F9CBB"/>
<path d="M164.769 42.1981C165.238 42.1981 165.597 42.3001 165.846 42.5041C166.098 42.7039 166.224 43.0121 166.224 43.4286V45.7494H165.557L165.37 45.2776H165.345C165.196 45.4646 165.038 45.6006 164.871 45.6856C164.705 45.7706 164.476 45.8131 164.185 45.8131C163.873 45.8131 163.614 45.7238 163.409 45.5453C163.204 45.3626 163.102 45.0841 163.102 44.7101C163.102 44.3403 163.233 44.0683 163.493 43.894C163.754 43.7155 164.144 43.6177 164.666 43.6007L165.275 43.5815V43.4286C165.275 43.2457 165.226 43.1119 165.128 43.0269C165.033 42.9419 164.901 42.8994 164.73 42.8994C164.559 42.8994 164.393 42.9249 164.23 42.9759C164.068 43.0227 163.905 43.0822 163.743 43.1544L163.429 42.5104C163.617 42.4127 163.824 42.3362 164.051 42.2809C164.281 42.2256 164.52 42.1981 164.769 42.1981ZM164.903 44.149C164.596 44.1575 164.381 44.2128 164.262 44.3148C164.142 44.4168 164.083 44.5507 164.083 44.7165C164.083 44.861 164.125 44.9651 164.21 45.0289C164.296 45.0884 164.408 45.1181 164.544 45.1181C164.749 45.1181 164.923 45.0586 165.064 44.9396C165.204 44.8163 165.275 44.6442 165.275 44.4232V44.1363L164.903 44.149Z" fill="#8F9CBB"/>
<path d="M167.022 42.2682H168.067L168.726 44.2255C168.761 44.319 168.787 44.4168 168.804 44.5188C168.821 44.6166 168.833 44.7207 168.841 44.8313H168.861C168.873 44.7207 168.89 44.6166 168.912 44.5188C168.938 44.4168 168.966 44.319 168.995 44.2255L169.643 42.2682H170.668L169.188 46.1956C169.056 46.5569 168.861 46.8269 168.604 47.0054C168.353 47.1882 168.06 47.2795 167.727 47.2795C167.62 47.2795 167.525 47.2732 167.444 47.2604C167.368 47.2519 167.3 47.2413 167.239 47.2285V46.4762C167.286 46.4847 167.342 46.4932 167.406 46.5017C167.474 46.5102 167.545 46.5144 167.618 46.5144C167.818 46.5144 167.977 46.4527 168.092 46.3295C168.211 46.2105 168.299 46.066 168.355 45.8959L168.412 45.7238L167.022 42.2682Z" fill="#8F9CBB"/>
<path d="M140.758 33.1285C140.061 34.0651 138.997 34.8388 137.564 35.531C136.172 36.2233 134.33 36.549 132.118 36.549C129.375 36.549 127.082 35.6939 125.363 33.9429C123.643 32.1919 122.742 29.993 122.742 27.2239V22.541C122.742 19.8127 123.602 17.5731 125.28 15.8221C127 14.0711 129.17 13.2159 131.873 13.2159C134.657 13.2159 136.785 13.8675 138.301 15.1706C139.774 16.4736 140.511 18.2246 140.429 20.4236L140.388 20.5049H136.09C136.09 19.2833 135.721 18.3467 135.025 17.6953C134.33 17.0437 133.305 16.6772 131.955 16.6772C130.562 16.6772 129.416 17.2066 128.555 18.3061C127.696 19.4055 127.287 20.7493 127.287 22.4596V27.2239C127.287 28.9342 127.737 30.3187 128.597 31.4182C129.457 32.5176 130.644 33.047 132.118 33.047C133.224 33.047 134.083 32.9248 134.698 32.7213C135.312 32.5176 135.803 32.2326 136.172 31.9068V27.5089H131.791V24.3735H140.799V33.1285H140.758Z" fill="#8F9CBB"/>
<path d="M153.204 23.274L151.525 23.2332C150.829 23.2332 150.297 23.3554 149.847 23.6404C149.396 23.9255 149.068 24.3327 148.823 24.8214V36.2233H144.279V19.324H148.536L148.741 21.808C149.15 20.9121 149.641 20.2199 150.297 19.7312C150.911 19.2426 151.648 18.9983 152.468 18.9983C152.713 18.9983 152.918 18.9983 153.122 19.039C153.327 19.0797 153.532 19.1205 153.696 19.1612L153.204 23.274Z" fill="#8F9CBB"/>
<path d="M165.611 36.2638C165.447 35.8973 165.283 35.4901 165.16 35.0422C165.038 34.635 164.956 34.1871 164.915 33.7391C164.465 34.5535 163.809 35.2457 163.031 35.7751C162.253 36.3045 161.352 36.5895 160.288 36.5895C158.528 36.5895 157.135 36.1416 156.194 35.2051C155.251 34.2685 154.76 33.0469 154.76 31.4995C154.76 29.8299 155.415 28.5676 156.685 27.6717C157.954 26.7759 159.837 26.2872 162.294 26.2872H164.874V24.9434C164.874 24.129 164.669 23.5181 164.218 23.0702C163.809 22.6223 163.154 22.4187 162.294 22.4187C161.556 22.4187 160.983 22.5817 160.574 22.9481C160.165 23.3146 159.96 23.8033 159.96 24.414H155.539L155.498 24.3327C155.415 22.9074 156.03 21.6858 157.381 20.627C158.691 19.6089 160.451 19.0797 162.581 19.0797C164.627 19.0797 166.265 19.6089 167.534 20.627C168.804 21.6451 169.418 23.111 169.418 25.0249V31.9881C169.418 32.7618 169.459 33.5355 169.582 34.2278C169.705 34.92 169.909 35.6123 170.155 36.3045H165.611V36.2638ZM161.435 33.2097C162.212 33.2097 162.949 33.0062 163.563 32.599C164.177 32.1918 164.627 31.7437 164.833 31.2145V28.8119H162.253C161.27 28.8119 160.533 29.0563 160.042 29.5449C159.551 30.0335 159.305 30.6036 159.305 31.2959C159.305 31.8659 159.51 32.3139 159.878 32.6803C160.247 33.0469 160.779 33.2097 161.435 33.2097Z" fill="#8F9CBB"/>
<path d="M90.8603 27.1429H82.0984V36.5901H77.5127L77.5126 15.3912C77.5126 15.3912 77.5127 14.9479 78.0557 14.4078C78.5987 13.8678 79.0046 13.8678 79.0046 13.8678H92.4571V17.3698H82.0984V23.6409H90.8603V27.1429Z" fill="#8F9CBB"/>
<path d="M99.867 15.6595H95.2814V12.239H99.867V15.6595ZM99.867 36.59H95.2814V19.6909H99.867V36.59Z" fill="#8F9CBB"/>
<path d="M107.81 19.6906L108.015 22.0932C108.588 21.2381 109.284 20.5457 110.103 20.0979C110.922 19.6092 111.863 19.3649 112.887 19.3649C114.606 19.3649 115.958 19.8943 116.899 20.9938C117.842 22.0932 118.333 23.8442 118.333 26.206V36.5491H113.747V26.206C113.747 24.9843 113.542 24.1292 113.092 23.6405C112.682 23.152 112.027 22.8669 111.167 22.8669C110.471 22.8669 109.898 22.9891 109.366 23.2333C108.834 23.4777 108.424 23.8442 108.097 24.2921V36.5084H103.511V19.6906H107.81Z" fill="#8F9CBB"/>
</g>
<defs>
<clipPath id="clip0_160_1523">
<rect width="245" height="68" fill="white"/>
</clipPath>
</defs>
</svg>
