<svg width="30" height="30" viewBox="0 0 30 30" fill="none" xmlns="http://www.w3.org/2000/svg">
<path d="M15 3.12048C18.8434 3.12048 19.3675 3.12048 20.9398 3.12048C22.3374 3.12048 23.0361 3.46988 23.5602 3.64458C24.259 3.99398 24.7831 4.16868 25.3072 4.69277C25.8313 5.21687 26.1807 5.74096 26.3554 6.43976C26.5301 6.96386 26.7048 7.66265 26.8795 9.06024C26.8795 10.6325 26.8795 10.9819 26.8795 15C26.8795 19.0181 26.8795 19.3675 26.8795 20.9398C26.8795 22.3374 26.5301 23.0361 26.3554 23.5602C26.006 24.259 25.8313 24.7831 25.3072 25.3072C24.7831 25.8313 24.259 26.1807 23.5602 26.3554C23.0361 26.5301 22.3374 26.7048 20.9398 26.8795C19.3675 26.8795 19.0181 26.8795 15 26.8795C10.9819 26.8795 10.6325 26.8795 9.06024 26.8795C7.66265 26.8795 6.96386 26.5301 6.43976 26.3554C5.74096 26.006 5.21687 25.8313 4.69277 25.3072C4.16868 24.7831 3.81928 24.259 3.64458 23.5602C3.46988 23.0361 3.29518 22.3374 3.12048 20.9398C3.12048 19.3675 3.12048 19.0181 3.12048 15C3.12048 10.9819 3.12048 10.6325 3.12048 9.06024C3.12048 7.66265 3.46988 6.96386 3.64458 6.43976C3.99398 5.74096 4.16868 5.21687 4.69277 4.69277C5.21687 4.16868 5.74096 3.81928 6.43976 3.64458C6.96386 3.46988 7.66265 3.29518 9.06024 3.12048C10.6325 3.12048 11.1566 3.12048 15 3.12048ZM15 0.5C10.9819 0.5 10.6325 0.5 9.06024 0.5C7.48795 0.5 6.43976 0.849399 5.56627 1.1988C4.69277 1.54819 3.81928 2.07229 2.94578 2.94578C2.07229 3.81928 1.72289 4.51807 1.1988 5.56627C0.849399 6.43976 0.674699 7.48795 0.5 9.06024C0.5 10.6325 0.5 11.1566 0.5 15C0.5 19.0181 0.5 19.3675 0.5 20.9398C0.5 22.512 0.849399 23.5602 1.1988 24.4337C1.54819 25.3072 2.07229 26.1807 2.94578 27.0542C3.81928 27.9277 4.51807 28.2771 5.56627 28.8012C6.43976 29.1506 7.48795 29.3253 9.06024 29.5C10.6325 29.5 11.1566 29.5 15 29.5C18.8434 29.5 19.3675 29.5 20.9398 29.5C22.512 29.5 23.5602 29.1506 24.4337 28.8012C25.3072 28.4518 26.1807 27.9277 27.0542 27.0542C27.9277 26.1807 28.2771 25.4819 28.8012 24.4337C29.1506 23.5602 29.3253 22.512 29.5 20.9398C29.5 19.3675 29.5 18.8434 29.5 15C29.5 11.1566 29.5 10.6325 29.5 9.06024C29.5 7.48795 29.1506 6.43976 28.8012 5.56627C28.4518 4.69277 27.9277 3.81928 27.0542 2.94578C26.1807 2.07229 25.4819 1.72289 24.4337 1.1988C23.5602 0.849399 22.512 0.674699 20.9398 0.5C19.3675 0.5 19.0181 0.5 15 0.5Z" fill="white"/>
<path d="M15 7.48795C10.8072 7.48795 7.48795 10.8072 7.48795 15C7.48795 19.1928 10.8072 22.512 15 22.512C19.1928 22.512 22.512 19.1928 22.512 15C22.512 10.8072 19.1928 7.48795 15 7.48795ZM15 19.8916C12.3795 19.8916 10.1084 17.7952 10.1084 15C10.1084 12.3795 12.2048 10.1084 15 10.1084C17.6205 10.1084 19.8916 12.2048 19.8916 15C19.8916 17.6205 17.6205 19.8916 15 19.8916Z" fill="white"/>
<path d="M22.6867 9.06024C23.6516 9.06024 24.4337 8.27809 24.4337 7.31325C24.4337 6.34842 23.6516 5.56627 22.6867 5.56627C21.7219 5.56627 20.9398 6.34842 20.9398 7.31325C20.9398 8.27809 21.7219 9.06024 22.6867 9.06024Z" fill="white"/>
</svg>
