<svg width="141" height="46" viewBox="0 0 141 46" fill="none" xmlns="http://www.w3.org/2000/svg">
<g clip-path="url(#clip0_160_1633)">
<path d="M55.6585 32.3413V26.2227H61.1894V32.3413H59.8221V27.4219H57.0253V32.3413H55.6585Z" fill="#8F9CBB"/>
<path d="M61.6114 32.3413L65.017 26.1247L68.4221 32.3413H66.8813L65.0294 28.7558L63.1029 32.3413H61.6114Z" fill="#8F9CBB"/>
<path d="M73.1389 32.3413V31.8273C72.6751 32.2352 72.0906 32.4392 71.3863 32.4392C70.4917 32.4392 69.7501 32.1333 69.1617 31.5214C68.5732 30.9095 68.2795 30.163 68.2795 29.2819C68.2795 28.4009 68.5732 27.6544 69.1617 27.0425C69.7501 26.4307 70.4917 26.1247 71.3863 26.1247C72.0827 26.1247 72.6667 26.3328 73.1389 26.7489V26.2226H74.5062V32.3413H73.1389ZM71.523 31.191C72.2194 31.191 72.7576 30.9217 73.1389 30.3833V28.1929C72.7661 27.6462 72.2273 27.3729 71.523 27.3729C70.9848 27.3729 70.5414 27.5565 70.1935 27.9236C69.8451 28.2826 69.6711 28.7354 69.6711 29.2819C69.6711 29.8286 69.8451 30.2854 70.1935 30.6525C70.5414 31.0115 70.9848 31.191 71.523 31.191Z" fill="#8F9CBB"/>
<path d="M77.0584 32.3413V27.4219H75.2313V26.2227H80.3646V27.4219H78.4257V32.3413H77.0584Z" fill="#8F9CBB"/>
<path d="M85.3428 34.5929H83.9879V32.4392H83.9258C82.8572 32.4229 82.0202 32.1169 81.4153 31.5214C80.8189 30.9177 80.5206 30.1712 80.5206 29.2819C80.5206 28.3927 80.8189 27.6503 81.4153 27.0547C82.0202 26.4511 82.8572 26.1411 83.9258 26.1247H83.9879V23.6528H85.3428V26.1247H85.3925C86.4616 26.1411 87.2986 26.4511 87.9034 27.0547C88.5078 27.6503 88.8105 28.3927 88.8105 29.2819C88.8105 30.1712 88.5078 30.9177 87.9034 31.5214C87.2986 32.1169 86.4616 32.4229 85.3925 32.4392H85.3428V34.5929ZM85.3428 31.2154H85.3925C86.0391 31.1992 86.5401 31.0115 86.8965 30.6525C87.2528 30.2854 87.4308 29.8285 87.4308 29.2819C87.4308 28.7354 87.2484 28.2785 86.884 27.9114C86.5277 27.5361 86.0307 27.3485 85.3925 27.3485H85.3428V31.2154ZM83.9879 31.2154V27.3485H83.9258C83.2881 27.3485 82.7906 27.5361 82.4347 27.9114C82.0783 28.2785 81.8999 28.7354 81.8999 29.2819C81.8999 29.8285 82.0783 30.2854 82.4347 30.6525C82.7906 31.0115 83.2881 31.1992 83.9258 31.2154H83.9879Z" fill="#8F9CBB"/>
<path d="M92.6157 32.4392C91.6962 32.4392 90.9253 32.1373 90.3041 31.5336C89.6907 30.9217 89.3841 30.1712 89.3841 29.2819C89.3841 28.3927 89.6907 27.6462 90.3041 27.0425C90.9253 26.4307 91.6962 26.1247 92.6157 26.1247C93.5273 26.1247 94.2897 26.4307 94.9025 27.0425C95.5243 27.6544 95.8349 28.4009 95.8349 29.2819C95.8349 30.163 95.5243 30.9095 94.9025 31.5214C94.2897 32.1333 93.5273 32.4392 92.6157 32.4392ZM92.6157 31.1788C93.1545 31.1788 93.5934 30.9993 93.9333 30.6403C94.2728 30.2814 94.4428 29.8286 94.4428 29.2819C94.4428 28.7354 94.2728 28.2826 93.9333 27.9236C93.5934 27.5647 93.1545 27.3852 92.6157 27.3852C92.069 27.3852 91.6256 27.5647 91.2857 27.9236C90.9462 28.2826 90.7762 28.7354 90.7762 29.2819C90.7762 29.8286 90.9462 30.2814 91.2857 30.6403C91.6256 30.9993 92.069 31.1788 92.6157 31.1788Z" fill="#8F9CBB"/>
<path d="M96.8012 26.2226H98.168V26.7366C98.6322 26.3287 99.2162 26.1247 99.9205 26.1247C100.816 26.1247 101.557 26.4307 102.145 27.0425C102.734 27.6544 103.028 28.4009 103.028 29.2819C103.028 30.163 102.734 30.9095 102.145 31.5214C101.557 32.1333 100.816 32.4392 99.9205 32.4392C99.2247 32.4392 98.6406 32.2312 98.168 31.8151V34.5929H96.8012V26.2226ZM99.7962 31.191C100.335 31.191 100.774 31.0115 101.114 30.6525C101.462 30.2854 101.636 29.8286 101.636 29.2819C101.636 28.7354 101.462 28.2826 101.114 27.9236C100.774 27.5565 100.335 27.3729 99.7962 27.3729C99.0586 27.3729 98.5159 27.6422 98.168 28.1806V30.3711C98.5159 30.9177 99.0586 31.191 99.7962 31.191Z" fill="#8F9CBB"/>
<path d="M109.358 32.3413V28.9393L107.37 31.0319L105.369 28.9393V32.3413H104.014V26.0635L107.37 29.441L110.713 26.0635V32.3413H109.358Z" fill="#8F9CBB"/>
<path d="M116.551 32.3413V31.8273C116.087 32.2352 115.503 32.4392 114.799 32.4392C113.904 32.4392 113.162 32.1333 112.574 31.5214C111.986 30.9095 111.692 30.163 111.692 29.2819C111.692 28.4009 111.986 27.6544 112.574 27.0425C113.162 26.4307 113.904 26.1247 114.799 26.1247C115.495 26.1247 116.079 26.3328 116.551 26.7489V26.2226H117.918V32.3413H116.551ZM114.936 31.191C115.631 31.191 116.17 30.9217 116.551 30.3833V28.1929C116.178 27.6462 115.64 27.3729 114.936 27.3729C114.397 27.3729 113.953 27.5565 113.606 27.9236C113.258 28.2826 113.084 28.7354 113.084 29.2819C113.084 29.8286 113.258 30.2854 113.606 30.6525C113.953 31.0115 114.397 31.191 114.936 31.191Z" fill="#8F9CBB"/>
<path d="M58.6784 44.6765C57.6923 44.6765 56.9095 44.3542 56.3295 43.7097C55.7495 43.0571 55.4597 42.2004 55.4597 41.1399V40.6382C55.4597 39.2268 55.7371 38.1418 56.2922 37.3831C56.8474 36.6243 57.7465 36.143 58.9891 35.9391L61.3385 35.5352V36.8202L59.1884 37.175C58.3678 37.3137 57.7793 37.5585 57.4235 37.9092C57.075 38.2519 56.8514 38.7699 56.752 39.4634C57.2907 38.8352 57.999 38.5211 58.8772 38.5211C59.7888 38.5211 60.5179 38.8107 61.0652 39.3899C61.6198 39.9692 61.8977 40.6667 61.8977 41.4825C61.8977 42.3799 61.591 43.1386 60.9777 43.7587C60.3648 44.3706 59.5984 44.6765 58.6784 44.6765ZM58.6784 43.4282C59.2172 43.4282 59.6606 43.2488 60.0085 42.8899C60.3564 42.5309 60.5304 42.0699 60.5304 41.507C60.5304 41.0012 60.3604 40.577 60.0209 40.2343C59.6809 39.8835 59.2336 39.7081 58.6784 39.7081C58.1153 39.7081 57.6635 39.8835 57.324 40.2343C56.9925 40.577 56.8265 41.0012 56.8265 41.507C56.8265 42.0699 56.9965 42.5309 57.3365 42.8899C57.6844 43.2488 58.1317 43.4282 58.6784 43.4282Z" fill="#8F9CBB"/>
<path d="M65.68 44.6765C64.7933 44.6765 64.0393 44.3746 63.4181 43.7709C62.8047 43.1672 62.4986 42.4166 62.4986 41.5192C62.4986 40.6219 62.7968 39.8713 63.3932 39.2676C63.9981 38.6639 64.7481 38.362 65.6427 38.362C66.5627 38.362 67.3043 38.6761 67.8674 39.3043C68.4395 39.9243 68.7004 40.7565 68.6507 41.8007H63.8654C63.9151 42.2902 64.1139 42.6859 64.4623 42.9877C64.8182 43.2814 65.2203 43.4282 65.6676 43.4282C66.3719 43.4282 66.9191 43.1795 67.3083 42.6818L68.2904 43.5139C67.6686 44.2889 66.7988 44.6765 65.68 44.6765ZM65.5682 39.5123C65.2039 39.5123 64.8599 39.6225 64.5369 39.8427C64.2133 40.0548 64.0065 40.3812 63.9151 40.8217H67.2213C67.1552 40.4057 66.9688 40.0834 66.6621 39.855C66.3555 39.6265 65.9907 39.5123 65.5682 39.5123Z" fill="#8F9CBB"/>
<path d="M72.3958 44.6765C71.4927 44.6765 70.7303 44.3706 70.109 43.7587C69.4957 43.1468 69.189 42.4003 69.189 41.5192C69.189 40.6381 69.4957 39.8917 70.109 39.2798C70.7303 38.668 71.4927 38.362 72.3958 38.362C73.4401 38.362 74.277 38.7414 74.9068 39.5001L73.9247 40.3567C73.527 39.8672 73.0176 39.6225 72.3958 39.6225C71.8739 39.6225 71.439 39.806 71.0911 40.1732C70.7512 40.5321 70.5812 40.9808 70.5812 41.5192C70.5812 42.0577 70.7512 42.5104 71.0911 42.8776C71.439 43.2366 71.8739 43.416 72.3958 43.416C73.0176 43.416 73.527 43.1713 73.9247 42.6818L74.9068 43.5384C74.277 44.2971 73.4401 44.6765 72.3958 44.6765Z" fill="#8F9CBB"/>
<path d="M78.4446 44.6765C77.5246 44.6765 76.7542 44.3746 76.1324 43.7709C75.5196 43.159 75.2129 42.4085 75.2129 41.5192C75.2129 40.63 75.5196 39.8835 76.1324 39.2798C76.7542 38.668 77.5246 38.362 78.4446 38.362C79.3556 38.362 80.1181 38.668 80.7314 39.2798C81.3527 39.8917 81.6633 40.6381 81.6633 41.5192C81.6633 42.4003 81.3527 43.1468 80.7314 43.7587C80.1181 44.3706 79.3556 44.6765 78.4446 44.6765ZM78.4446 43.416C78.9829 43.416 79.4222 43.2366 79.7617 42.8776C80.1017 42.5186 80.2716 42.0659 80.2716 41.5192C80.2716 40.9726 80.1017 40.5199 79.7617 40.1609C79.4222 39.8019 78.9829 39.6225 78.4446 39.6225C77.8974 39.6225 77.454 39.8019 77.1146 40.1609C76.7746 40.5199 76.6051 40.9726 76.6051 41.5192C76.6051 42.0659 76.7746 42.5186 77.1146 42.8776C77.454 43.2366 77.8974 43.416 78.4446 43.416Z" fill="#8F9CBB"/>
<path d="M82.6295 44.5786V38.4599H88.1604V44.5786H86.7931V39.6592H83.9968V44.5786H82.6295Z" fill="#8F9CBB"/>
<path d="M94.0014 44.5786V44.0646C93.5377 44.4725 92.9532 44.6765 92.2489 44.6765C91.3543 44.6765 90.6127 44.3706 90.0243 43.7587C89.4358 43.1468 89.142 42.4003 89.142 41.5192C89.142 40.6381 89.4358 39.8917 90.0243 39.2798C90.6127 38.668 91.3543 38.362 92.2489 38.362C92.9453 38.362 93.5293 38.5701 94.0014 38.9861V38.4599H95.3687V44.5786H94.0014ZM92.3856 43.4282C93.0819 43.4282 93.6202 43.159 94.0014 42.6206V40.4301C93.6287 39.8835 93.0899 39.6102 92.3856 39.6102C91.8473 39.6102 91.404 39.7938 91.0561 40.1609C90.7077 40.5199 90.5337 40.9726 90.5337 41.5192C90.5337 42.0659 90.7077 42.5227 91.0561 42.8899C91.404 43.2488 91.8473 43.4282 92.3856 43.4282Z" fill="#8F9CBB"/>
<path d="M99.5492 44.6765C98.6461 44.6765 97.8837 44.3706 97.2624 43.7587C96.6491 43.1468 96.3424 42.4003 96.3424 41.5192C96.3424 40.6381 96.6491 39.8917 97.2624 39.2798C97.8837 38.668 98.6461 38.362 99.5492 38.362C100.593 38.362 101.43 38.7414 102.06 39.5001L101.078 40.3567C100.68 39.8672 100.17 39.6225 99.5492 39.6225C99.0273 39.6225 98.5919 39.806 98.244 40.1732C97.9046 40.5321 97.7346 40.9808 97.7346 41.5192C97.7346 42.0577 97.9046 42.5104 98.244 42.8776C98.5919 43.2366 99.0273 43.416 99.5492 43.416C100.17 43.416 100.68 43.1713 101.078 42.6818L102.06 43.5384C101.43 44.2971 100.593 44.6765 99.5492 44.6765Z" fill="#8F9CBB"/>
<path d="M104.054 44.5786V39.6592H102.227V38.4599H107.36V39.6592H105.421V44.5786H104.054Z" fill="#8F9CBB"/>
<path d="M108.084 44.5786V38.4599H109.438V40.883H112.396V38.4599H113.751V44.5786H112.396V42.0822H109.438V44.5786H108.084Z" fill="#8F9CBB"/>
<path d="M117.949 44.6765C117.029 44.6765 116.258 44.3746 115.637 43.7709C115.024 43.159 114.717 42.4085 114.717 41.5192C114.717 40.63 115.024 39.8835 115.637 39.2798C116.258 38.668 117.029 38.362 117.949 38.362C118.86 38.362 119.622 38.668 120.235 39.2798C120.857 39.8917 121.168 40.6381 121.168 41.5192C121.168 42.4003 120.857 43.1468 120.235 43.7587C119.622 44.3706 118.86 44.6765 117.949 44.6765ZM117.949 43.416C118.487 43.416 118.926 43.2366 119.266 42.8776C119.606 42.5186 119.776 42.0659 119.776 41.5192C119.776 40.9726 119.606 40.5199 119.266 40.1609C118.926 39.8019 118.487 39.6225 117.949 39.6225C117.401 39.6225 116.958 39.8019 116.618 40.1609C116.279 40.5199 116.109 40.9726 116.109 41.5192C116.109 42.0659 116.279 42.5186 116.618 42.8776C116.958 43.2366 117.401 43.416 117.949 43.416Z" fill="#8F9CBB"/>
<path d="M124.943 44.6765C124.04 44.6765 123.277 44.3706 122.655 43.7587C122.043 43.1468 121.736 42.4003 121.736 41.5192C121.736 40.6381 122.043 39.8917 122.655 39.2798C123.277 38.668 124.04 38.362 124.943 38.362C125.986 38.362 126.823 38.7414 127.453 39.5001L126.472 40.3567C126.073 39.8672 125.564 39.6225 124.943 39.6225C124.42 39.6225 123.985 39.806 123.637 40.1732C123.297 40.5321 123.128 40.9808 123.128 41.5192C123.128 42.0577 123.297 42.5104 123.637 42.8776C123.985 43.2366 124.42 43.416 124.943 43.416C125.564 43.416 126.073 43.1713 126.472 42.6818L127.453 43.5384C126.823 44.2971 125.986 44.6765 124.943 44.6765Z" fill="#8F9CBB"/>
<path d="M129.447 44.5786V39.6592H127.62V38.4599H132.753V39.6592H130.814V44.5786H129.447Z" fill="#8F9CBB"/>
<path d="M133.477 44.6765V38.4599H134.831V42.0944L139.194 38.362V44.5786H137.839V40.9808L133.477 44.6765Z" fill="#8F9CBB"/>
<path fill-rule="evenodd" clip-rule="evenodd" d="M29.3183 11.9952C31.206 11.9084 39.8432 5.30316 40.5505 4.4566L27.352 5.65453C24.6179 9.17074 25.2948 10.4032 22.3465 11.4882C20.1196 12.3075 16.6145 13.8621 14.4065 14.2832C13.6409 13.0791 13.0882 11.2744 12.3597 9.88682C10.7591 6.83824 5.3455 0.331738 3.4589 0C1.95406 0.252642 -0.495468 1.11123 -1.50428 1.87731L-0.473152 2.76137C3.75245 5.70155 8.8453 11.3489 9.82076 15.9563C9.04878 16.535 -17.0705 26.2542 -18.9087 26.6432C-18.2007 28.4022 -15.8431 30.0871 -14.5114 31.5592C-12.9134 33.326 -2.48784 44.2132 -1.34851 44.8182L-5.74225 28.1853C-2.00424 26.7732 8.48406 20.043 11.0576 19.4072C12.3537 27.7648 11.9316 33.6031 7.44821 40.8547C5.71738 43.6543 4.35185 44.7182 3.63694 45.9804C7.0337 44.4826 11.4103 38.6781 13.1409 34.7763C16.1496 27.9935 15.7552 24.877 15.1576 17.1546L15.9372 16.5747C16.2394 16.3832 16.4587 16.2892 16.7275 16.1432C17.3535 15.8031 17.7808 15.5707 18.2968 15.3006C25.9544 11.289 22.0544 12.3291 29.3183 11.9952Z" fill="#8F9CBB"/>
<path d="M58.4563 8.23567V0.0549622H54.4189V17.6219H58.4563V10.1334L64.4991 17.6219H69.7342L62.4414 8.82554L69.526 0.0549622H64.8117L58.4563 8.23567ZM78.382 17.9297C83.305 17.9297 86.0138 15.0061 86.0138 10.6465V0.0549622H81.9764V10.1078C81.9764 12.7749 80.6742 14.2367 78.3561 14.2367C75.9858 14.2367 74.6831 12.7749 74.6831 10.1078V0.0549622H70.6463V10.6465C70.6463 15.0061 73.3809 17.9297 78.382 17.9297ZM95.4165 12.7236C99.6103 12.7236 102.137 9.85144 102.137 6.261C102.137 2.85015 99.8444 0.0549622 95.7813 0.0549622H88.0973V17.6219H92.1346V12.7236H95.4165ZM95.1824 3.69652C97.0576 3.69652 98.0735 4.74809 98.0735 6.36362C98.0735 7.97939 97.0576 9.08202 95.3126 9.08202H92.1346V3.69652H95.1824ZM107.919 17.6219V0.0549622H103.882V17.6219H107.919ZM119.771 17.6219V11.0824L126.256 0.0549622H121.932L117.791 7.44065L113.676 0.0549622H109.221L115.707 11.0567V17.6219H119.771ZM133.94 11.0824H129.304L131.622 4.20935L133.94 11.0824ZM136.154 17.6219H140.503L134.227 0.0549622H129.277L122.974 17.6219H127.116L128.132 14.5959H135.138L136.154 17.6219Z" fill="#8F9CBB"/>
</g>
<defs>
<clipPath id="clip0_160_1633">
<rect width="167" height="46" fill="white" transform="translate(-26)"/>
</clipPath>
</defs>
</svg>
