<svg width="98" height="73" viewBox="0 0 98 73" fill="none" xmlns="http://www.w3.org/2000/svg">
<g clip-path="url(#clip0_160_1337)">
<path d="M60 30H45.2C45.2 21.6 38.4 14.8 30 14.8C21.6 14.8 14.8 21.6 14.8 30H0C0 13.4 13.4 0 30 0C46.6 0 60 13.4 60 30Z" fill="#8F9CBB"/>
<path d="M0 41.5H2.2V49.5L6.2 45.2H8.9L5.1 49.1L9.1 54.9H6.5L3.6 50.7L2.2 52.1V54.9H0V41.5Z" fill="#8F9CBB"/>
<path d="M16.1 54.9V53.7C15.4 54.5 14.4 55.1 13 55.1C11.2 55.1 9.5 54.1 9.5 52.1C9.5 49.9 11.2 48.9 13.4 48.9C14.6 48.9 15.3 49.1 16.1 49.3V49.1C16.1 47.8 15.2 47 13.7 47C12.6 47 11.8 47.2 10.9 47.6L10.3 45.8C11.4 45.3 12.4 45 14 45C16.9 45 18.3 46.5 18.3 49.1V54.9H16.1ZM16.2 50.8C15.6 50.6 14.8 50.4 14 50.4C12.6 50.4 11.8 51 11.8 51.9C11.8 52.8 12.6 53.3 13.7 53.3C15.2 53.3 16.3 52.5 16.3 51.3L16.2 50.8Z" fill="#8F9CBB"/>
<path d="M19.9 53.4L25.5 47H20.1V45.2H28.3V46.7L22.7 53.1H28.3V54.9H19.9V53.4Z" fill="#8F9CBB"/>
<path d="M36.2 54.9V53.7C35.5 54.5 34.5 55.1 33.1 55.1C31.3 55.1 29.6 54.1 29.6 52.1C29.6 49.9 31.3 48.9 33.5 48.9C34.7 48.9 35.4 49.1 36.2 49.3V49.1C36.2 47.8 35.4 47 33.8 47C32.7 47 31.9 47.2 31 47.6L30.4 45.8C31.5 45.3 32.5 45 34.1 45C37 45 38.4 46.5 38.4 49.1V54.9H36.2ZM36.3 50.8C35.7 50.6 34.9 50.4 34.1 50.4C32.7 50.4 31.9 51 31.9 51.9C31.9 52.8 32.7 53.3 33.8 53.3C35.3 53.3 36.4 52.5 36.4 51.3L36.3 50.8Z" fill="#8F9CBB"/>
<path d="M40.7999 41.5H43V49.5L47 45.2H49.7L45.7999 49.2L49.7999 55H47.2L44.2999 50.8L42.9 52.2V55H40.7L40.7999 41.5ZM51.2999 41.5H53.5V46.7C54.1 45.8 55 45 56.5 45C58.7 45 60 46.5 60 48.7V54.9H57.7999V49.4C57.7999 47.9 57 47 55.7 47C54.4 47 53.5 47.9 53.5 49.4V54.9H51.2999V41.5ZM61.5 53.6L62.5 52.1C63.5 52.9 64.6999 53.3 65.6999 53.3C66.6999 53.3 67.1999 52.9 67.1999 52.2C67.1999 51.5 66.2999 51.2 65.1999 50.9L65 50.8C63.6 50.4 62 49.8 62 47.9C62 46.1 63.5 44.9 65.5 44.9C66.7 44.9 67.9999 45.3 69.0999 46L68.1999 47.6C67.2999 47 66.2999 46.7 65.5 46.7C64.6 46.7 64.0999 47.1 64.0999 47.7C64.0999 48.4 64.9999 48.7 66.0999 49L66.3 49.1C67.7 49.5 69.3 50.2 69.3 52C69.3 54 67.6999 55 65.6999 55C64.1999 55.1 62.7 54.5 61.5 53.6ZM71.6999 52.2V47.1H70.5V45.2H71.6999V42.5H73.9V45.2H76.5V47.1H73.9V51.9C73.9 52.8 74.2999 53.1 75.0999 53.1C75.5999 53.1 76 53 76.5 52.8V54.6C75.9 54.9 75.2 55.1 74.5 55.1C72.7999 55.1 71.5999 54.4 71.6999 52.2Z" fill="#8F9CBB"/>
<path d="M84.3 54.9V53.7C83.6 54.5 82.6 55.1 81.2 55.1C79.4 55.1 77.7 54.1 77.7 52.1C77.7 49.9 79.4 48.9 81.6 48.9C82.8 48.9 83.5 49.1 84.3 49.3V49.1C84.3 47.8 83.5 47 81.9 47C80.8 47 80 47.2 79.1 47.6L78.5 45.8C79.6 45.3 80.6 45 82.2 45C85.1 45 86.5 46.5 86.5 49.1V54.9H84.3ZM84.4 50.8C83.8 50.6 83 50.4 82.2 50.4C80.8 50.4 80 51 80 52C80 52.9 80.8 53.4 81.9 53.4C83.4 53.4 84.5 52.6 84.5 51.4L84.4 50.8Z" fill="#8F9CBB"/>
<path d="M88.9 45.2H91.1V46.7C91.7 45.8 92.6 45 94.1 45C96.3 45 97.6 46.5 97.6 48.7V54.9H95.4V49.4C95.4 47.9 94.6 47 93.3 47C92 47 91.1 47.9 91.1 49.4V54.9H88.9V45.2ZM0 69.7H2.5V72.2H0V69.7ZM4.9 69.5V64.4H3.6V62.5H4.8V59.8H7V62.5H9.6V64.4H7.1V69.2C7.1 70.1 7.5 70.4 8.3 70.4C8.8 70.4 9.2 70.3 9.7 70.1V71.9C9.1 72.2 8.4 72.4 7.7 72.4C6 72.4 4.9 71.7 4.9 69.5ZM11.6 62.5H13.8V64.7C14.4 63.2 15.5 62.2 17.2 62.3V64.7H17.1C15.2 64.7 13.8 66 13.8 68.5V72.2H11.6V62.5ZM24.5 72.2V71C23.8 71.8 22.8 72.4 21.4 72.4C19.6 72.4 17.9 71.3 17.9 69.4C17.9 67.2 19.6 66.2 21.8 66.2C23 66.2 23.7 66.4 24.5 66.6V66.4C24.5 65.1 23.6 64.3 22.1 64.3C21 64.3 20.2 64.5 19.3 64.9L18.7 63.1C19.9 62.6 21.1 62.3 22.4 62.3C25.3 62.3 26.7 63.8 26.7 66.4V72.2H24.5ZM24.6 68.1C23.9 67.8 23.1 67.7 22.4 67.7C21 67.7 20.2 68.3 20.2 69.2C20.2 70.1 21 70.6 22.1 70.6C23.6 70.6 24.7 69.8 24.7 68.6L24.6 68.1ZM27.7 62.5H30.1L32.7 69.6L35.3 62.5H37.6L33.6 72.3H31.6L27.7 62.5ZM38.1 67.4C38.1 64.6 40.1 62.3 42.8 62.3C45.9 62.3 47.5 64.7 47.5 67.5C47.5 67.7 47.5 67.9 47.5 68.1H40.4C40.6 69.7 41.8 70.6 43.2 70.6C44.3 70.6 45.1 70.2 45.8 69.4L47.1 70.6C46.2 71.7 44.9 72.4 43.1 72.4C40.3 72.4 38.1 70.4 38.1 67.4ZM45.3 66.7C45.1 65.3 44.3 64.1 42.8 64.1C41.4 64.1 40.5 65.2 40.3 66.7H45.3ZM49.5 58.8H51.7V72.2H49.5V58.8Z" fill="#8F9CBB"/>
</g>
<defs>
<clipPath id="clip0_160_1337">
<rect width="98" height="73" fill="white"/>
</clipPath>
</defs>
</svg>
