<svg width="18" height="17" viewBox="0 0 18 17" fill="none" xmlns="http://www.w3.org/2000/svg">
<path d="M7.15127 4.25692C7.27877 4.434 7.37085 4.59692 7.4346 4.75275C7.49835 4.9015 7.53377 5.05025 7.53377 5.18484C7.53377 5.35484 7.48419 5.52484 7.38502 5.68775C7.29294 5.85067 7.15835 6.02067 6.98835 6.19067L6.45002 6.75025C6.3721 6.82817 6.33669 6.92025 6.33669 7.03359C6.33669 7.09025 6.34377 7.13984 6.35794 7.1965C6.37919 7.25317 6.40044 7.29567 6.4146 7.33817C6.5421 7.57192 6.76169 7.8765 7.07335 8.24484C7.3921 8.61317 7.7321 8.98859 8.10044 9.364C8.48294 9.73942 8.85127 10.0865 9.22669 10.4053C9.59502 10.7169 9.8996 10.9294 10.1404 11.0569C10.1759 11.0711 10.2184 11.0923 10.2679 11.1136C10.3246 11.1348 10.3813 11.1419 10.445 11.1419C10.5654 11.1419 10.6575 11.0994 10.7354 11.0215L11.2738 10.4903C11.4509 10.3132 11.6209 10.1786 11.7838 10.0936C11.9467 9.99442 12.1096 9.94484 12.2867 9.94484C12.4213 9.94484 12.5629 9.97317 12.7188 10.0369C12.8746 10.1007 13.0375 10.1928 13.2146 10.3132L15.5592 11.9778C15.7434 12.1053 15.8709 12.254 15.9488 12.4311C16.0196 12.6082 16.0621 12.7853 16.0621 12.9836C16.0621 13.2386 16.0054 13.5007 15.885 13.7557C15.7646 14.0107 15.6088 14.2515 15.4034 14.4782C15.0563 14.8607 14.6738 15.1369 14.2417 15.314C13.8167 15.4911 13.3563 15.5832 12.8604 15.5832C12.1379 15.5832 11.3659 15.4132 10.5513 15.0661C9.73669 14.719 8.9221 14.2515 8.1146 13.6636C7.2916 13.0616 6.51497 12.3986 5.79127 11.6803C5.07498 10.9592 4.41434 10.1849 3.81502 9.364C3.23419 8.5565 2.76669 7.749 2.42669 6.94859C2.08669 6.14109 1.91669 5.369 1.91669 4.63234C1.91669 4.15067 2.00169 3.69025 2.17169 3.26525C2.34169 2.83317 2.61085 2.4365 2.98627 2.08234C3.4396 1.63609 3.93544 1.4165 4.4596 1.4165C4.65794 1.4165 4.85627 1.459 5.03335 1.544C5.21752 1.629 5.38044 1.7565 5.50794 1.94067" stroke="white" stroke-width="1.5" stroke-miterlimit="10" stroke-linecap="round" stroke-linejoin="round"/>
<path d="M13.6042 6.37484C13.6042 5.94984 13.2712 5.29817 12.7754 4.76692C12.3221 4.27817 11.72 3.89567 11.125 3.89567M12.5488 1.62192C12.0954 1.48734 11.6208 1.4165 11.125 1.4165M16.0833 6.37484C16.0833 4.69609 15.2475 3.20859 13.9725 2.31609" stroke="white" stroke-width="1.5" stroke-linecap="round" stroke-linejoin="round"/>
</svg>
