<svg width="18" height="17" viewBox="0 0 18 17" fill="none" xmlns="http://www.w3.org/2000/svg">
<path d="M7.15121 4.25692C7.27871 4.434 7.37079 4.59692 7.43454 4.75275C7.49829 4.9015 7.53371 5.05025 7.53371 5.18484C7.53371 5.35484 7.48413 5.52484 7.38496 5.68775C7.29288 5.85067 7.15829 6.02067 6.98829 6.19067L6.44996 6.75025C6.37204 6.82817 6.33663 6.92025 6.33663 7.03359C6.33663 7.09025 6.34371 7.13984 6.35788 7.1965C6.37913 7.25317 6.40038 7.29567 6.41454 7.33817C6.54204 7.57192 6.76163 7.8765 7.07329 8.24484C7.39204 8.61317 7.73204 8.98859 8.10038 9.364C8.48288 9.73942 8.85121 10.0865 9.22663 10.4053C9.59496 10.7169 9.89954 10.9294 10.1404 11.0569C10.1758 11.0711 10.2183 11.0923 10.2679 11.1136C10.3245 11.1348 10.3812 11.1419 10.445 11.1419C10.5654 11.1419 10.6575 11.0994 10.7354 11.0215L11.2737 10.4903C11.4508 10.3132 11.6208 10.1786 11.7837 10.0936C11.9466 9.99442 12.1095 9.94484 12.2866 9.94484C12.4212 9.94484 12.5629 9.97317 12.7187 10.0369C12.8745 10.1007 13.0375 10.1928 13.2145 10.3132L15.5591 11.9778C15.7433 12.1053 15.8708 12.254 15.9487 12.4311C16.0195 12.6082 16.062 12.7853 16.062 12.9836C16.062 13.2386 16.0054 13.5007 15.885 13.7557C15.7645 14.0107 15.6087 14.2515 15.4033 14.4782C15.0562 14.8607 14.6737 15.1369 14.2416 15.314C13.8166 15.4911 13.3562 15.5832 12.8604 15.5832C12.1379 15.5832 11.3658 15.4132 10.5512 15.0661C9.73663 14.719 8.92204 14.2515 8.11454 13.6636C7.29154 13.0616 6.51491 12.3986 5.79121 11.6803C5.07492 10.9592 4.41428 10.1849 3.81496 9.364C3.23413 8.5565 2.76663 7.749 2.42663 6.94859C2.08663 6.14109 1.91663 5.369 1.91663 4.63234C1.91663 4.15067 2.00163 3.69025 2.17163 3.26525C2.34163 2.83317 2.61079 2.4365 2.98621 2.08234C3.43954 1.63609 3.93538 1.4165 4.45954 1.4165C4.65788 1.4165 4.85621 1.459 5.03329 1.544C5.21746 1.629 5.38038 1.7565 5.50788 1.94067" stroke="#0066FF" stroke-width="1.5" stroke-miterlimit="10" stroke-linecap="round" stroke-linejoin="round"/>
<path d="M13.6042 6.37484C13.6042 5.94984 13.2712 5.29817 12.7754 4.76692C12.3221 4.27817 11.72 3.89567 11.125 3.89567M12.5488 1.62192C12.0954 1.48734 11.6208 1.4165 11.125 1.4165M16.0833 6.37484C16.0833 4.69609 15.2475 3.20859 13.9725 2.31609" stroke="#0066FF" stroke-width="1.5" stroke-linecap="round" stroke-linejoin="round"/>
</svg>
