<svg width="16" height="16" viewBox="0 0 16 16" fill="none" xmlns="http://www.w3.org/2000/svg">
<path d="M8.66634 8.00008C8.66634 7.63189 8.36786 7.33341 7.99967 7.33341C7.63148 7.33341 7.33301 7.63189 7.33301 8.00008C7.33301 8.36827 7.63148 8.66675 7.99967 8.66675C8.36786 8.66675 8.66634 8.36827 8.66634 8.00008Z" stroke="#070A25" stroke-width="2" stroke-linecap="round" stroke-linejoin="round"/>
<path d="M4.00033 8.00008C4.00033 7.63189 3.70185 7.33341 3.33366 7.33341C2.96547 7.33341 2.66699 7.63189 2.66699 8.00008C2.66699 8.36827 2.96547 8.66675 3.33366 8.66675C3.70185 8.66675 4.00033 8.36827 4.00033 8.00008Z" stroke="#070A25" stroke-width="2" stroke-linecap="round" stroke-linejoin="round"/>
<path d="M13.3333 8.00008C13.3333 7.63189 13.0349 7.33341 12.6667 7.33341C12.2985 7.33341 12 7.63189 12 8.00008C12 8.36827 12.2985 8.66675 12.6667 8.66675C13.0349 8.66675 13.3333 8.36827 13.3333 8.00008Z" stroke="#070A25" stroke-width="2" stroke-linecap="round" stroke-linejoin="round"/>
</svg>
