<svg width="16" height="16" viewBox="0 0 16 16" fill="none" xmlns="http://www.w3.org/2000/svg">
<path d="M8.66665 7.99984C8.66665 7.63165 8.36817 7.33317 7.99998 7.33317C7.63179 7.33317 7.33331 7.63165 7.33331 7.99984C7.33331 8.36803 7.63179 8.6665 7.99998 8.6665C8.36817 8.6665 8.66665 8.36803 8.66665 7.99984Z" stroke="#070A25" stroke-width="2" stroke-linecap="round" stroke-linejoin="round"/>
<path d="M4.00002 7.99984C4.00002 7.63165 3.70154 7.33317 3.33335 7.33317C2.96516 7.33317 2.66669 7.63165 2.66669 7.99984C2.66669 8.36803 2.96516 8.6665 3.33335 8.6665C3.70154 8.6665 4.00002 8.36803 4.00002 7.99984Z" stroke="#070A25" stroke-width="2" stroke-linecap="round" stroke-linejoin="round"/>
<path d="M13.3333 7.99984C13.3333 7.63165 13.0349 7.33317 12.6667 7.33317C12.2985 7.33317 12 7.63165 12 7.99984C12 8.36803 12.2985 8.6665 12.6667 8.6665C13.0349 8.6665 13.3333 8.36803 13.3333 7.99984Z" stroke="#070A25" stroke-width="2" stroke-linecap="round" stroke-linejoin="round"/>
</svg>
