<svg width="16" height="16" viewBox="0 0 16 16" fill="none" xmlns="http://www.w3.org/2000/svg">
<path d="M8.66671 8.00008C8.66671 7.63189 8.36823 7.33341 8.00004 7.33341C7.63185 7.33341 7.33337 7.63189 7.33337 8.00008C7.33337 8.36827 7.63185 8.66675 8.00004 8.66675C8.36823 8.66675 8.66671 8.36827 8.66671 8.00008Z" stroke="white" stroke-width="2" stroke-linecap="round" stroke-linejoin="round"/>
<path d="M3.99996 8.00008C3.99996 7.63189 3.70148 7.33341 3.33329 7.33341C2.9651 7.33341 2.66663 7.63189 2.66663 8.00008C2.66663 8.36827 2.9651 8.66675 3.33329 8.66675C3.70148 8.66675 3.99996 8.36827 3.99996 8.00008Z" stroke="white" stroke-width="2" stroke-linecap="round" stroke-linejoin="round"/>
<path d="M13.3333 8.00008C13.3333 7.63189 13.0349 7.33341 12.6667 7.33341C12.2985 7.33341 12 7.63189 12 8.00008C12 8.36827 12.2985 8.66675 12.6667 8.66675C13.0349 8.66675 13.3333 8.36827 13.3333 8.00008Z" stroke="white" stroke-width="2" stroke-linecap="round" stroke-linejoin="round"/>
</svg>
