<svg width="194" height="52" viewBox="0 0 194 52" fill="none" xmlns="http://www.w3.org/2000/svg">
<g clip-path="url(#clip0_160_1659)">
<path d="M13.0322 21.5506C19.8956 17.0483 26.4606 14.2367 30.5385 13.7872C30.8437 13.7416 31.1749 13.7203 31.5349 13.7234C31.8949 13.7203 32.2264 13.7416 32.5315 13.7872C36.6094 14.2367 43.1745 17.0483 50.0374 21.5506C50.4278 21.8071 50.8131 22.0645 51.1939 22.3243V0H0V32.657C2.81613 29.2425 7.44833 25.2139 13.0322 21.5506Z" fill="#8F9CBB"/>
<path d="M31.5349 15.264C27.5027 16.053 21.1257 19.4389 14.563 24.5527C6.8477 30.5655 1.18514 37.1666 0 41.1446V51.9999H51.1939V26.7408C50.3303 26.0067 49.4339 25.2759 48.5069 24.5527C41.9439 19.4389 35.5671 16.053 31.5349 15.264Z" fill="#8F9CBB"/>
<path d="M66.5378 11.8147C66.5378 12.9012 66.6701 13.8812 66.9345 14.7546C67.1989 15.6281 67.5797 16.3791 68.0768 17.0075C68.5739 17.636 69.182 18.1207 69.9013 18.4616C70.6205 18.8024 71.4455 18.9729 72.3763 18.9729C73.2859 18.9729 74.1056 18.8024 74.8353 18.4616C75.5652 18.1207 76.1787 17.636 76.6758 17.0075C77.1729 16.3791 77.5536 15.6281 77.8181 14.7546C78.0825 13.8812 78.2147 12.9012 78.2147 11.8147C78.2147 10.7282 78.0825 9.74289 77.8181 8.85874C77.5536 7.97468 77.1729 7.2184 76.6758 6.58989C76.1787 5.96138 75.5652 5.47679 74.8353 5.13584C74.1056 4.79499 73.2859 4.62456 72.3763 4.62456C71.4455 4.62456 70.6205 4.80031 69.9013 5.15189C69.182 5.50339 68.5739 5.99339 68.0768 6.62181C67.5797 7.25032 67.1989 8.0066 66.9345 8.89075C66.6701 9.77481 66.5378 10.7495 66.5378 11.8147ZM83.3233 11.8147C83.3233 13.7108 83.0431 15.3778 82.4825 16.8158C81.9219 18.2538 81.1551 19.4575 80.182 20.4268C79.2089 21.3962 78.0507 22.1259 76.7075 22.6159C75.3642 23.1058 73.9204 23.3508 72.3763 23.3508C70.8744 23.3508 69.457 23.1058 68.1243 22.6159C66.7917 22.1259 65.6282 21.3962 64.634 20.4268C63.6398 19.4575 62.857 18.2538 62.286 16.8158C61.7148 15.3778 61.4292 13.7108 61.4292 11.8147C61.4292 9.91864 61.7254 8.2516 62.3176 6.81361C62.9099 5.37552 63.7085 4.16657 64.7133 3.18656C65.7181 2.20656 66.8815 1.47156 68.2037 0.981647C69.5258 0.491644 70.9166 0.246643 72.3763 0.246643C73.8782 0.246643 75.2955 0.491644 76.6281 0.981647C77.9608 1.47156 79.1243 2.20656 80.1185 3.18656C81.1127 4.16657 81.8955 5.37552 82.4666 6.81361C83.0378 8.2516 83.3233 9.91864 83.3233 11.8147ZM103.028 0.757926V5.00807H96.3964V22.9034H91.4464V5.00807H84.8147V0.757926H103.028ZM110.929 4.97615V8.61906H112.547C114.176 8.61906 115.63 8.74693 116.91 9.00257C118.19 9.25821 119.269 9.67364 120.147 10.2489C121.025 10.8241 121.696 11.5697 122.162 12.4858C122.627 13.4019 122.86 14.5203 122.86 15.8411C122.86 18.2911 121.977 20.118 120.21 21.3216C118.444 22.5252 115.921 23.1271 112.643 23.1271C111.754 23.1271 110.744 23.0739 109.612 22.9674C108.48 22.8608 107.344 22.6691 106.201 22.3921V0.757926H120.797V4.97615H110.929ZM112.896 18.877C113.552 18.877 114.176 18.8343 114.768 18.7491C115.361 18.6639 115.884 18.5095 116.339 18.2858C116.794 18.0621 117.159 17.7585 117.434 17.3751C117.709 16.9916 117.846 16.4909 117.846 15.8731C117.846 15.234 117.719 14.7121 117.466 14.3073C117.212 13.9025 116.852 13.5829 116.387 13.3486C115.921 13.1142 115.35 12.9544 114.673 12.8692C113.996 12.784 113.235 12.7414 112.389 12.7414H110.929V18.8131C111.162 18.8344 111.442 18.8503 111.77 18.861C112.098 18.8717 112.473 18.877 112.896 18.877ZM141.581 22.9034C141.332 22.1312 141.073 21.3429 140.788 20.5334C140.507 19.7238 140.227 18.9142 139.947 18.11H131.358C131.083 18.9196 130.803 19.7291 130.523 20.5387C130.248 21.3535 129.989 22.1365 129.745 22.9034H124.605C125.435 20.5173 126.218 18.3124 126.958 16.2886C127.704 14.2646 128.429 12.3579 129.142 10.5684C129.851 8.77884 130.549 7.07989 131.242 5.47147C131.929 3.86295 132.649 2.29177 133.389 0.757926H138.08C138.804 2.29177 139.518 3.86295 140.216 5.47147C140.92 7.07989 141.623 8.77884 142.337 10.5684C143.051 12.3579 143.776 14.2646 144.521 16.2886C145.267 18.3124 146.05 20.5173 146.88 22.9034H141.581ZM135.631 5.77499C135.52 6.09457 135.362 6.53659 135.145 7.08521C134.933 7.63915 134.69 8.2782 134.42 9.00789C134.151 9.73225 133.844 10.5311 133.511 11.4046C133.172 12.2727 132.834 13.1888 132.485 14.1475H138.773C138.44 13.1888 138.112 12.2674 137.794 11.394C137.482 10.5205 137.181 9.72161 136.895 8.99193C136.615 8.26756 136.366 7.62841 136.15 7.07457C135.938 6.52063 135.764 6.08925 135.631 5.77499ZM159.128 23.3508C155.553 23.3508 152.829 22.3495 150.957 20.3469C149.085 18.3443 148.149 15.5003 148.149 11.8147C148.149 9.98257 148.435 8.34746 149.006 6.90946C149.577 5.47147 150.36 4.2571 151.354 3.26646C152.348 2.27581 153.533 1.52485 154.908 1.01357C156.283 0.502284 157.774 0.246643 159.382 0.246643C160.313 0.246643 161.159 0.315897 161.92 0.454311C162.682 0.592818 163.348 0.752606 163.919 0.933673C164.49 1.11474 164.966 1.30113 165.347 1.49293C165.728 1.68464 166.003 1.83378 166.172 1.94028L164.744 5.9667C164.067 5.60456 163.279 5.29563 162.38 5.03999C161.481 4.78435 160.461 4.65657 159.318 4.65657C158.557 4.65657 157.811 4.78435 157.081 5.03999C156.351 5.29563 155.706 5.70574 155.146 6.27031C154.585 6.83489 154.136 7.56457 153.797 8.45927C153.459 9.35406 153.289 10.4406 153.289 11.7189C153.289 12.7414 153.401 13.6947 153.623 14.5789C153.845 15.463 154.204 16.2246 154.701 16.8637C155.199 17.5028 155.849 18.0088 156.653 18.3817C157.457 18.7545 158.43 18.9408 159.572 18.9408C160.291 18.9408 160.937 18.8983 161.508 18.8131C162.079 18.7279 162.587 18.6267 163.031 18.5095C163.475 18.3923 163.866 18.2591 164.205 18.11C164.543 17.9609 164.85 17.8224 165.125 17.6946L166.489 21.6891C165.791 22.1152 164.808 22.4986 163.538 22.8395C162.269 23.1803 160.799 23.3508 159.128 23.3508ZM186.289 15.6494C186.289 16.8851 186.051 17.9716 185.575 18.9089C185.1 19.8463 184.423 20.6346 183.545 21.2736C182.667 21.9128 181.599 22.3921 180.34 22.7117C179.081 23.0313 177.68 23.191 176.136 23.191C175.247 23.191 174.237 23.1271 173.105 22.9993C171.974 22.8715 170.826 22.6691 169.663 22.3921V0.757926H174.613V8.10778C174.845 8.0865 175.062 8.07586 175.263 8.07586C175.464 8.07586 175.681 8.07586 175.913 8.07586C179.362 8.07586 181.953 8.69363 183.687 9.92928C185.422 11.1649 186.289 13.0716 186.289 15.6494ZM189.05 0.757926H194V22.9034H189.05V0.757926ZM175.596 12.2941C175.49 12.2941 175.342 12.2941 175.152 12.2941C174.962 12.2941 174.782 12.3047 174.613 12.326V18.9408C174.845 18.9622 175.11 18.9729 175.406 18.9729C175.702 18.9729 176.062 18.9729 176.485 18.9729C177.14 18.9729 177.754 18.9196 178.325 18.8131C178.896 18.7066 179.399 18.5254 179.832 18.2698C180.266 18.0141 180.604 17.6733 180.848 17.2472C181.091 16.8211 181.213 16.2886 181.213 15.6494C181.213 14.3498 180.731 13.4658 179.769 12.9971C178.806 12.5283 177.415 12.2941 175.596 12.2941ZM64.856 39.8656V49.6442C65.258 49.6868 65.7391 49.7347 66.2997 49.788C66.8603 49.8412 67.5425 49.8679 68.3464 49.8679C69.2982 49.8679 70.2079 49.7934 71.0752 49.6442C71.9425 49.4951 72.6988 49.2288 73.3439 48.8453C73.9891 48.4619 74.5074 47.9506 74.8987 47.3114C75.2901 46.6723 75.4857 45.8628 75.4857 44.8828C75.4857 43.8601 75.3007 43.024 74.9305 42.3743C74.5603 41.7245 74.0315 41.2132 73.3439 40.8403C72.6564 40.4675 71.8262 40.2119 70.8531 40.0734C69.88 39.9349 68.7906 39.8656 67.5849 39.8656H64.856ZM67.8704 38.0122C69.4358 38.0122 70.8319 38.1401 72.0589 38.3957C73.2858 38.6514 74.317 39.0508 75.1526 39.594C75.9881 40.1373 76.6281 40.8456 77.0723 41.7191C77.5165 42.5926 77.7387 43.6365 77.7387 44.8508C77.7387 47.1729 76.9348 48.9039 75.3271 50.0437C73.7194 51.1834 71.3607 51.7533 68.2512 51.7533C67.3627 51.7533 66.4055 51.7054 65.3796 51.6095C64.3536 51.5136 63.4599 51.3592 62.6984 51.1461V29.4161H75.7714V31.3015H64.856V38.0122H67.8704ZM96.9357 51.5616C96.5179 50.4751 96.1318 49.4258 95.7775 48.4245C95.4232 47.4179 95.09 46.4432 94.7674 45.4899H84.0266C83.6564 46.4487 83.2968 47.4286 82.9478 48.4298C82.5934 49.4365 82.2232 50.4804 81.8319 51.5616H79.579C80.4146 49.2554 81.2025 47.109 81.9483 45.1172C82.6886 43.1252 83.4184 41.2398 84.1324 39.4663C84.8463 37.6873 85.5549 35.983 86.2583 34.3426C86.9617 32.7075 87.7021 31.0618 88.4795 29.4161H90.3833C91.1554 31.0565 91.8905 32.6968 92.5886 34.3373C93.2867 35.9777 93.99 37.6873 94.7093 39.4609C95.4232 41.2398 96.1529 43.1252 96.8881 45.1172C97.6232 47.109 98.4323 49.2607 99.3155 51.5616H96.9357ZM89.3679 31.9086C88.5747 33.7461 87.7972 35.6155 87.041 37.5062C86.29 39.4023 85.5074 41.4421 84.7035 43.6365H94.0852C93.2761 41.4421 92.4828 39.397 91.716 37.5009C90.9438 35.6048 90.1612 33.7408 89.3679 31.9086ZM116.545 29.4161H118.703V51.5616H116.545V40.9202H104.615V51.5616H102.457V29.4161H104.615V39.0348H116.545V29.4161ZM137.836 51.5616C137.117 50.4538 136.308 49.3512 135.409 48.2647C134.51 47.1782 133.563 46.1557 132.569 45.1916C131.575 44.233 130.565 43.3595 129.539 42.5713C128.513 41.7777 127.524 41.1172 126.572 40.5847V51.5616H124.414V29.4161H126.572V39.7219C127.376 38.9975 128.27 38.1614 129.253 37.2187C130.242 36.2706 131.215 35.3173 132.178 34.3639C133.14 33.4053 134.045 32.4892 134.891 31.6157C135.737 30.7476 136.414 30.0126 136.927 29.4161H139.529C138.91 30.0765 138.17 30.8594 137.302 31.7595C136.435 32.6649 135.515 33.597 134.542 34.5557C133.569 35.509 132.601 36.4517 131.633 37.3785C130.671 38.2999 129.809 39.1147 129.047 39.8178C129.661 40.2012 130.322 40.6752 131.03 41.2398C131.739 41.8044 132.458 42.4275 133.188 43.0985C133.918 43.7696 134.637 44.4727 135.346 45.2077C136.054 45.948 136.721 46.6882 137.345 47.4339C137.969 48.1795 138.529 48.9039 139.026 49.6123C139.523 50.3153 139.931 50.9651 140.248 51.5616H137.836Z" fill="#8F9CBB"/>
</g>
<defs>
<clipPath id="clip0_160_1659">
<rect width="194" height="52" fill="white"/>
</clipPath>
</defs>
</svg>
