<svg width="183" height="18" viewBox="0 0 183 18" fill="none" xmlns="http://www.w3.org/2000/svg">
<mask id="mask0_160_1883" style="mask-type:luminance" maskUnits="userSpaceOnUse" x="0" y="1" width="99" height="14">
<path d="M98.4093 1.93945H0V14.8696H98.4093V1.93945Z" fill="white"/>
</mask>
<g mask="url(#mask0_160_1883)">
<path d="M4.08153 14.638V10.2211H6.41501C9.30494 10.2211 10.6512 8.44004 10.6512 6.19597C10.6512 3.9519 9.30494 2.1709 6.41501 2.1709H1.92755V14.638H4.08153ZM6.41501 4.3081C7.68947 4.3081 8.49719 4.91365 8.49719 6.19597C8.49719 7.4783 7.68947 8.08384 6.41501 8.08384H4.08153V4.3081H6.41501Z" fill="#8F9CBB"/>
<path d="M18.0018 8.5468C18.0018 6.74797 16.494 5.55469 14.2323 5.55469C12.9399 5.55469 11.6655 6.17805 10.8757 6.97951L12.1861 8.33307C12.7425 7.70972 13.5323 7.40695 14.2682 7.40695C15.2914 7.40695 15.9914 7.83439 15.9914 8.5468V9.22358H15.3632C13.8374 9.22358 10.0321 9.36605 10.0321 12.1444C10.0321 13.783 11.3244 14.8159 13.3887 14.8159C14.4657 14.8159 15.3273 14.4419 15.9914 13.8186V14.6378H18.0018V8.5468ZM15.9555 10.684C15.794 12.1622 14.9503 13.1418 13.64 13.1418C12.7066 13.1418 11.9706 12.6787 11.9706 11.8951C11.9706 10.8265 13.6759 10.684 15.1837 10.684H15.9555Z" fill="#8F9CBB"/>
<path d="M21.2192 14.6375V10.1137C21.2192 8.45737 22.5115 7.47782 23.9475 7.47782V5.73242C22.8707 5.73242 21.9373 6.08863 21.2192 6.71197V5.73242H19.0652V14.6375H21.2192Z" fill="#8F9CBB"/>
<path d="M25.5271 7.40683V11.6456C25.5271 13.7294 27.0528 14.6377 29.4401 14.6377V12.643C28.3632 12.643 27.681 12.2155 27.681 11.3607V7.40683H29.3684V5.73267H27.681V3.23926H25.5271V5.73267H24.4142V7.40683H25.5271Z" fill="#8F9CBB"/>
<path d="M29.9281 14.6375H32.0822V9.43692C32.0822 8.38613 32.9079 7.62029 33.9849 7.62029C35.0619 7.62029 35.8876 8.38613 35.8876 9.43692V14.6375H38.0415V9.43692C38.0415 7.21065 36.6055 5.73242 34.308 5.73242C33.4104 5.73242 32.6745 5.96396 32.0822 6.44483V5.73242H29.9281V14.6375Z" fill="#8F9CBB"/>
<path d="M42.8377 14.8159C44.1839 14.8159 45.6738 14.2816 46.3917 13.3733L44.9737 12.18C44.471 12.6965 43.6812 13.0705 42.8377 13.0705C41.4554 13.0705 40.6658 12.1088 40.5758 10.684H47.1098V10.0072C47.1098 7.35351 45.3507 5.55469 42.8377 5.55469C40.3247 5.55469 38.5656 7.35351 38.5656 10.0072V10.4347C38.5656 13.0884 40.3247 14.8159 42.8377 14.8159ZM40.6658 9.22358C40.8989 8.08373 41.617 7.30008 42.8377 7.30008C44.0581 7.30008 44.7762 8.08373 45.0096 9.22358H40.6658Z" fill="#8F9CBB"/>
<path d="M50.0393 14.6375V10.1137C50.0393 8.45737 51.3317 7.47782 52.7677 7.47782V5.73242C51.6906 5.73242 50.7572 6.08863 50.0393 6.71197V5.73242H47.8853V14.6375H50.0393Z" fill="#8F9CBB"/>
<path d="M56.6661 14.7798C58.856 14.7798 60.3101 13.6222 60.3639 12.0014C60.3639 11.8768 60.3639 11.7521 60.3459 11.6274C60.2023 10.0067 58.4612 9.57926 57.097 9.25868C56.1097 9.02715 55.2482 8.76 55.2482 8.10103C55.2482 7.47768 55.9482 7.12147 56.738 7.12147C57.4739 7.12147 58.2996 7.42425 58.7483 7.97636L59.8433 6.71184C59.1074 5.91039 57.9585 5.51855 56.6661 5.51855C54.7276 5.51855 53.2557 6.55154 53.166 8.0654C53.148 8.19007 53.148 8.31474 53.166 8.43941C53.3096 10.1136 54.9968 10.5054 56.3611 10.8438C57.3662 11.0753 58.1918 11.3247 58.1918 11.9836C58.1918 12.7316 57.2945 13.0344 56.6661 13.0344C55.8226 13.0344 54.9609 12.7494 54.1531 12.0192L52.8968 13.3372C53.7224 14.2989 55.302 14.7798 56.6661 14.7798Z" fill="#8F9CBB"/>
<path d="M62.1281 6.80152L62.3076 2.1709H60.6921L60.8716 6.80152H62.1281Z" fill="#8F9CBB"/>
<path d="M66.1974 9.34796C66.1974 12.5538 68.4412 14.8691 71.8338 14.8691C73.7723 14.8691 75.3161 14.1033 76.3212 12.8744L74.616 11.4852C73.9877 12.251 73.0544 12.7319 71.8338 12.7319C69.7158 12.7319 68.3515 11.2715 68.3515 9.34796V7.46009C68.3515 5.53661 69.7158 4.07619 71.8338 4.07619C73.0544 4.07619 73.9877 4.55704 74.616 5.32288L76.3212 3.93369C75.3161 2.7048 73.7723 1.93896 71.8338 1.93896C68.4412 1.93896 66.1974 4.25427 66.1974 7.46009V9.34796Z" fill="#8F9CBB"/>
<path d="M79.3035 2.1709H77.1496V14.638H79.3035V2.1709Z" fill="#8F9CBB"/>
<path d="M88.5881 5.73242H86.4342V11.0398C86.4342 12.0906 85.6083 12.8564 84.5315 12.8564C83.4545 12.8564 82.6288 12.0906 82.6288 11.0398V5.73242H80.4747V11.0398C80.4747 13.2483 81.8568 14.8512 84.1365 14.8512C85.0699 14.8512 85.8417 14.5306 86.4342 14.0319V14.6375H88.5881V5.73242Z" fill="#8F9CBB"/>
<path d="M89.5779 14.638H91.732V13.694C92.432 14.4064 93.3655 14.8161 94.4603 14.8161C96.8297 14.8161 98.4093 12.9816 98.4093 10.1854C98.4093 7.38925 96.8297 5.55482 94.4603 5.55482C93.3655 5.55482 92.432 5.96446 91.732 6.67685V2.1709H89.5779V14.638ZM96.3989 10.1854C96.3989 11.7171 95.6271 12.9994 94.1372 12.9994C92.6474 12.9994 91.8756 11.7171 91.8756 10.1854C91.8756 8.65377 92.6474 7.37145 94.1372 7.37145C95.6271 7.37145 96.3989 8.65377 96.3989 10.1854Z" fill="#8F9CBB"/>
</g>
<path d="M167.241 2.26709H164.034L161.345 8.98917L158.811 2.36973H155.604L153.484 14.7876H156.742L157.777 7.65502L159.845 12.7864L160.621 14.7876H161.914L164.965 7.5524L165.896 14.7876H169.154L167.241 2.26709Z" fill="#8F9CBB"/>
<path d="M150.381 2.3182C149.347 2.3182 148.468 3.08791 148.468 4.16549V12.9401C148.519 14.0177 149.399 14.8387 150.485 14.7874C151.467 14.7361 152.295 13.9664 152.347 12.9401V4.11419C152.295 3.08791 151.467 2.2669 150.381 2.3182Z" fill="#8F9CBB"/>
<path d="M178.102 2.31836H174.636H174.585L169.723 14.7876H173.189L174.068 12.6324H178.567L179.343 14.7876H182.859L178.102 2.31836Z" fill="#8F9CBB"/>
<path d="M130.419 2.36963H126.85L122.041 14.8388H125.505L126.333 12.6323H130.832L131.66 14.8388H135.125L130.419 2.36963Z" fill="#8F9CBB"/>
<path d="M147.278 7.86018H145.313H141.072V10.2206H143.658C143.606 10.7337 143.399 11.1956 143.089 11.5548C142.572 12.0166 141.9 12.2732 141.227 12.2218C140.452 12.2732 139.676 11.9653 139.107 11.4008C138.331 10.6311 137.969 9.60485 137.969 8.57858C137.969 8.06544 138.073 7.50099 138.279 7.03917C138.797 5.6537 139.779 4.98662 141.072 4.98662C141.693 4.98662 142.313 5.19188 142.779 5.55108C143.141 5.91027 143.451 6.32077 143.658 6.78261L146.606 5.6024C146.192 4.73006 145.571 3.96035 144.796 3.34459C143.761 2.62619 142.468 2.2157 141.227 2.267C139.107 2.267 137.504 2.93407 136.314 4.26824C135.28 5.44844 134.711 6.98785 134.763 8.57858C134.711 10.0154 135.176 11.4521 136.107 12.6324C137.297 14.1204 138.952 14.8388 141.175 14.8388C141.693 14.8388 142.21 14.7875 142.727 14.6849C143.399 14.5309 144.072 14.2744 144.641 13.9152C145.675 13.2481 146.451 12.2218 146.864 11.0929C147.123 10.0154 147.278 8.93778 147.278 7.86018Z" fill="#8F9CBB"/>
<path d="M102.561 14.8696V4.0083H104.736V7.87182C105.342 7.29774 106.103 6.95637 107.036 6.95637C109.087 6.95637 110.454 8.55453 110.454 10.9906C110.454 13.4266 109.087 15.0248 107.036 15.0248C106.103 15.0248 105.342 14.6834 104.736 14.1093V14.8696H102.561ZM108.465 10.9906C108.465 9.74928 107.812 8.78728 106.694 8.78728C105.575 8.78728 104.922 9.74928 104.922 10.9906C104.922 12.2319 105.575 13.1939 106.694 13.1939C107.812 13.1939 108.465 12.2319 108.465 10.9906ZM111.888 17.9729V16.1109C113.1 16.1109 113.598 15.3041 113.722 14.8386L110.987 7.11154H113.069L114.778 11.9371L116.519 7.11154H118.601L115.804 14.8696C115.431 15.9402 114.592 17.9729 111.888 17.9729Z" fill="#8F9CBB"/>
</svg>
