<svg width="44" height="29" viewBox="0 0 44 29" fill="none" xmlns="http://www.w3.org/2000/svg">
<path fill-rule="evenodd" clip-rule="evenodd" d="M4.52498 28.1432C3.74045 27.9188 3.02463 27.5197 2.43791 26.9794C1.8512 26.4391 1.41081 25.7736 1.15389 25.039C-0.314158 21.2422 -0.749137 5.38807 2.07822 2.25828C3.01922 1.24013 4.34778 0.613289 5.77554 0.513801C13.3605 -0.255819 36.795 -0.153202 39.4864 0.770342C40.2434 1.00209 40.935 1.3925 41.5094 1.9123C42.0838 2.43211 42.5261 3.06784 42.8031 3.77186C44.4071 7.69693 44.4614 21.9606 42.5856 25.7317C42.088 26.7134 41.2549 27.5085 40.2204 27.9893C37.393 29.3233 8.27667 29.2976 4.52498 28.1432ZM16.5684 20.7035L30.1615 14.0335L16.5684 7.31211V20.7035Z" fill="white"/>
</svg>
